<ttFont>
    <TTGlyph name=".notdef" xMin="130" yMin="-260" xMax="626" yMax="970">
      <contour>
        <pt x="130" y="970" on="1"/>
        <pt x="626" y="970" on="1"/>
        <pt x="626" y="-260" on="1"/>
        <pt x="130" y="-260" on="1"/>
      </contour>
      <contour>
        <pt x="240" y="-199" on="1"/>
        <pt x="515" y="-199" on="1"/>
        <pt x="515" y="911" on="1"/>
        <pt x="240" y="911" on="1"/>
      </contour>
    </TTGlyph>
    <TTGlyph name="A" xMin="-6" yMin="0" xMax="785" yMax="770">
      <contour>
        <pt x="488" y="279" on="1"/>
        <pt x="221" y="279" on="1"/>
        <pt x="204" y="238" on="0"/>
        <pt x="180" y="175" on="0"/>
        <pt x="165" y="129" on="0"/>
        <pt x="159" y="97" on="0"/>
        <pt x="159" y="87" on="1"/>
        <pt x="159" y="59" on="0"/>
        <pt x="195" y="38" on="0"/>
        <pt x="237" y="38" on="1"/>
        <pt x="237" y="0" on="1"/>
        <pt x="-6" y="0" on="1"/>
        <pt x="-6" y="38" on="1"/>
        <pt x="17" y="41" on="0"/>
        <pt x="50" y="51" on="0"/>
        <pt x="75" y="69" on="0"/>
        <pt x="94" y="98" on="0"/>
        <pt x="103" y="119" on="1"/>
        <pt x="363" y="770" on="1"/>
        <pt x="406" y="770" on="1"/>
        <pt x="633" y="206" on="1"/>
        <pt x="656" y="150" on="0"/>
        <pt x="690" y="83" on="0"/>
        <pt x="722" y="49" on="0"/>
        <pt x="759" y="39" on="0"/>
        <pt x="785" y="39" on="1"/>
        <pt x="785" y="0" on="1"/>
        <pt x="459" y="0" on="1"/>
        <pt x="459" y="39" on="1"/>
        <pt x="512" y="39" on="0"/>
        <pt x="552" y="59" on="0"/>
        <pt x="552" y="82" on="1"/>
        <pt x="552" y="92" on="0"/>
        <pt x="550" y="109" on="0"/>
        <pt x="545" y="129" on="0"/>
        <pt x="536" y="154" on="0"/>
        <pt x="529" y="171" on="1"/>
      </contour>
      <contour>
        <pt x="241" y="329" on="1"/>
        <pt x="469" y="329" on="1"/>
        <pt x="358" y="624" on="1"/>
      </contour>
    </TTGlyph>
    <TTGlyph name="AE" xMin="-11" yMin="0" xMax="1006" yMax="770">
      <contour>
        <pt x="370" y="38" on="1"/>
        <pt x="405" y="39" on="0"/>
        <pt x="448" y="49" on="0"/>
        <pt x="472" y="73" on="0"/>
        <pt x="480" y="117" on="0"/>
        <pt x="480" y="152" on="1"/>
        <pt x="480" y="284" on="1"/>
        <pt x="249" y="284" on="1"/>
        <pt x="245" y="275" on="1"/>
        <pt x="230" y="246" on="0"/>
        <pt x="199" y="189" on="0"/>
        <pt x="174" y="138" on="0"/>
        <pt x="158" y="94" on="0"/>
        <pt x="158" y="78" on="1"/>
        <pt x="158" y="63" on="0"/>
        <pt x="172" y="48" on="0"/>
        <pt x="193" y="41" on="0"/>
        <pt x="219" y="39" on="0"/>
        <pt x="231" y="38" on="1"/>
        <pt x="231" y="0" on="1"/>
        <pt x="-11" y="0" on="1"/>
        <pt x="-11" y="38" on="1"/>
        <pt x="12" y="41" on="0"/>
        <pt x="44" y="51" on="0"/>
        <pt x="69" y="69" on="0"/>
        <pt x="90" y="98" on="0"/>
        <pt x="102" y="119" on="1"/>
        <pt x="111" y="136" on="0"/>
        <pt x="132" y="171" on="0"/>
        <pt x="160" y="223" on="0"/>
        <pt x="201" y="299" on="0"/>
        <pt x="261" y="413" on="0"/>
        <pt x="345" y="573" on="0"/>
        <pt x="402" y="684" on="1"/>
        <pt x="405" y="691" on="0"/>
        <pt x="409" y="702" on="0"/>
        <pt x="409" y="707" on="1"/>
        <pt x="409" y="721" on="0"/>
        <pt x="372" y="732" on="0"/>
        <pt x="326" y="732" on="1"/>
        <pt x="326" y="770" on="1"/>
        <pt x="962" y="770" on="1"/>
        <pt x="962" y="594" on="1"/>
        <pt x="927" y="594" on="1"/>
        <pt x="921" y="634" on="0"/>
        <pt x="896" y="685" on="0"/>
        <pt x="850" y="715" on="0"/>
        <pt x="780" y="727" on="0"/>
        <pt x="729" y="727" on="1"/>
        <pt x="602" y="727" on="1"/>
        <pt x="585" y="727" on="0"/>
        <pt x="585" y="710" on="1"/>
        <pt x="585" y="423" on="1"/>
        <pt x="633" y="423" on="0"/>
        <pt x="702" y="433" on="0"/>
        <pt x="747" y="458" on="0"/>
        <pt x="771" y="503" on="0"/>
        <pt x="774" y="538" on="1"/>
        <pt x="809" y="538" on="1"/>
        <pt x="809" y="265" on="1"/>
        <pt x="774" y="265" on="1"/>
        <pt x="769" y="300" on="0"/>
        <pt x="747" y="346" on="0"/>
        <pt x="704" y="372" on="0"/>
        <pt x="636" y="383" on="0"/>
        <pt x="585" y="383" on="1"/>
        <pt x="585" y="157" on="1"/>
        <pt x="585" y="124" on="0"/>
        <pt x="601" y="81" on="0"/>
        <pt x="640" y="54" on="0"/>
        <pt x="704" y="43" on="0"/>
        <pt x="751" y="43" on="1"/>
        <pt x="804" y="43" on="0"/>
        <pt x="878" y="58" on="0"/>
        <pt x="928" y="94" on="0"/>
        <pt x="958" y="153" on="0"/>
        <pt x="968" y="197" on="1"/>
        <pt x="1006" y="197" on="1"/>
        <pt x="991" y="0" on="1"/>
        <pt x="370" y="0" on="1"/>
      </contour>
      <contour>
        <pt x="480" y="329" on="1"/>
        <pt x="480" y="721" on="1"/>
        <pt x="273" y="329" on="1"/>
      </contour>
    </TTGlyph>
    <TTGlyph name="AEacute" xMin="-11" yMin="0" xMax="1006" yMax="960">
      <contour>
        <pt x="370" y="38" on="1"/>
        <pt x="405" y="39" on="0"/>
        <pt x="448" y="49" on="0"/>
        <pt x="472" y="73" on="0"/>
        <pt x="480" y="117" on="0"/>
        <pt x="480" y="152" on="1"/>
        <pt x="480" y="284" on="1"/>
        <pt x="249" y="284" on="1"/>
        <pt x="245" y="275" on="1"/>
        <pt x="230" y="246" on="0"/>
        <pt x="199" y="189" on="0"/>
        <pt x="174" y="138" on="0"/>
        <pt x="158" y="94" on="0"/>
        <pt x="158" y="78" on="1"/>
        <pt x="158" y="63" on="0"/>
        <pt x="172" y="48" on="0"/>
        <pt x="193" y="41" on="0"/>
        <pt x="219" y="39" on="0"/>
        <pt x="231" y="38" on="1"/>
        <pt x="231" y="0" on="1"/>
        <pt x="-11" y="0" on="1"/>
        <pt x="-11" y="38" on="1"/>
        <pt x="12" y="41" on="0"/>
        <pt x="44" y="51" on="0"/>
        <pt x="69" y="69" on="0"/>
        <pt x="90" y="98" on="0"/>
        <pt x="102" y="119" on="1"/>
        <pt x="111" y="136" on="0"/>
        <pt x="132" y="171" on="0"/>
        <pt x="160" y="223" on="0"/>
        <pt x="201" y="299" on="0"/>
        <pt x="261" y="413" on="0"/>
        <pt x="345" y="573" on="0"/>
        <pt x="402" y="684" on="1"/>
        <pt x="405" y="691" on="0"/>
        <pt x="409" y="702" on="0"/>
        <pt x="409" y="707" on="1"/>
        <pt x="409" y="721" on="0"/>
        <pt x="372" y="732" on="0"/>
        <pt x="326" y="732" on="1"/>
        <pt x="326" y="770" on="1"/>
        <pt x="962" y="770" on="1"/>
        <pt x="962" y="594" on="1"/>
        <pt x="927" y="594" on="1"/>
        <pt x="921" y="634" on="0"/>
        <pt x="896" y="685" on="0"/>
        <pt x="850" y="715" on="0"/>
        <pt x="780" y="727" on="0"/>
        <pt x="729" y="727" on="1"/>
        <pt x="602" y="727" on="1"/>
        <pt x="585" y="727" on="0"/>
        <pt x="585" y="710" on="1"/>
        <pt x="585" y="423" on="1"/>
        <pt x="633" y="423" on="0"/>
        <pt x="702" y="433" on="0"/>
        <pt x="747" y="458" on="0"/>
        <pt x="771" y="503" on="0"/>
        <pt x="774" y="538" on="1"/>
        <pt x="809" y="538" on="1"/>
        <pt x="809" y="265" on="1"/>
        <pt x="774" y="265" on="1"/>
        <pt x="769" y="300" on="0"/>
        <pt x="747" y="346" on="0"/>
        <pt x="704" y="372" on="0"/>
        <pt x="636" y="383" on="0"/>
        <pt x="585" y="383" on="1"/>
        <pt x="585" y="157" on="1"/>
        <pt x="585" y="124" on="0"/>
        <pt x="601" y="81" on="0"/>
        <pt x="640" y="54" on="0"/>
        <pt x="704" y="43" on="0"/>
        <pt x="751" y="43" on="1"/>
        <pt x="804" y="43" on="0"/>
        <pt x="878" y="58" on="0"/>
        <pt x="928" y="94" on="0"/>
        <pt x="958" y="153" on="0"/>
        <pt x="968" y="197" on="1"/>
        <pt x="1006" y="197" on="1"/>
        <pt x="991" y="0" on="1"/>
        <pt x="370" y="0" on="1"/>
      </contour>
      <contour>
        <pt x="480" y="329" on="1"/>
        <pt x="480" y="721" on="1"/>
        <pt x="273" y="329" on="1"/>
      </contour>
      <contour>
        <pt x="472" y="850" on="1"/>
        <pt x="602" y="927" on="1"/>
        <pt x="630" y="944" on="0"/>
        <pt x="669" y="960" on="0"/>
        <pt x="689" y="960" on="1"/>
        <pt x="706" y="960" on="0"/>
        <pt x="727" y="942" on="0"/>
        <pt x="727" y="925" on="1"/>
        <pt x="727" y="909" on="0"/>
        <pt x="686" y="886" on="0"/>
        <pt x="652" y="878" on="1"/>
        <pt x="532" y="850" on="1"/>
      </contour>
    </TTGlyph>
    <TTGlyph name="Aacute" xMin="-6" yMin="0" xMax="785" yMax="960">
      <contour>
        <pt x="488" y="279" on="1"/>
        <pt x="221" y="279" on="1"/>
        <pt x="204" y="238" on="0"/>
        <pt x="180" y="175" on="0"/>
        <pt x="165" y="129" on="0"/>
        <pt x="159" y="97" on="0"/>
        <pt x="159" y="87" on="1"/>
        <pt x="159" y="59" on="0"/>
        <pt x="195" y="38" on="0"/>
        <pt x="237" y="38" on="1"/>
        <pt x="237" y="0" on="1"/>
        <pt x="-6" y="0" on="1"/>
        <pt x="-6" y="38" on="1"/>
        <pt x="17" y="41" on="0"/>
        <pt x="50" y="51" on="0"/>
        <pt x="75" y="69" on="0"/>
        <pt x="94" y="98" on="0"/>
        <pt x="103" y="119" on="1"/>
        <pt x="363" y="770" on="1"/>
        <pt x="406" y="770" on="1"/>
        <pt x="633" y="206" on="1"/>
        <pt x="656" y="150" on="0"/>
        <pt x="690" y="83" on="0"/>
        <pt x="722" y="49" on="0"/>
        <pt x="759" y="39" on="0"/>
        <pt x="785" y="39" on="1"/>
        <pt x="785" y="0" on="1"/>
        <pt x="459" y="0" on="1"/>
        <pt x="459" y="39" on="1"/>
        <pt x="512" y="39" on="0"/>
        <pt x="552" y="59" on="0"/>
        <pt x="552" y="82" on="1"/>
        <pt x="552" y="92" on="0"/>
        <pt x="550" y="109" on="0"/>
        <pt x="545" y="129" on="0"/>
        <pt x="536" y="154" on="0"/>
        <pt x="529" y="171" on="1"/>
      </contour>
      <contour>
        <pt x="241" y="329" on="1"/>
        <pt x="469" y="329" on="1"/>
        <pt x="358" y="624" on="1"/>
      </contour>
      <contour>
        <pt x="283" y="850" on="1"/>
        <pt x="413" y="927" on="1"/>
        <pt x="441" y="944" on="0"/>
        <pt x="480" y="960" on="0"/>
        <pt x="500" y="960" on="1"/>
        <pt x="517" y="960" on="0"/>
        <pt x="538" y="942" on="0"/>
        <pt x="538" y="925" on="1"/>
        <pt x="538" y="909" on="0"/>
        <pt x="497" y="886" on="0"/>
        <pt x="463" y="878" on="1"/>
        <pt x="343" y="850" on="1"/>
      </contour>
    </TTGlyph>
    <TTGlyph name="Abreve" xMin="-6" yMin="0" xMax="785" yMax="960">
      <contour>
        <pt x="488" y="279" on="1"/>
        <pt x="221" y="279" on="1"/>
        <pt x="204" y="238" on="0"/>
        <pt x="180" y="175" on="0"/>
        <pt x="165" y="129" on="0"/>
        <pt x="159" y="97" on="0"/>
        <pt x="159" y="87" on="1"/>
        <pt x="159" y="59" on="0"/>
        <pt x="195" y="38" on="0"/>
        <pt x="237" y="38" on="1"/>
        <pt x="237" y="0" on="1"/>
        <pt x="-6" y="0" on="1"/>
        <pt x="-6" y="38" on="1"/>
        <pt x="17" y="41" on="0"/>
        <pt x="50" y="51" on="0"/>
        <pt x="75" y="69" on="0"/>
        <pt x="94" y="98" on="0"/>
        <pt x="103" y="119" on="1"/>
        <pt x="363" y="770" on="1"/>
        <pt x="406" y="770" on="1"/>
        <pt x="633" y="206" on="1"/>
        <pt x="656" y="150" on="0"/>
        <pt x="690" y="83" on="0"/>
        <pt x="722" y="49" on="0"/>
        <pt x="759" y="39" on="0"/>
        <pt x="785" y="39" on="1"/>
        <pt x="785" y="0" on="1"/>
        <pt x="459" y="0" on="1"/>
        <pt x="459" y="39" on="1"/>
        <pt x="512" y="39" on="0"/>
        <pt x="552" y="59" on="0"/>
        <pt x="552" y="82" on="1"/>
        <pt x="552" y="92" on="0"/>
        <pt x="550" y="109" on="0"/>
        <pt x="545" y="129" on="0"/>
        <pt x="536" y="154" on="0"/>
        <pt x="529" y="171" on="1"/>
      </contour>
      <contour>
        <pt x="241" y="329" on="1"/>
        <pt x="469" y="329" on="1"/>
        <pt x="358" y="624" on="1"/>
      </contour>
      <contour>
        <pt x="521" y="960" on="1"/>
        <pt x="517" y="909" on="0"/>
        <pt x="440" y="845" on="0"/>
        <pt x="383" y="845" on="1"/>
        <pt x="354" y="845" on="0"/>
        <pt x="305" y="862" on="0"/>
        <pt x="268" y="893" on="0"/>
        <pt x="246" y="935" on="0"/>
        <pt x="245" y="960" on="1"/>
        <pt x="281" y="960" on="1"/>
        <pt x="289" y="939" on="0"/>
        <pt x="344" y="914" on="0"/>
        <pt x="382" y="914" on="1"/>
        <pt x="420" y="914" on="0"/>
        <pt x="476" y="939" on="0"/>
        <pt x="484" y="960" on="1"/>
      </contour>
    </TTGlyph>
    <TTGlyph name="Acircumflex" xMin="-6" yMin="0" xMax="785" yMax="960">
      <contour>
        <pt x="488" y="279" on="1"/>
        <pt x="221" y="279" on="1"/>
        <pt x="204" y="238" on="0"/>
        <pt x="180" y="175" on="0"/>
        <pt x="165" y="129" on="0"/>
        <pt x="159" y="97" on="0"/>
        <pt x="159" y="87" on="1"/>
        <pt x="159" y="59" on="0"/>
        <pt x="195" y="38" on="0"/>
        <pt x="237" y="38" on="1"/>
        <pt x="237" y="0" on="1"/>
        <pt x="-6" y="0" on="1"/>
        <pt x="-6" y="38" on="1"/>
        <pt x="17" y="41" on="0"/>
        <pt x="50" y="51" on="0"/>
        <pt x="75" y="69" on="0"/>
        <pt x="94" y="98" on="0"/>
        <pt x="103" y="119" on="1"/>
        <pt x="363" y="770" on="1"/>
        <pt x="406" y="770" on="1"/>
        <pt x="633" y="206" on="1"/>
        <pt x="656" y="150" on="0"/>
        <pt x="690" y="83" on="0"/>
        <pt x="722" y="49" on="0"/>
        <pt x="759" y="39" on="0"/>
        <pt x="785" y="39" on="1"/>
        <pt x="785" y="0" on="1"/>
        <pt x="459" y="0" on="1"/>
        <pt x="459" y="39" on="1"/>
        <pt x="512" y="39" on="0"/>
        <pt x="552" y="59" on="0"/>
        <pt x="552" y="82" on="1"/>
        <pt x="552" y="92" on="0"/>
        <pt x="550" y="109" on="0"/>
        <pt x="545" y="129" on="0"/>
        <pt x="536" y="154" on="0"/>
        <pt x="529" y="171" on="1"/>
      </contour>
      <contour>
        <pt x="241" y="329" on="1"/>
        <pt x="469" y="329" on="1"/>
        <pt x="358" y="624" on="1"/>
      </contour>
      <contour>
        <pt x="438" y="960" on="1"/>
        <pt x="547" y="851" on="1"/>
        <pt x="502" y="851" on="1"/>
        <pt x="383" y="905" on="1"/>
        <pt x="264" y="851" on="1"/>
        <pt x="219" y="851" on="1"/>
        <pt x="328" y="960" on="1"/>
      </contour>
    </TTGlyph>
    <TTGlyph name="Adieresis" xMin="-6" yMin="0" xMax="785" yMax="960">
      <contour>
        <pt x="488" y="279" on="1"/>
        <pt x="221" y="279" on="1"/>
        <pt x="204" y="238" on="0"/>
        <pt x="180" y="175" on="0"/>
        <pt x="165" y="129" on="0"/>
        <pt x="159" y="97" on="0"/>
        <pt x="159" y="87" on="1"/>
        <pt x="159" y="59" on="0"/>
        <pt x="195" y="38" on="0"/>
        <pt x="237" y="38" on="1"/>
        <pt x="237" y="0" on="1"/>
        <pt x="-6" y="0" on="1"/>
        <pt x="-6" y="38" on="1"/>
        <pt x="17" y="41" on="0"/>
        <pt x="50" y="51" on="0"/>
        <pt x="75" y="69" on="0"/>
        <pt x="94" y="98" on="0"/>
        <pt x="103" y="119" on="1"/>
        <pt x="363" y="770" on="1"/>
        <pt x="406" y="770" on="1"/>
        <pt x="633" y="206" on="1"/>
        <pt x="656" y="150" on="0"/>
        <pt x="690" y="83" on="0"/>
        <pt x="722" y="49" on="0"/>
        <pt x="759" y="39" on="0"/>
        <pt x="785" y="39" on="1"/>
        <pt x="785" y="0" on="1"/>
        <pt x="459" y="0" on="1"/>
        <pt x="459" y="39" on="1"/>
        <pt x="512" y="39" on="0"/>
        <pt x="552" y="59" on="0"/>
        <pt x="552" y="82" on="1"/>
        <pt x="552" y="92" on="0"/>
        <pt x="550" y="109" on="0"/>
        <pt x="545" y="129" on="0"/>
        <pt x="536" y="154" on="0"/>
        <pt x="529" y="171" on="1"/>
      </contour>
      <contour>
        <pt x="241" y="329" on="1"/>
        <pt x="469" y="329" on="1"/>
        <pt x="358" y="624" on="1"/>
      </contour>
      <contour>
        <pt x="242" y="910" on="1"/>
        <pt x="242" y="931" on="0"/>
        <pt x="271" y="960" on="0"/>
        <pt x="292" y="960" on="1"/>
        <pt x="314" y="960" on="0"/>
        <pt x="343" y="931" on="0"/>
        <pt x="343" y="910" on="1"/>
        <pt x="343" y="888" on="0"/>
        <pt x="314" y="859" on="0"/>
        <pt x="292" y="859" on="1"/>
        <pt x="271" y="859" on="0"/>
        <pt x="242" y="888" on="0"/>
      </contour>
      <contour>
        <pt x="424" y="910" on="1"/>
        <pt x="424" y="931" on="0"/>
        <pt x="453" y="960" on="0"/>
        <pt x="475" y="960" on="1"/>
        <pt x="496" y="960" on="0"/>
        <pt x="525" y="931" on="0"/>
        <pt x="525" y="910" on="1"/>
        <pt x="525" y="888" on="0"/>
        <pt x="496" y="859" on="0"/>
        <pt x="475" y="859" on="1"/>
        <pt x="453" y="859" on="0"/>
        <pt x="424" y="888" on="0"/>
      </contour>
    </TTGlyph>
    <TTGlyph name="Agrave" xMin="-6" yMin="0" xMax="785" yMax="960">
      <contour>
        <pt x="488" y="279" on="1"/>
        <pt x="221" y="279" on="1"/>
        <pt x="204" y="238" on="0"/>
        <pt x="180" y="175" on="0"/>
        <pt x="165" y="129" on="0"/>
        <pt x="159" y="97" on="0"/>
        <pt x="159" y="87" on="1"/>
        <pt x="159" y="59" on="0"/>
        <pt x="195" y="38" on="0"/>
        <pt x="237" y="38" on="1"/>
        <pt x="237" y="0" on="1"/>
        <pt x="-6" y="0" on="1"/>
        <pt x="-6" y="38" on="1"/>
        <pt x="17" y="41" on="0"/>
        <pt x="50" y="51" on="0"/>
        <pt x="75" y="69" on="0"/>
        <pt x="94" y="98" on="0"/>
        <pt x="103" y="119" on="1"/>
        <pt x="363" y="770" on="1"/>
        <pt x="406" y="770" on="1"/>
        <pt x="633" y="206" on="1"/>
        <pt x="656" y="150" on="0"/>
        <pt x="690" y="83" on="0"/>
        <pt x="722" y="49" on="0"/>
        <pt x="759" y="39" on="0"/>
        <pt x="785" y="39" on="1"/>
        <pt x="785" y="0" on="1"/>
        <pt x="459" y="0" on="1"/>
        <pt x="459" y="39" on="1"/>
        <pt x="512" y="39" on="0"/>
        <pt x="552" y="59" on="0"/>
        <pt x="552" y="82" on="1"/>
        <pt x="552" y="92" on="0"/>
        <pt x="550" y="109" on="0"/>
        <pt x="545" y="129" on="0"/>
        <pt x="536" y="154" on="0"/>
        <pt x="529" y="171" on="1"/>
      </contour>
      <contour>
        <pt x="241" y="329" on="1"/>
        <pt x="469" y="329" on="1"/>
        <pt x="358" y="624" on="1"/>
      </contour>
      <contour>
        <pt x="429" y="850" on="1"/>
        <pt x="309" y="878" on="1"/>
        <pt x="275" y="886" on="0"/>
        <pt x="234" y="909" on="0"/>
        <pt x="234" y="925" on="1"/>
        <pt x="234" y="942" on="0"/>
        <pt x="255" y="960" on="0"/>
        <pt x="272" y="960" on="1"/>
        <pt x="292" y="960" on="0"/>
        <pt x="331" y="944" on="0"/>
        <pt x="359" y="927" on="1"/>
        <pt x="489" y="850" on="1"/>
      </contour>
    </TTGlyph>
    <TTGlyph name="Amacron" xMin="-6" yMin="0" xMax="785" yMax="930">
      <contour>
        <pt x="488" y="279" on="1"/>
        <pt x="221" y="279" on="1"/>
        <pt x="204" y="238" on="0"/>
        <pt x="180" y="175" on="0"/>
        <pt x="165" y="129" on="0"/>
        <pt x="159" y="97" on="0"/>
        <pt x="159" y="87" on="1"/>
        <pt x="159" y="59" on="0"/>
        <pt x="195" y="38" on="0"/>
        <pt x="237" y="38" on="1"/>
        <pt x="237" y="0" on="1"/>
        <pt x="-6" y="0" on="1"/>
        <pt x="-6" y="38" on="1"/>
        <pt x="17" y="41" on="0"/>
        <pt x="50" y="51" on="0"/>
        <pt x="75" y="69" on="0"/>
        <pt x="94" y="98" on="0"/>
        <pt x="103" y="119" on="1"/>
        <pt x="363" y="770" on="1"/>
        <pt x="406" y="770" on="1"/>
        <pt x="633" y="206" on="1"/>
        <pt x="656" y="150" on="0"/>
        <pt x="690" y="83" on="0"/>
        <pt x="722" y="49" on="0"/>
        <pt x="759" y="39" on="0"/>
        <pt x="785" y="39" on="1"/>
        <pt x="785" y="0" on="1"/>
        <pt x="459" y="0" on="1"/>
        <pt x="459" y="39" on="1"/>
        <pt x="512" y="39" on="0"/>
        <pt x="552" y="59" on="0"/>
        <pt x="552" y="82" on="1"/>
        <pt x="552" y="92" on="0"/>
        <pt x="550" y="109" on="0"/>
        <pt x="545" y="129" on="0"/>
        <pt x="536" y="154" on="0"/>
        <pt x="529" y="171" on="1"/>
      </contour>
      <contour>
        <pt x="241" y="329" on="1"/>
        <pt x="469" y="329" on="1"/>
        <pt x="358" y="624" on="1"/>
      </contour>
      <contour>
        <pt x="248" y="880" on="1"/>
        <pt x="248" y="930" on="1"/>
        <pt x="518" y="930" on="1"/>
        <pt x="518" y="880" on="1"/>
      </contour>
    </TTGlyph>
    <TTGlyph name="Aogonek" xMin="-6" yMin="-234" xMax="785" yMax="770">
      <contour>
        <pt x="737" y="-152" on="1"/>
        <pt x="702" y="-198" on="0"/>
        <pt x="624" y="-234" on="0"/>
        <pt x="580" y="-234" on="1"/>
        <pt x="534" y="-234" on="0"/>
        <pt x="483" y="-189" on="0"/>
        <pt x="483" y="-149" on="1"/>
        <pt x="483" y="-106" on="0"/>
        <pt x="547" y="-28" on="0"/>
        <pt x="606" y="0" on="1"/>
        <pt x="459" y="0" on="1"/>
        <pt x="459" y="39" on="1"/>
        <pt x="512" y="39" on="0"/>
        <pt x="552" y="59" on="0"/>
        <pt x="552" y="82" on="1"/>
        <pt x="552" y="92" on="0"/>
        <pt x="550" y="109" on="0"/>
        <pt x="545" y="129" on="0"/>
        <pt x="536" y="154" on="0"/>
        <pt x="529" y="171" on="1"/>
        <pt x="488" y="279" on="1"/>
        <pt x="221" y="279" on="1"/>
        <pt x="204" y="238" on="0"/>
        <pt x="180" y="175" on="0"/>
        <pt x="165" y="129" on="0"/>
        <pt x="159" y="97" on="0"/>
        <pt x="159" y="87" on="1"/>
        <pt x="159" y="59" on="0"/>
        <pt x="195" y="38" on="0"/>
        <pt x="237" y="38" on="1"/>
        <pt x="237" y="0" on="1"/>
        <pt x="-6" y="0" on="1"/>
        <pt x="-6" y="38" on="1"/>
        <pt x="17" y="41" on="0"/>
        <pt x="50" y="51" on="0"/>
        <pt x="75" y="69" on="0"/>
        <pt x="94" y="98" on="0"/>
        <pt x="103" y="119" on="1"/>
        <pt x="363" y="770" on="1"/>
        <pt x="406" y="770" on="1"/>
        <pt x="633" y="206" on="1"/>
        <pt x="656" y="150" on="0"/>
        <pt x="690" y="83" on="0"/>
        <pt x="722" y="49" on="0"/>
        <pt x="759" y="39" on="0"/>
        <pt x="785" y="39" on="1"/>
        <pt x="785" y="0" on="1"/>
        <pt x="671" y="0" on="1"/>
        <pt x="622" y="-26" on="0"/>
        <pt x="562" y="-97" on="0"/>
        <pt x="562" y="-126" on="1"/>
        <pt x="562" y="-146" on="0"/>
        <pt x="589" y="-174" on="0"/>
        <pt x="613" y="-174" on="1"/>
        <pt x="632" y="-174" on="0"/>
        <pt x="682" y="-148" on="0"/>
        <pt x="708" y="-121" on="1"/>
      </contour>
      <contour>
        <pt x="241" y="329" on="1"/>
        <pt x="469" y="329" on="1"/>
        <pt x="358" y="624" on="1"/>
      </contour>
    </TTGlyph>
    <TTGlyph name="Aring" xMin="-6" yMin="0" xMax="785" yMax="960">
      <contour>
        <pt x="488" y="279" on="1"/>
        <pt x="221" y="279" on="1"/>
        <pt x="204" y="238" on="0"/>
        <pt x="180" y="175" on="0"/>
        <pt x="165" y="129" on="0"/>
        <pt x="159" y="97" on="0"/>
        <pt x="159" y="87" on="1"/>
        <pt x="159" y="59" on="0"/>
        <pt x="195" y="38" on="0"/>
        <pt x="237" y="38" on="1"/>
        <pt x="237" y="0" on="1"/>
        <pt x="-6" y="0" on="1"/>
        <pt x="-6" y="38" on="1"/>
        <pt x="17" y="41" on="0"/>
        <pt x="50" y="51" on="0"/>
        <pt x="75" y="69" on="0"/>
        <pt x="94" y="98" on="0"/>
        <pt x="103" y="119" on="1"/>
        <pt x="363" y="770" on="1"/>
        <pt x="406" y="770" on="1"/>
        <pt x="633" y="206" on="1"/>
        <pt x="656" y="150" on="0"/>
        <pt x="690" y="83" on="0"/>
        <pt x="722" y="49" on="0"/>
        <pt x="759" y="39" on="0"/>
        <pt x="785" y="39" on="1"/>
        <pt x="785" y="0" on="1"/>
        <pt x="459" y="0" on="1"/>
        <pt x="459" y="39" on="1"/>
        <pt x="512" y="39" on="0"/>
        <pt x="552" y="59" on="0"/>
        <pt x="552" y="82" on="1"/>
        <pt x="552" y="92" on="0"/>
        <pt x="550" y="109" on="0"/>
        <pt x="545" y="129" on="0"/>
        <pt x="536" y="154" on="0"/>
        <pt x="529" y="171" on="1"/>
      </contour>
      <contour>
        <pt x="241" y="329" on="1"/>
        <pt x="469" y="329" on="1"/>
        <pt x="358" y="624" on="1"/>
      </contour>
      <contour>
        <pt x="318" y="895" on="1"/>
        <pt x="318" y="923" on="0"/>
        <pt x="355" y="960" on="0"/>
        <pt x="383" y="960" on="1"/>
        <pt x="411" y="960" on="0"/>
        <pt x="448" y="923" on="0"/>
        <pt x="448" y="895" on="1"/>
        <pt x="448" y="867" on="0"/>
        <pt x="411" y="830" on="0"/>
        <pt x="383" y="830" on="1"/>
        <pt x="355" y="830" on="0"/>
        <pt x="318" y="867" on="0"/>
      </contour>
      <contour>
        <pt x="349" y="895" on="1"/>
        <pt x="349" y="880" on="0"/>
        <pt x="368" y="861" on="0"/>
        <pt x="383" y="861" on="1"/>
        <pt x="397" y="861" on="0"/>
        <pt x="416" y="880" on="0"/>
        <pt x="416" y="895" on="1"/>
        <pt x="416" y="909" on="0"/>
        <pt x="397" y="928" on="0"/>
        <pt x="383" y="928" on="1"/>
        <pt x="368" y="928" on="0"/>
        <pt x="349" y="909" on="0"/>
      </contour>
    </TTGlyph>
    <TTGlyph name="Aringacute" xMin="-5" yMin="0" xMax="786" yMax="970">
      <contour>
        <pt x="484" y="279" on="1"/>
        <pt x="223" y="279" on="1"/>
        <pt x="181" y="173" on="1"/>
        <pt x="168" y="141" on="0"/>
        <pt x="159" y="105" on="0"/>
        <pt x="159" y="89" on="1"/>
        <pt x="159" y="61" on="0"/>
        <pt x="197" y="38" on="0"/>
        <pt x="238" y="38" on="1"/>
        <pt x="238" y="0" on="1"/>
        <pt x="-5" y="0" on="1"/>
        <pt x="-5" y="38" on="1"/>
        <pt x="37" y="38" on="0"/>
        <pt x="86" y="77" on="0"/>
        <pt x="104" y="119" on="1"/>
        <pt x="364" y="720" on="1"/>
        <pt x="407" y="720" on="1"/>
        <pt x="661" y="142" on="1"/>
        <pt x="686" y="85" on="0"/>
        <pt x="742" y="39" on="0"/>
        <pt x="786" y="39" on="1"/>
        <pt x="786" y="0" on="1"/>
        <pt x="460" y="0" on="1"/>
        <pt x="460" y="39" on="1"/>
        <pt x="511" y="39" on="0"/>
        <pt x="553" y="62" on="0"/>
        <pt x="553" y="88" on="1"/>
        <pt x="553" y="117" on="0"/>
        <pt x="530" y="171" on="1"/>
      </contour>
      <contour>
        <pt x="246" y="329" on="1"/>
        <pt x="463" y="329" on="1"/>
        <pt x="359" y="594" on="1"/>
      </contour>
      <contour>
        <pt x="300" y="878" on="1"/>
        <pt x="300" y="914" on="0"/>
        <pt x="345" y="960" on="0"/>
        <pt x="379" y="960" on="1"/>
        <pt x="404" y="960" on="0"/>
        <pt x="424" y="947" on="1"/>
        <pt x="437" y="960" on="0"/>
        <pt x="459" y="970" on="0"/>
        <pt x="471" y="970" on="1"/>
        <pt x="484" y="970" on="0"/>
        <pt x="500" y="956" on="0"/>
        <pt x="500" y="944" on="1"/>
        <pt x="500" y="930" on="0"/>
        <pt x="477" y="905" on="0"/>
        <pt x="457" y="894" on="1"/>
        <pt x="459" y="884" on="0"/>
        <pt x="459" y="878" on="1"/>
        <pt x="459" y="845" on="0"/>
        <pt x="414" y="799" on="0"/>
        <pt x="379" y="799" on="1"/>
        <pt x="350" y="799" on="0"/>
        <pt x="328" y="816" on="1"/>
        <pt x="296" y="801" on="1"/>
        <pt x="242" y="801" on="1"/>
        <pt x="302" y="857" on="1"/>
        <pt x="301" y="862" on="0"/>
        <pt x="300" y="873" on="0"/>
      </contour>
      <contour>
        <pt x="337" y="878" on="1"/>
        <pt x="337" y="860" on="0"/>
        <pt x="360" y="837" on="0"/>
        <pt x="379" y="837" on="1"/>
        <pt x="398" y="837" on="0"/>
        <pt x="421" y="860" on="0"/>
        <pt x="421" y="878" on="1"/>
        <pt x="421" y="897" on="0"/>
        <pt x="398" y="920" on="0"/>
        <pt x="379" y="920" on="1"/>
        <pt x="360" y="920" on="0"/>
        <pt x="337" y="897" on="0"/>
      </contour>
    </TTGlyph>
    <TTGlyph name="Atilde" xMin="-6" yMin="0" xMax="785" yMax="960">
      <contour>
        <pt x="488" y="279" on="1"/>
        <pt x="221" y="279" on="1"/>
        <pt x="204" y="238" on="0"/>
        <pt x="180" y="175" on="0"/>
        <pt x="165" y="129" on="0"/>
        <pt x="159" y="97" on="0"/>
        <pt x="159" y="87" on="1"/>
        <pt x="159" y="59" on="0"/>
        <pt x="195" y="38" on="0"/>
        <pt x="237" y="38" on="1"/>
        <pt x="237" y="0" on="1"/>
        <pt x="-6" y="0" on="1"/>
        <pt x="-6" y="38" on="1"/>
        <pt x="17" y="41" on="0"/>
        <pt x="50" y="51" on="0"/>
        <pt x="75" y="69" on="0"/>
        <pt x="94" y="98" on="0"/>
        <pt x="103" y="119" on="1"/>
        <pt x="363" y="770" on="1"/>
        <pt x="406" y="770" on="1"/>
        <pt x="633" y="206" on="1"/>
        <pt x="656" y="150" on="0"/>
        <pt x="690" y="83" on="0"/>
        <pt x="722" y="49" on="0"/>
        <pt x="759" y="39" on="0"/>
        <pt x="785" y="39" on="1"/>
        <pt x="785" y="0" on="1"/>
        <pt x="459" y="0" on="1"/>
        <pt x="459" y="39" on="1"/>
        <pt x="512" y="39" on="0"/>
        <pt x="552" y="59" on="0"/>
        <pt x="552" y="82" on="1"/>
        <pt x="552" y="92" on="0"/>
        <pt x="550" y="109" on="0"/>
        <pt x="545" y="129" on="0"/>
        <pt x="536" y="154" on="0"/>
        <pt x="529" y="171" on="1"/>
      </contour>
      <contour>
        <pt x="241" y="329" on="1"/>
        <pt x="469" y="329" on="1"/>
        <pt x="358" y="624" on="1"/>
      </contour>
      <contour>
        <pt x="212" y="846" on="1"/>
        <pt x="220" y="897" on="0"/>
        <pt x="279" y="960" on="0"/>
        <pt x="318" y="960" on="1"/>
        <pt x="338" y="960" on="0"/>
        <pt x="377" y="946" on="0"/>
        <pt x="416" y="928" on="0"/>
        <pt x="454" y="914" on="0"/>
        <pt x="473" y="914" on="1"/>
        <pt x="492" y="914" on="0"/>
        <pt x="512" y="933" on="0"/>
        <pt x="520" y="956" on="1"/>
        <pt x="553" y="956" on="1"/>
        <pt x="548" y="905" on="0"/>
        <pt x="491" y="838" on="0"/>
        <pt x="453" y="838" on="1"/>
        <pt x="433" y="838" on="0"/>
        <pt x="393" y="853" on="0"/>
        <pt x="352" y="871" on="0"/>
        <pt x="311" y="886" on="0"/>
        <pt x="291" y="886" on="1"/>
        <pt x="272" y="886" on="0"/>
        <pt x="253" y="869" on="0"/>
        <pt x="246" y="846" on="1"/>
      </contour>
    </TTGlyph>
    <TTGlyph name="B" xMin="38" yMin="0" xMax="717" yMax="770">
      <contour>
        <pt x="38" y="0" on="1"/>
        <pt x="38" y="38" on="1"/>
        <pt x="77" y="39" on="0"/>
        <pt x="124" y="49" on="0"/>
        <pt x="149" y="73" on="0"/>
        <pt x="158" y="117" on="0"/>
        <pt x="158" y="152" on="1"/>
        <pt x="158" y="618" on="1"/>
        <pt x="158" y="653" on="0"/>
        <pt x="151" y="696" on="0"/>
        <pt x="130" y="721" on="0"/>
        <pt x="90" y="730" on="0"/>
        <pt x="58" y="732" on="1"/>
        <pt x="58" y="770" on="1"/>
        <pt x="357" y="770" on="1"/>
        <pt x="492" y="770" on="0"/>
        <pt x="642" y="674" on="0"/>
        <pt x="642" y="587" on="1"/>
        <pt x="642" y="521" on="0"/>
        <pt x="559" y="437" on="0"/>
        <pt x="469" y="410" on="1"/>
        <pt x="469" y="406" on="1"/>
        <pt x="500" y="403" on="0"/>
        <pt x="546" y="395" on="0"/>
        <pt x="582" y="384" on="0"/>
        <pt x="613" y="368" on="0"/>
        <pt x="628" y="358" on="1"/>
        <pt x="717" y="295" on="0"/>
        <pt x="717" y="200" on="1"/>
        <pt x="717" y="147" on="0"/>
        <pt x="658" y="56" on="0"/>
        <pt x="605" y="30" on="1"/>
        <pt x="588" y="21" on="0"/>
        <pt x="552" y="10" on="0"/>
        <pt x="504" y="3" on="0"/>
        <pt x="441" y="0" on="0"/>
        <pt x="398" y="0" on="1"/>
      </contour>
      <contour>
        <pt x="401" y="43" on="1"/>
        <pt x="582" y="43" on="0"/>
        <pt x="582" y="198" on="1"/>
        <pt x="582" y="311" on="0"/>
        <pt x="489" y="356" on="1"/>
        <pt x="473" y="363" on="0"/>
        <pt x="443" y="373" on="0"/>
        <pt x="403" y="378" on="0"/>
        <pt x="348" y="380" on="0"/>
        <pt x="308" y="380" on="1"/>
        <pt x="263" y="380" on="1"/>
        <pt x="263" y="157" on="1"/>
        <pt x="263" y="96" on="0"/>
        <pt x="327" y="43" on="0"/>
      </contour>
      <contour>
        <pt x="319" y="430" on="1"/>
        <pt x="350" y="430" on="0"/>
        <pt x="392" y="432" on="0"/>
        <pt x="422" y="437" on="0"/>
        <pt x="445" y="446" on="0"/>
        <pt x="457" y="454" on="1"/>
        <pt x="489" y="474" on="0"/>
        <pt x="516" y="530" on="0"/>
        <pt x="516" y="575" on="1"/>
        <pt x="516" y="654" on="0"/>
        <pt x="439" y="723" on="0"/>
        <pt x="357" y="723" on="1"/>
        <pt x="280" y="723" on="1"/>
        <pt x="263" y="723" on="0"/>
        <pt x="263" y="706" on="1"/>
        <pt x="263" y="430" on="1"/>
      </contour>
    </TTGlyph>
    <TTGlyph name="C" xMin="60" yMin="-10" xMax="744" yMax="780">
      <contour>
        <pt x="689" y="770" on="1"/>
        <pt x="717" y="770" on="1"/>
        <pt x="726" y="540" on="1"/>
        <pt x="689" y="540" on="1"/>
        <pt x="667" y="628" on="0"/>
        <pt x="541" y="728" on="0"/>
        <pt x="452" y="728" on="1"/>
        <pt x="391" y="728" on="0"/>
        <pt x="295" y="680" on="0"/>
        <pt x="229" y="590" on="0"/>
        <pt x="194" y="460" on="0"/>
        <pt x="194" y="378" on="1"/>
        <pt x="194" y="217" on="0"/>
        <pt x="328" y="44" on="0"/>
        <pt x="455" y="44" on="1"/>
        <pt x="648" y="44" on="0"/>
        <pt x="703" y="249" on="1"/>
        <pt x="744" y="249" on="1"/>
        <pt x="744" y="0" on="1"/>
        <pt x="709" y="0" on="1"/>
        <pt x="686" y="79" on="1"/>
        <pt x="581" y="-10" on="0"/>
        <pt x="432" y="-10" on="1"/>
        <pt x="347" y="-10" on="0"/>
        <pt x="210" y="44" on="0"/>
        <pt x="113" y="143" on="0"/>
        <pt x="60" y="285" on="0"/>
        <pt x="60" y="372" on="1"/>
        <pt x="60" y="463" on="0"/>
        <pt x="116" y="613" on="0"/>
        <pt x="217" y="721" on="0"/>
        <pt x="358" y="780" on="0"/>
        <pt x="443" y="780" on="1"/>
        <pt x="503" y="780" on="0"/>
        <pt x="609" y="746" on="0"/>
        <pt x="671" y="708" on="1"/>
      </contour>
    </TTGlyph>
    <TTGlyph name="Cacute" xMin="60" yMin="-10" xMax="744" yMax="960">
      <contour>
        <pt x="689" y="770" on="1"/>
        <pt x="717" y="770" on="1"/>
        <pt x="726" y="540" on="1"/>
        <pt x="689" y="540" on="1"/>
        <pt x="667" y="628" on="0"/>
        <pt x="541" y="728" on="0"/>
        <pt x="452" y="728" on="1"/>
        <pt x="391" y="728" on="0"/>
        <pt x="295" y="680" on="0"/>
        <pt x="229" y="590" on="0"/>
        <pt x="194" y="460" on="0"/>
        <pt x="194" y="378" on="1"/>
        <pt x="194" y="217" on="0"/>
        <pt x="328" y="44" on="0"/>
        <pt x="455" y="44" on="1"/>
        <pt x="648" y="44" on="0"/>
        <pt x="703" y="249" on="1"/>
        <pt x="744" y="249" on="1"/>
        <pt x="744" y="0" on="1"/>
        <pt x="709" y="0" on="1"/>
        <pt x="686" y="79" on="1"/>
        <pt x="581" y="-10" on="0"/>
        <pt x="432" y="-10" on="1"/>
        <pt x="347" y="-10" on="0"/>
        <pt x="210" y="44" on="0"/>
        <pt x="113" y="143" on="0"/>
        <pt x="60" y="285" on="0"/>
        <pt x="60" y="372" on="1"/>
        <pt x="60" y="463" on="0"/>
        <pt x="116" y="613" on="0"/>
        <pt x="217" y="721" on="0"/>
        <pt x="358" y="780" on="0"/>
        <pt x="443" y="780" on="1"/>
        <pt x="503" y="780" on="0"/>
        <pt x="609" y="746" on="0"/>
        <pt x="671" y="708" on="1"/>
      </contour>
      <contour>
        <pt x="348" y="850" on="1"/>
        <pt x="478" y="927" on="1"/>
        <pt x="506" y="944" on="0"/>
        <pt x="545" y="960" on="0"/>
        <pt x="565" y="960" on="1"/>
        <pt x="582" y="960" on="0"/>
        <pt x="603" y="942" on="0"/>
        <pt x="603" y="925" on="1"/>
        <pt x="603" y="909" on="0"/>
        <pt x="562" y="886" on="0"/>
        <pt x="528" y="878" on="1"/>
        <pt x="408" y="850" on="1"/>
      </contour>
    </TTGlyph>
    <TTGlyph name="Ccaron" xMin="60" yMin="-10" xMax="744" yMax="960">
      <contour>
        <pt x="689" y="770" on="1"/>
        <pt x="717" y="770" on="1"/>
        <pt x="726" y="540" on="1"/>
        <pt x="689" y="540" on="1"/>
        <pt x="667" y="628" on="0"/>
        <pt x="541" y="728" on="0"/>
        <pt x="452" y="728" on="1"/>
        <pt x="391" y="728" on="0"/>
        <pt x="295" y="680" on="0"/>
        <pt x="229" y="590" on="0"/>
        <pt x="194" y="460" on="0"/>
        <pt x="194" y="378" on="1"/>
        <pt x="194" y="217" on="0"/>
        <pt x="328" y="44" on="0"/>
        <pt x="455" y="44" on="1"/>
        <pt x="648" y="44" on="0"/>
        <pt x="703" y="249" on="1"/>
        <pt x="744" y="249" on="1"/>
        <pt x="744" y="0" on="1"/>
        <pt x="709" y="0" on="1"/>
        <pt x="686" y="79" on="1"/>
        <pt x="581" y="-10" on="0"/>
        <pt x="432" y="-10" on="1"/>
        <pt x="347" y="-10" on="0"/>
        <pt x="210" y="44" on="0"/>
        <pt x="113" y="143" on="0"/>
        <pt x="60" y="285" on="0"/>
        <pt x="60" y="372" on="1"/>
        <pt x="60" y="463" on="0"/>
        <pt x="116" y="613" on="0"/>
        <pt x="217" y="721" on="0"/>
        <pt x="358" y="780" on="0"/>
        <pt x="443" y="780" on="1"/>
        <pt x="503" y="780" on="0"/>
        <pt x="609" y="746" on="0"/>
        <pt x="671" y="708" on="1"/>
      </contour>
      <contour>
        <pt x="393" y="851" on="1"/>
        <pt x="284" y="960" on="1"/>
        <pt x="329" y="960" on="1"/>
        <pt x="448" y="906" on="1"/>
        <pt x="567" y="960" on="1"/>
        <pt x="612" y="960" on="1"/>
        <pt x="503" y="851" on="1"/>
      </contour>
    </TTGlyph>
    <TTGlyph name="Ccedilla" xMin="60" yMin="-260" xMax="744" yMax="780">
      <contour>
        <pt x="689" y="770" on="1"/>
        <pt x="717" y="770" on="1"/>
        <pt x="726" y="540" on="1"/>
        <pt x="689" y="540" on="1"/>
        <pt x="667" y="628" on="0"/>
        <pt x="541" y="728" on="0"/>
        <pt x="452" y="728" on="1"/>
        <pt x="391" y="728" on="0"/>
        <pt x="295" y="680" on="0"/>
        <pt x="229" y="590" on="0"/>
        <pt x="194" y="460" on="0"/>
        <pt x="194" y="378" on="1"/>
        <pt x="194" y="217" on="0"/>
        <pt x="328" y="44" on="0"/>
        <pt x="455" y="44" on="1"/>
        <pt x="648" y="44" on="0"/>
        <pt x="703" y="249" on="1"/>
        <pt x="744" y="249" on="1"/>
        <pt x="744" y="0" on="1"/>
        <pt x="709" y="0" on="1"/>
        <pt x="686" y="79" on="1"/>
        <pt x="586" y="-4" on="0"/>
        <pt x="451" y="-9" on="1"/>
        <pt x="428" y="-72" on="1"/>
        <pt x="552" y="-72" on="0"/>
        <pt x="552" y="-158" on="1"/>
        <pt x="552" y="-206" on="0"/>
        <pt x="484" y="-260" on="0"/>
        <pt x="426" y="-260" on="1"/>
        <pt x="375" y="-260" on="0"/>
        <pt x="311" y="-218" on="0"/>
        <pt x="311" y="-184" on="1"/>
        <pt x="311" y="-148" on="0"/>
        <pt x="342" y="-148" on="1"/>
        <pt x="353" y="-148" on="0"/>
        <pt x="366" y="-161" on="0"/>
        <pt x="375" y="-180" on="1"/>
        <pt x="384" y="-201" on="0"/>
        <pt x="403" y="-217" on="0"/>
        <pt x="420" y="-217" on="1"/>
        <pt x="442" y="-217" on="0"/>
        <pt x="470" y="-190" on="0"/>
        <pt x="470" y="-167" on="1"/>
        <pt x="470" y="-113" on="0"/>
        <pt x="391" y="-113" on="1"/>
        <pt x="383" y="-113" on="0"/>
        <pt x="364" y="-114" on="0"/>
        <pt x="356" y="-115" on="1"/>
        <pt x="353" y="-110" on="1"/>
        <pt x="397" y="-9" on="1"/>
        <pt x="320" y="-4" on="0"/>
        <pt x="195" y="54" on="0"/>
        <pt x="107" y="153" on="0"/>
        <pt x="60" y="289" on="0"/>
        <pt x="60" y="372" on="1"/>
        <pt x="60" y="463" on="0"/>
        <pt x="116" y="613" on="0"/>
        <pt x="217" y="721" on="0"/>
        <pt x="358" y="780" on="0"/>
        <pt x="443" y="780" on="1"/>
        <pt x="503" y="780" on="0"/>
        <pt x="609" y="746" on="0"/>
        <pt x="671" y="708" on="1"/>
      </contour>
    </TTGlyph>
    <TTGlyph name="Ccircumflex" xMin="60" yMin="-10" xMax="744" yMax="960">
      <contour>
        <pt x="689" y="770" on="1"/>
        <pt x="717" y="770" on="1"/>
        <pt x="726" y="540" on="1"/>
        <pt x="689" y="540" on="1"/>
        <pt x="667" y="628" on="0"/>
        <pt x="541" y="728" on="0"/>
        <pt x="452" y="728" on="1"/>
        <pt x="391" y="728" on="0"/>
        <pt x="295" y="680" on="0"/>
        <pt x="229" y="590" on="0"/>
        <pt x="194" y="460" on="0"/>
        <pt x="194" y="378" on="1"/>
        <pt x="194" y="217" on="0"/>
        <pt x="328" y="44" on="0"/>
        <pt x="455" y="44" on="1"/>
        <pt x="648" y="44" on="0"/>
        <pt x="703" y="249" on="1"/>
        <pt x="744" y="249" on="1"/>
        <pt x="744" y="0" on="1"/>
        <pt x="709" y="0" on="1"/>
        <pt x="686" y="79" on="1"/>
        <pt x="581" y="-10" on="0"/>
        <pt x="432" y="-10" on="1"/>
        <pt x="347" y="-10" on="0"/>
        <pt x="210" y="44" on="0"/>
        <pt x="113" y="143" on="0"/>
        <pt x="60" y="285" on="0"/>
        <pt x="60" y="372" on="1"/>
        <pt x="60" y="463" on="0"/>
        <pt x="116" y="613" on="0"/>
        <pt x="217" y="721" on="0"/>
        <pt x="358" y="780" on="0"/>
        <pt x="443" y="780" on="1"/>
        <pt x="503" y="780" on="0"/>
        <pt x="609" y="746" on="0"/>
        <pt x="671" y="708" on="1"/>
      </contour>
      <contour>
        <pt x="503" y="960" on="1"/>
        <pt x="612" y="851" on="1"/>
        <pt x="567" y="851" on="1"/>
        <pt x="448" y="905" on="1"/>
        <pt x="329" y="851" on="1"/>
        <pt x="284" y="851" on="1"/>
        <pt x="393" y="960" on="1"/>
      </contour>
    </TTGlyph>
    <TTGlyph name="Cdotaccent" xMin="60" yMin="-10" xMax="744" yMax="959">
      <contour>
        <pt x="689" y="770" on="1"/>
        <pt x="717" y="770" on="1"/>
        <pt x="726" y="540" on="1"/>
        <pt x="689" y="540" on="1"/>
        <pt x="667" y="628" on="0"/>
        <pt x="541" y="728" on="0"/>
        <pt x="452" y="728" on="1"/>
        <pt x="391" y="728" on="0"/>
        <pt x="295" y="680" on="0"/>
        <pt x="229" y="590" on="0"/>
        <pt x="194" y="460" on="0"/>
        <pt x="194" y="378" on="1"/>
        <pt x="194" y="217" on="0"/>
        <pt x="328" y="44" on="0"/>
        <pt x="455" y="44" on="1"/>
        <pt x="648" y="44" on="0"/>
        <pt x="703" y="249" on="1"/>
        <pt x="744" y="249" on="1"/>
        <pt x="744" y="0" on="1"/>
        <pt x="709" y="0" on="1"/>
        <pt x="686" y="79" on="1"/>
        <pt x="581" y="-10" on="0"/>
        <pt x="432" y="-10" on="1"/>
        <pt x="347" y="-10" on="0"/>
        <pt x="210" y="44" on="0"/>
        <pt x="113" y="143" on="0"/>
        <pt x="60" y="285" on="0"/>
        <pt x="60" y="372" on="1"/>
        <pt x="60" y="463" on="0"/>
        <pt x="116" y="613" on="0"/>
        <pt x="217" y="721" on="0"/>
        <pt x="358" y="780" on="0"/>
        <pt x="443" y="780" on="1"/>
        <pt x="503" y="780" on="0"/>
        <pt x="609" y="746" on="0"/>
        <pt x="671" y="708" on="1"/>
      </contour>
      <contour>
        <pt x="396" y="904" on="1"/>
        <pt x="396" y="927" on="0"/>
        <pt x="427" y="959" on="0"/>
        <pt x="448" y="959" on="1"/>
        <pt x="471" y="959" on="0"/>
        <pt x="503" y="927" on="0"/>
        <pt x="503" y="904" on="1"/>
        <pt x="503" y="883" on="0"/>
        <pt x="471" y="852" on="0"/>
        <pt x="448" y="852" on="1"/>
        <pt x="427" y="852" on="0"/>
        <pt x="396" y="883" on="0"/>
      </contour>
    </TTGlyph>
    <TTGlyph name="D" xMin="38" yMin="0" xMax="825" yMax="770">
      <contour>
        <pt x="38" y="0" on="1"/>
        <pt x="38" y="38" on="1"/>
        <pt x="76" y="39" on="0"/>
        <pt x="123" y="48" on="0"/>
        <pt x="149" y="73" on="0"/>
        <pt x="158" y="116" on="0"/>
        <pt x="158" y="152" on="1"/>
        <pt x="158" y="618" on="1"/>
        <pt x="158" y="653" on="0"/>
        <pt x="151" y="696" on="0"/>
        <pt x="130" y="721" on="0"/>
        <pt x="90" y="730" on="0"/>
        <pt x="58" y="732" on="1"/>
        <pt x="58" y="770" on="1"/>
        <pt x="409" y="770" on="1"/>
        <pt x="499" y="770" on="0"/>
        <pt x="652" y="710" on="0"/>
        <pt x="763" y="604" on="0"/>
        <pt x="825" y="458" on="0"/>
        <pt x="825" y="372" on="1"/>
        <pt x="825" y="290" on="0"/>
        <pt x="767" y="153" on="0"/>
        <pt x="662" y="55" on="0"/>
        <pt x="516" y="0" on="0"/>
        <pt x="429" y="0" on="1"/>
      </contour>
      <contour>
        <pt x="280" y="721" on="1"/>
        <pt x="263" y="721" on="0"/>
        <pt x="263" y="704" on="1"/>
        <pt x="263" y="163" on="1"/>
        <pt x="263" y="49" on="0"/>
        <pt x="412" y="49" on="1"/>
        <pt x="549" y="49" on="0"/>
        <pt x="695" y="212" on="0"/>
        <pt x="695" y="370" on="1"/>
        <pt x="695" y="453" on="0"/>
        <pt x="655" y="583" on="0"/>
        <pt x="580" y="673" on="0"/>
        <pt x="474" y="721" on="0"/>
        <pt x="407" y="721" on="1"/>
      </contour>
    </TTGlyph>
    <TTGlyph name="Dcaron" xMin="38" yMin="0" xMax="825" yMax="960">
      <contour>
        <pt x="38" y="0" on="1"/>
        <pt x="38" y="38" on="1"/>
        <pt x="76" y="39" on="0"/>
        <pt x="123" y="48" on="0"/>
        <pt x="149" y="73" on="0"/>
        <pt x="158" y="116" on="0"/>
        <pt x="158" y="152" on="1"/>
        <pt x="158" y="618" on="1"/>
        <pt x="158" y="653" on="0"/>
        <pt x="151" y="696" on="0"/>
        <pt x="130" y="721" on="0"/>
        <pt x="90" y="730" on="0"/>
        <pt x="58" y="732" on="1"/>
        <pt x="58" y="770" on="1"/>
        <pt x="409" y="770" on="1"/>
        <pt x="499" y="770" on="0"/>
        <pt x="652" y="710" on="0"/>
        <pt x="763" y="604" on="0"/>
        <pt x="825" y="458" on="0"/>
        <pt x="825" y="372" on="1"/>
        <pt x="825" y="290" on="0"/>
        <pt x="767" y="153" on="0"/>
        <pt x="662" y="55" on="0"/>
        <pt x="516" y="0" on="0"/>
        <pt x="429" y="0" on="1"/>
      </contour>
      <contour>
        <pt x="280" y="721" on="1"/>
        <pt x="263" y="721" on="0"/>
        <pt x="263" y="704" on="1"/>
        <pt x="263" y="163" on="1"/>
        <pt x="263" y="49" on="0"/>
        <pt x="412" y="49" on="1"/>
        <pt x="549" y="49" on="0"/>
        <pt x="695" y="212" on="0"/>
        <pt x="695" y="370" on="1"/>
        <pt x="695" y="453" on="0"/>
        <pt x="655" y="583" on="0"/>
        <pt x="580" y="673" on="0"/>
        <pt x="474" y="721" on="0"/>
        <pt x="407" y="721" on="1"/>
      </contour>
      <contour>
        <pt x="388" y="851" on="1"/>
        <pt x="279" y="960" on="1"/>
        <pt x="324" y="960" on="1"/>
        <pt x="443" y="906" on="1"/>
        <pt x="562" y="960" on="1"/>
        <pt x="607" y="960" on="1"/>
        <pt x="498" y="851" on="1"/>
      </contour>
    </TTGlyph>
    <TTGlyph name="Dcroat" xMin="36" yMin="0" xMax="823" yMax="770">
      <contour>
        <pt x="76" y="383" on="1"/>
        <pt x="76" y="436" on="1"/>
        <pt x="156" y="436" on="1"/>
        <pt x="156" y="618" on="1"/>
        <pt x="156" y="653" on="0"/>
        <pt x="149" y="696" on="0"/>
        <pt x="128" y="721" on="0"/>
        <pt x="88" y="730" on="0"/>
        <pt x="56" y="732" on="1"/>
        <pt x="56" y="770" on="1"/>
        <pt x="407" y="770" on="1"/>
        <pt x="497" y="770" on="0"/>
        <pt x="650" y="710" on="0"/>
        <pt x="761" y="604" on="0"/>
        <pt x="823" y="458" on="0"/>
        <pt x="823" y="372" on="1"/>
        <pt x="823" y="290" on="0"/>
        <pt x="765" y="153" on="0"/>
        <pt x="660" y="55" on="0"/>
        <pt x="514" y="0" on="0"/>
        <pt x="427" y="0" on="1"/>
        <pt x="36" y="0" on="1"/>
        <pt x="36" y="38" on="1"/>
        <pt x="74" y="39" on="0"/>
        <pt x="121" y="48" on="0"/>
        <pt x="147" y="73" on="0"/>
        <pt x="156" y="116" on="0"/>
        <pt x="156" y="152" on="1"/>
        <pt x="156" y="383" on="1"/>
      </contour>
      <contour>
        <pt x="278" y="721" on="1"/>
        <pt x="261" y="721" on="0"/>
        <pt x="261" y="704" on="1"/>
        <pt x="261" y="436" on="1"/>
        <pt x="425" y="436" on="1"/>
        <pt x="425" y="383" on="1"/>
        <pt x="261" y="383" on="1"/>
        <pt x="261" y="163" on="1"/>
        <pt x="261" y="49" on="0"/>
        <pt x="410" y="49" on="1"/>
        <pt x="547" y="49" on="0"/>
        <pt x="693" y="212" on="0"/>
        <pt x="693" y="370" on="1"/>
        <pt x="693" y="453" on="0"/>
        <pt x="653" y="583" on="0"/>
        <pt x="578" y="673" on="0"/>
        <pt x="472" y="721" on="0"/>
        <pt x="405" y="721" on="1"/>
      </contour>
    </TTGlyph>
    <TTGlyph name="Ddotbelow" xMin="38" yMin="-230" xMax="825" yMax="770">
      <contour>
        <pt x="38" y="0" on="1"/>
        <pt x="38" y="38" on="1"/>
        <pt x="76" y="39" on="0"/>
        <pt x="123" y="48" on="0"/>
        <pt x="149" y="73" on="0"/>
        <pt x="158" y="116" on="0"/>
        <pt x="158" y="152" on="1"/>
        <pt x="158" y="618" on="1"/>
        <pt x="158" y="653" on="0"/>
        <pt x="151" y="696" on="0"/>
        <pt x="130" y="721" on="0"/>
        <pt x="90" y="730" on="0"/>
        <pt x="58" y="732" on="1"/>
        <pt x="58" y="770" on="1"/>
        <pt x="409" y="770" on="1"/>
        <pt x="499" y="770" on="0"/>
        <pt x="652" y="710" on="0"/>
        <pt x="763" y="604" on="0"/>
        <pt x="825" y="458" on="0"/>
        <pt x="825" y="372" on="1"/>
        <pt x="825" y="290" on="0"/>
        <pt x="767" y="153" on="0"/>
        <pt x="662" y="55" on="0"/>
        <pt x="516" y="0" on="0"/>
        <pt x="429" y="0" on="1"/>
      </contour>
      <contour>
        <pt x="280" y="721" on="1"/>
        <pt x="263" y="721" on="0"/>
        <pt x="263" y="704" on="1"/>
        <pt x="263" y="163" on="1"/>
        <pt x="263" y="49" on="0"/>
        <pt x="412" y="49" on="1"/>
        <pt x="549" y="49" on="0"/>
        <pt x="695" y="212" on="0"/>
        <pt x="695" y="370" on="1"/>
        <pt x="695" y="453" on="0"/>
        <pt x="655" y="583" on="0"/>
        <pt x="580" y="673" on="0"/>
        <pt x="474" y="721" on="0"/>
        <pt x="407" y="721" on="1"/>
      </contour>
      <contour>
        <pt x="379" y="-168" on="1"/>
        <pt x="379" y="-142" on="0"/>
        <pt x="415" y="-106" on="0"/>
        <pt x="441" y="-106" on="1"/>
        <pt x="467" y="-106" on="0"/>
        <pt x="503" y="-142" on="0"/>
        <pt x="503" y="-168" on="1"/>
        <pt x="503" y="-194" on="0"/>
        <pt x="467" y="-230" on="0"/>
        <pt x="441" y="-230" on="1"/>
        <pt x="415" y="-230" on="0"/>
        <pt x="379" y="-194" on="0"/>
      </contour>
    </TTGlyph>
    <TTGlyph name="E" xMin="45" yMin="0" xMax="681" yMax="770">
      <contour>
        <pt x="260" y="423" on="1"/>
        <pt x="314" y="423" on="0"/>
        <pt x="387" y="436" on="0"/>
        <pt x="430" y="464" on="0"/>
        <pt x="449" y="508" on="0"/>
        <pt x="449" y="538" on="1"/>
        <pt x="484" y="538" on="1"/>
        <pt x="484" y="265" on="1"/>
        <pt x="449" y="265" on="1"/>
        <pt x="449" y="295" on="0"/>
        <pt x="432" y="339" on="0"/>
        <pt x="389" y="368" on="0"/>
        <pt x="316" y="383" on="0"/>
        <pt x="260" y="383" on="1"/>
        <pt x="260" y="157" on="1"/>
        <pt x="260" y="124" on="0"/>
        <pt x="276" y="81" on="0"/>
        <pt x="315" y="54" on="0"/>
        <pt x="379" y="43" on="0"/>
        <pt x="426" y="43" on="1"/>
        <pt x="479" y="43" on="0"/>
        <pt x="553" y="58" on="0"/>
        <pt x="603" y="94" on="0"/>
        <pt x="633" y="153" on="0"/>
        <pt x="643" y="197" on="1"/>
        <pt x="681" y="197" on="1"/>
        <pt x="666" y="0" on="1"/>
        <pt x="45" y="0" on="1"/>
        <pt x="45" y="38" on="1"/>
        <pt x="80" y="39" on="0"/>
        <pt x="123" y="49" on="0"/>
        <pt x="147" y="73" on="0"/>
        <pt x="155" y="117" on="0"/>
        <pt x="155" y="152" on="1"/>
        <pt x="155" y="618" on="1"/>
        <pt x="155" y="653" on="0"/>
        <pt x="148" y="696" on="0"/>
        <pt x="127" y="721" on="0"/>
        <pt x="87" y="730" on="0"/>
        <pt x="55" y="732" on="1"/>
        <pt x="55" y="770" on="1"/>
        <pt x="633" y="770" on="1"/>
        <pt x="642" y="594" on="1"/>
        <pt x="607" y="594" on="1"/>
        <pt x="601" y="634" on="0"/>
        <pt x="574" y="685" on="0"/>
        <pt x="527" y="715" on="0"/>
        <pt x="455" y="727" on="0"/>
        <pt x="404" y="727" on="1"/>
        <pt x="277" y="727" on="1"/>
        <pt x="260" y="727" on="0"/>
        <pt x="260" y="710" on="1"/>
      </contour>
    </TTGlyph>
    <TTGlyph name="Eacute" xMin="45" yMin="0" xMax="681" yMax="960">
      <contour>
        <pt x="260" y="423" on="1"/>
        <pt x="314" y="423" on="0"/>
        <pt x="387" y="436" on="0"/>
        <pt x="430" y="464" on="0"/>
        <pt x="449" y="508" on="0"/>
        <pt x="449" y="538" on="1"/>
        <pt x="484" y="538" on="1"/>
        <pt x="484" y="265" on="1"/>
        <pt x="449" y="265" on="1"/>
        <pt x="449" y="295" on="0"/>
        <pt x="432" y="339" on="0"/>
        <pt x="389" y="368" on="0"/>
        <pt x="316" y="383" on="0"/>
        <pt x="260" y="383" on="1"/>
        <pt x="260" y="157" on="1"/>
        <pt x="260" y="124" on="0"/>
        <pt x="276" y="81" on="0"/>
        <pt x="315" y="54" on="0"/>
        <pt x="379" y="43" on="0"/>
        <pt x="426" y="43" on="1"/>
        <pt x="479" y="43" on="0"/>
        <pt x="553" y="58" on="0"/>
        <pt x="603" y="94" on="0"/>
        <pt x="633" y="153" on="0"/>
        <pt x="643" y="197" on="1"/>
        <pt x="681" y="197" on="1"/>
        <pt x="666" y="0" on="1"/>
        <pt x="45" y="0" on="1"/>
        <pt x="45" y="38" on="1"/>
        <pt x="80" y="39" on="0"/>
        <pt x="123" y="49" on="0"/>
        <pt x="147" y="73" on="0"/>
        <pt x="155" y="117" on="0"/>
        <pt x="155" y="152" on="1"/>
        <pt x="155" y="618" on="1"/>
        <pt x="155" y="653" on="0"/>
        <pt x="148" y="696" on="0"/>
        <pt x="127" y="721" on="0"/>
        <pt x="87" y="730" on="0"/>
        <pt x="55" y="732" on="1"/>
        <pt x="55" y="770" on="1"/>
        <pt x="633" y="770" on="1"/>
        <pt x="642" y="594" on="1"/>
        <pt x="607" y="594" on="1"/>
        <pt x="601" y="634" on="0"/>
        <pt x="574" y="685" on="0"/>
        <pt x="527" y="715" on="0"/>
        <pt x="455" y="727" on="0"/>
        <pt x="404" y="727" on="1"/>
        <pt x="277" y="727" on="1"/>
        <pt x="260" y="727" on="0"/>
        <pt x="260" y="710" on="1"/>
      </contour>
      <contour>
        <pt x="279" y="850" on="1"/>
        <pt x="409" y="927" on="1"/>
        <pt x="437" y="944" on="0"/>
        <pt x="476" y="960" on="0"/>
        <pt x="496" y="960" on="1"/>
        <pt x="513" y="960" on="0"/>
        <pt x="534" y="942" on="0"/>
        <pt x="534" y="925" on="1"/>
        <pt x="534" y="909" on="0"/>
        <pt x="493" y="886" on="0"/>
        <pt x="459" y="878" on="1"/>
        <pt x="339" y="850" on="1"/>
      </contour>
    </TTGlyph>
    <TTGlyph name="Ebreve" xMin="45" yMin="0" xMax="681" yMax="960">
      <contour>
        <pt x="260" y="423" on="1"/>
        <pt x="314" y="423" on="0"/>
        <pt x="387" y="436" on="0"/>
        <pt x="430" y="464" on="0"/>
        <pt x="449" y="508" on="0"/>
        <pt x="449" y="538" on="1"/>
        <pt x="484" y="538" on="1"/>
        <pt x="484" y="265" on="1"/>
        <pt x="449" y="265" on="1"/>
        <pt x="449" y="295" on="0"/>
        <pt x="432" y="339" on="0"/>
        <pt x="389" y="368" on="0"/>
        <pt x="316" y="383" on="0"/>
        <pt x="260" y="383" on="1"/>
        <pt x="260" y="157" on="1"/>
        <pt x="260" y="124" on="0"/>
        <pt x="276" y="81" on="0"/>
        <pt x="315" y="54" on="0"/>
        <pt x="379" y="43" on="0"/>
        <pt x="426" y="43" on="1"/>
        <pt x="479" y="43" on="0"/>
        <pt x="553" y="58" on="0"/>
        <pt x="603" y="94" on="0"/>
        <pt x="633" y="153" on="0"/>
        <pt x="643" y="197" on="1"/>
        <pt x="681" y="197" on="1"/>
        <pt x="666" y="0" on="1"/>
        <pt x="45" y="0" on="1"/>
        <pt x="45" y="38" on="1"/>
        <pt x="80" y="39" on="0"/>
        <pt x="123" y="49" on="0"/>
        <pt x="147" y="73" on="0"/>
        <pt x="155" y="117" on="0"/>
        <pt x="155" y="152" on="1"/>
        <pt x="155" y="618" on="1"/>
        <pt x="155" y="653" on="0"/>
        <pt x="148" y="696" on="0"/>
        <pt x="127" y="721" on="0"/>
        <pt x="87" y="730" on="0"/>
        <pt x="55" y="732" on="1"/>
        <pt x="55" y="770" on="1"/>
        <pt x="633" y="770" on="1"/>
        <pt x="642" y="594" on="1"/>
        <pt x="607" y="594" on="1"/>
        <pt x="601" y="634" on="0"/>
        <pt x="574" y="685" on="0"/>
        <pt x="527" y="715" on="0"/>
        <pt x="455" y="727" on="0"/>
        <pt x="404" y="727" on="1"/>
        <pt x="277" y="727" on="1"/>
        <pt x="260" y="727" on="0"/>
        <pt x="260" y="710" on="1"/>
      </contour>
      <contour>
        <pt x="517" y="960" on="1"/>
        <pt x="513" y="909" on="0"/>
        <pt x="436" y="845" on="0"/>
        <pt x="379" y="845" on="1"/>
        <pt x="350" y="845" on="0"/>
        <pt x="301" y="862" on="0"/>
        <pt x="264" y="893" on="0"/>
        <pt x="242" y="935" on="0"/>
        <pt x="241" y="960" on="1"/>
        <pt x="277" y="960" on="1"/>
        <pt x="285" y="939" on="0"/>
        <pt x="340" y="914" on="0"/>
        <pt x="378" y="914" on="1"/>
        <pt x="416" y="914" on="0"/>
        <pt x="472" y="939" on="0"/>
        <pt x="480" y="960" on="1"/>
      </contour>
    </TTGlyph>
    <TTGlyph name="Ecaron" xMin="45" yMin="0" xMax="681" yMax="960">
      <contour>
        <pt x="260" y="423" on="1"/>
        <pt x="314" y="423" on="0"/>
        <pt x="387" y="436" on="0"/>
        <pt x="430" y="464" on="0"/>
        <pt x="449" y="508" on="0"/>
        <pt x="449" y="538" on="1"/>
        <pt x="484" y="538" on="1"/>
        <pt x="484" y="265" on="1"/>
        <pt x="449" y="265" on="1"/>
        <pt x="449" y="295" on="0"/>
        <pt x="432" y="339" on="0"/>
        <pt x="389" y="368" on="0"/>
        <pt x="316" y="383" on="0"/>
        <pt x="260" y="383" on="1"/>
        <pt x="260" y="157" on="1"/>
        <pt x="260" y="124" on="0"/>
        <pt x="276" y="81" on="0"/>
        <pt x="315" y="54" on="0"/>
        <pt x="379" y="43" on="0"/>
        <pt x="426" y="43" on="1"/>
        <pt x="479" y="43" on="0"/>
        <pt x="553" y="58" on="0"/>
        <pt x="603" y="94" on="0"/>
        <pt x="633" y="153" on="0"/>
        <pt x="643" y="197" on="1"/>
        <pt x="681" y="197" on="1"/>
        <pt x="666" y="0" on="1"/>
        <pt x="45" y="0" on="1"/>
        <pt x="45" y="38" on="1"/>
        <pt x="80" y="39" on="0"/>
        <pt x="123" y="49" on="0"/>
        <pt x="147" y="73" on="0"/>
        <pt x="155" y="117" on="0"/>
        <pt x="155" y="152" on="1"/>
        <pt x="155" y="618" on="1"/>
        <pt x="155" y="653" on="0"/>
        <pt x="148" y="696" on="0"/>
        <pt x="127" y="721" on="0"/>
        <pt x="87" y="730" on="0"/>
        <pt x="55" y="732" on="1"/>
        <pt x="55" y="770" on="1"/>
        <pt x="633" y="770" on="1"/>
        <pt x="642" y="594" on="1"/>
        <pt x="607" y="594" on="1"/>
        <pt x="601" y="634" on="0"/>
        <pt x="574" y="685" on="0"/>
        <pt x="527" y="715" on="0"/>
        <pt x="455" y="727" on="0"/>
        <pt x="404" y="727" on="1"/>
        <pt x="277" y="727" on="1"/>
        <pt x="260" y="727" on="0"/>
        <pt x="260" y="710" on="1"/>
      </contour>
      <contour>
        <pt x="324" y="851" on="1"/>
        <pt x="215" y="960" on="1"/>
        <pt x="260" y="960" on="1"/>
        <pt x="379" y="906" on="1"/>
        <pt x="498" y="960" on="1"/>
        <pt x="543" y="960" on="1"/>
        <pt x="434" y="851" on="1"/>
      </contour>
    </TTGlyph>
    <TTGlyph name="Ecircumflex" xMin="45" yMin="0" xMax="681" yMax="960">
      <contour>
        <pt x="260" y="423" on="1"/>
        <pt x="314" y="423" on="0"/>
        <pt x="387" y="436" on="0"/>
        <pt x="430" y="464" on="0"/>
        <pt x="449" y="508" on="0"/>
        <pt x="449" y="538" on="1"/>
        <pt x="484" y="538" on="1"/>
        <pt x="484" y="265" on="1"/>
        <pt x="449" y="265" on="1"/>
        <pt x="449" y="295" on="0"/>
        <pt x="432" y="339" on="0"/>
        <pt x="389" y="368" on="0"/>
        <pt x="316" y="383" on="0"/>
        <pt x="260" y="383" on="1"/>
        <pt x="260" y="157" on="1"/>
        <pt x="260" y="124" on="0"/>
        <pt x="276" y="81" on="0"/>
        <pt x="315" y="54" on="0"/>
        <pt x="379" y="43" on="0"/>
        <pt x="426" y="43" on="1"/>
        <pt x="479" y="43" on="0"/>
        <pt x="553" y="58" on="0"/>
        <pt x="603" y="94" on="0"/>
        <pt x="633" y="153" on="0"/>
        <pt x="643" y="197" on="1"/>
        <pt x="681" y="197" on="1"/>
        <pt x="666" y="0" on="1"/>
        <pt x="45" y="0" on="1"/>
        <pt x="45" y="38" on="1"/>
        <pt x="80" y="39" on="0"/>
        <pt x="123" y="49" on="0"/>
        <pt x="147" y="73" on="0"/>
        <pt x="155" y="117" on="0"/>
        <pt x="155" y="152" on="1"/>
        <pt x="155" y="618" on="1"/>
        <pt x="155" y="653" on="0"/>
        <pt x="148" y="696" on="0"/>
        <pt x="127" y="721" on="0"/>
        <pt x="87" y="730" on="0"/>
        <pt x="55" y="732" on="1"/>
        <pt x="55" y="770" on="1"/>
        <pt x="633" y="770" on="1"/>
        <pt x="642" y="594" on="1"/>
        <pt x="607" y="594" on="1"/>
        <pt x="601" y="634" on="0"/>
        <pt x="574" y="685" on="0"/>
        <pt x="527" y="715" on="0"/>
        <pt x="455" y="727" on="0"/>
        <pt x="404" y="727" on="1"/>
        <pt x="277" y="727" on="1"/>
        <pt x="260" y="727" on="0"/>
        <pt x="260" y="710" on="1"/>
      </contour>
      <contour>
        <pt x="434" y="960" on="1"/>
        <pt x="543" y="851" on="1"/>
        <pt x="498" y="851" on="1"/>
        <pt x="379" y="905" on="1"/>
        <pt x="260" y="851" on="1"/>
        <pt x="215" y="851" on="1"/>
        <pt x="324" y="960" on="1"/>
      </contour>
    </TTGlyph>
    <TTGlyph name="Edieresis" xMin="45" yMin="0" xMax="681" yMax="960">
      <contour>
        <pt x="260" y="423" on="1"/>
        <pt x="314" y="423" on="0"/>
        <pt x="387" y="436" on="0"/>
        <pt x="430" y="464" on="0"/>
        <pt x="449" y="508" on="0"/>
        <pt x="449" y="538" on="1"/>
        <pt x="484" y="538" on="1"/>
        <pt x="484" y="265" on="1"/>
        <pt x="449" y="265" on="1"/>
        <pt x="449" y="295" on="0"/>
        <pt x="432" y="339" on="0"/>
        <pt x="389" y="368" on="0"/>
        <pt x="316" y="383" on="0"/>
        <pt x="260" y="383" on="1"/>
        <pt x="260" y="157" on="1"/>
        <pt x="260" y="124" on="0"/>
        <pt x="276" y="81" on="0"/>
        <pt x="315" y="54" on="0"/>
        <pt x="379" y="43" on="0"/>
        <pt x="426" y="43" on="1"/>
        <pt x="479" y="43" on="0"/>
        <pt x="553" y="58" on="0"/>
        <pt x="603" y="94" on="0"/>
        <pt x="633" y="153" on="0"/>
        <pt x="643" y="197" on="1"/>
        <pt x="681" y="197" on="1"/>
        <pt x="666" y="0" on="1"/>
        <pt x="45" y="0" on="1"/>
        <pt x="45" y="38" on="1"/>
        <pt x="80" y="39" on="0"/>
        <pt x="123" y="49" on="0"/>
        <pt x="147" y="73" on="0"/>
        <pt x="155" y="117" on="0"/>
        <pt x="155" y="152" on="1"/>
        <pt x="155" y="618" on="1"/>
        <pt x="155" y="653" on="0"/>
        <pt x="148" y="696" on="0"/>
        <pt x="127" y="721" on="0"/>
        <pt x="87" y="730" on="0"/>
        <pt x="55" y="732" on="1"/>
        <pt x="55" y="770" on="1"/>
        <pt x="633" y="770" on="1"/>
        <pt x="642" y="594" on="1"/>
        <pt x="607" y="594" on="1"/>
        <pt x="601" y="634" on="0"/>
        <pt x="574" y="685" on="0"/>
        <pt x="527" y="715" on="0"/>
        <pt x="455" y="727" on="0"/>
        <pt x="404" y="727" on="1"/>
        <pt x="277" y="727" on="1"/>
        <pt x="260" y="727" on="0"/>
        <pt x="260" y="710" on="1"/>
      </contour>
      <contour>
        <pt x="224" y="910" on="1"/>
        <pt x="224" y="931" on="0"/>
        <pt x="253" y="960" on="0"/>
        <pt x="274" y="960" on="1"/>
        <pt x="296" y="960" on="0"/>
        <pt x="325" y="931" on="0"/>
        <pt x="325" y="910" on="1"/>
        <pt x="325" y="888" on="0"/>
        <pt x="296" y="859" on="0"/>
        <pt x="274" y="859" on="1"/>
        <pt x="253" y="859" on="0"/>
        <pt x="224" y="888" on="0"/>
      </contour>
      <contour>
        <pt x="406" y="910" on="1"/>
        <pt x="406" y="931" on="0"/>
        <pt x="435" y="960" on="0"/>
        <pt x="457" y="960" on="1"/>
        <pt x="478" y="960" on="0"/>
        <pt x="507" y="931" on="0"/>
        <pt x="507" y="910" on="1"/>
        <pt x="507" y="888" on="0"/>
        <pt x="478" y="859" on="0"/>
        <pt x="457" y="859" on="1"/>
        <pt x="435" y="859" on="0"/>
        <pt x="406" y="888" on="0"/>
      </contour>
    </TTGlyph>
    <TTGlyph name="Edotaccent" xMin="45" yMin="0" xMax="681" yMax="959">
      <contour>
        <pt x="260" y="423" on="1"/>
        <pt x="314" y="423" on="0"/>
        <pt x="387" y="436" on="0"/>
        <pt x="430" y="464" on="0"/>
        <pt x="449" y="508" on="0"/>
        <pt x="449" y="538" on="1"/>
        <pt x="484" y="538" on="1"/>
        <pt x="484" y="265" on="1"/>
        <pt x="449" y="265" on="1"/>
        <pt x="449" y="295" on="0"/>
        <pt x="432" y="339" on="0"/>
        <pt x="389" y="368" on="0"/>
        <pt x="316" y="383" on="0"/>
        <pt x="260" y="383" on="1"/>
        <pt x="260" y="157" on="1"/>
        <pt x="260" y="124" on="0"/>
        <pt x="276" y="81" on="0"/>
        <pt x="315" y="54" on="0"/>
        <pt x="379" y="43" on="0"/>
        <pt x="426" y="43" on="1"/>
        <pt x="479" y="43" on="0"/>
        <pt x="553" y="58" on="0"/>
        <pt x="603" y="94" on="0"/>
        <pt x="633" y="153" on="0"/>
        <pt x="643" y="197" on="1"/>
        <pt x="681" y="197" on="1"/>
        <pt x="666" y="0" on="1"/>
        <pt x="45" y="0" on="1"/>
        <pt x="45" y="38" on="1"/>
        <pt x="80" y="39" on="0"/>
        <pt x="123" y="49" on="0"/>
        <pt x="147" y="73" on="0"/>
        <pt x="155" y="117" on="0"/>
        <pt x="155" y="152" on="1"/>
        <pt x="155" y="618" on="1"/>
        <pt x="155" y="653" on="0"/>
        <pt x="148" y="696" on="0"/>
        <pt x="127" y="721" on="0"/>
        <pt x="87" y="730" on="0"/>
        <pt x="55" y="732" on="1"/>
        <pt x="55" y="770" on="1"/>
        <pt x="633" y="770" on="1"/>
        <pt x="642" y="594" on="1"/>
        <pt x="607" y="594" on="1"/>
        <pt x="601" y="634" on="0"/>
        <pt x="574" y="685" on="0"/>
        <pt x="527" y="715" on="0"/>
        <pt x="455" y="727" on="0"/>
        <pt x="404" y="727" on="1"/>
        <pt x="277" y="727" on="1"/>
        <pt x="260" y="727" on="0"/>
        <pt x="260" y="710" on="1"/>
      </contour>
      <contour>
        <pt x="306" y="904" on="1"/>
        <pt x="306" y="927" on="0"/>
        <pt x="337" y="959" on="0"/>
        <pt x="358" y="959" on="1"/>
        <pt x="381" y="959" on="0"/>
        <pt x="413" y="927" on="0"/>
        <pt x="413" y="904" on="1"/>
        <pt x="413" y="883" on="0"/>
        <pt x="381" y="852" on="0"/>
        <pt x="358" y="852" on="1"/>
        <pt x="337" y="852" on="0"/>
        <pt x="306" y="883" on="0"/>
      </contour>
    </TTGlyph>
    <TTGlyph name="Edotbelow" xMin="45" yMin="-230" xMax="681" yMax="770">
      <contour>
        <pt x="260" y="423" on="1"/>
        <pt x="314" y="423" on="0"/>
        <pt x="387" y="436" on="0"/>
        <pt x="430" y="464" on="0"/>
        <pt x="449" y="508" on="0"/>
        <pt x="449" y="538" on="1"/>
        <pt x="484" y="538" on="1"/>
        <pt x="484" y="265" on="1"/>
        <pt x="449" y="265" on="1"/>
        <pt x="449" y="295" on="0"/>
        <pt x="432" y="339" on="0"/>
        <pt x="389" y="368" on="0"/>
        <pt x="316" y="383" on="0"/>
        <pt x="260" y="383" on="1"/>
        <pt x="260" y="157" on="1"/>
        <pt x="260" y="124" on="0"/>
        <pt x="276" y="81" on="0"/>
        <pt x="315" y="54" on="0"/>
        <pt x="379" y="43" on="0"/>
        <pt x="426" y="43" on="1"/>
        <pt x="479" y="43" on="0"/>
        <pt x="553" y="58" on="0"/>
        <pt x="603" y="94" on="0"/>
        <pt x="633" y="153" on="0"/>
        <pt x="643" y="197" on="1"/>
        <pt x="681" y="197" on="1"/>
        <pt x="666" y="0" on="1"/>
        <pt x="45" y="0" on="1"/>
        <pt x="45" y="38" on="1"/>
        <pt x="80" y="39" on="0"/>
        <pt x="123" y="49" on="0"/>
        <pt x="147" y="73" on="0"/>
        <pt x="155" y="117" on="0"/>
        <pt x="155" y="152" on="1"/>
        <pt x="155" y="618" on="1"/>
        <pt x="155" y="653" on="0"/>
        <pt x="148" y="696" on="0"/>
        <pt x="127" y="721" on="0"/>
        <pt x="87" y="730" on="0"/>
        <pt x="55" y="732" on="1"/>
        <pt x="55" y="770" on="1"/>
        <pt x="633" y="770" on="1"/>
        <pt x="642" y="594" on="1"/>
        <pt x="607" y="594" on="1"/>
        <pt x="601" y="634" on="0"/>
        <pt x="574" y="685" on="0"/>
        <pt x="527" y="715" on="0"/>
        <pt x="455" y="727" on="0"/>
        <pt x="404" y="727" on="1"/>
        <pt x="277" y="727" on="1"/>
        <pt x="260" y="727" on="0"/>
        <pt x="260" y="710" on="1"/>
      </contour>
      <contour>
        <pt x="317" y="-168" on="1"/>
        <pt x="317" y="-142" on="0"/>
        <pt x="353" y="-106" on="0"/>
        <pt x="379" y="-106" on="1"/>
        <pt x="405" y="-106" on="0"/>
        <pt x="441" y="-142" on="0"/>
        <pt x="441" y="-168" on="1"/>
        <pt x="441" y="-194" on="0"/>
        <pt x="405" y="-230" on="0"/>
        <pt x="379" y="-230" on="1"/>
        <pt x="353" y="-230" on="0"/>
        <pt x="317" y="-194" on="0"/>
      </contour>
    </TTGlyph>
    <TTGlyph name="Egrave" xMin="45" yMin="0" xMax="681" yMax="960">
      <contour>
        <pt x="260" y="423" on="1"/>
        <pt x="314" y="423" on="0"/>
        <pt x="387" y="436" on="0"/>
        <pt x="430" y="464" on="0"/>
        <pt x="449" y="508" on="0"/>
        <pt x="449" y="538" on="1"/>
        <pt x="484" y="538" on="1"/>
        <pt x="484" y="265" on="1"/>
        <pt x="449" y="265" on="1"/>
        <pt x="449" y="295" on="0"/>
        <pt x="432" y="339" on="0"/>
        <pt x="389" y="368" on="0"/>
        <pt x="316" y="383" on="0"/>
        <pt x="260" y="383" on="1"/>
        <pt x="260" y="157" on="1"/>
        <pt x="260" y="124" on="0"/>
        <pt x="276" y="81" on="0"/>
        <pt x="315" y="54" on="0"/>
        <pt x="379" y="43" on="0"/>
        <pt x="426" y="43" on="1"/>
        <pt x="479" y="43" on="0"/>
        <pt x="553" y="58" on="0"/>
        <pt x="603" y="94" on="0"/>
        <pt x="633" y="153" on="0"/>
        <pt x="643" y="197" on="1"/>
        <pt x="681" y="197" on="1"/>
        <pt x="666" y="0" on="1"/>
        <pt x="45" y="0" on="1"/>
        <pt x="45" y="38" on="1"/>
        <pt x="80" y="39" on="0"/>
        <pt x="123" y="49" on="0"/>
        <pt x="147" y="73" on="0"/>
        <pt x="155" y="117" on="0"/>
        <pt x="155" y="152" on="1"/>
        <pt x="155" y="618" on="1"/>
        <pt x="155" y="653" on="0"/>
        <pt x="148" y="696" on="0"/>
        <pt x="127" y="721" on="0"/>
        <pt x="87" y="730" on="0"/>
        <pt x="55" y="732" on="1"/>
        <pt x="55" y="770" on="1"/>
        <pt x="633" y="770" on="1"/>
        <pt x="642" y="594" on="1"/>
        <pt x="607" y="594" on="1"/>
        <pt x="601" y="634" on="0"/>
        <pt x="574" y="685" on="0"/>
        <pt x="527" y="715" on="0"/>
        <pt x="455" y="727" on="0"/>
        <pt x="404" y="727" on="1"/>
        <pt x="277" y="727" on="1"/>
        <pt x="260" y="727" on="0"/>
        <pt x="260" y="710" on="1"/>
      </contour>
      <contour>
        <pt x="425" y="850" on="1"/>
        <pt x="305" y="878" on="1"/>
        <pt x="271" y="886" on="0"/>
        <pt x="230" y="909" on="0"/>
        <pt x="230" y="925" on="1"/>
        <pt x="230" y="942" on="0"/>
        <pt x="251" y="960" on="0"/>
        <pt x="268" y="960" on="1"/>
        <pt x="288" y="960" on="0"/>
        <pt x="327" y="944" on="0"/>
        <pt x="355" y="927" on="1"/>
        <pt x="485" y="850" on="1"/>
      </contour>
    </TTGlyph>
    <TTGlyph name="Emacron" xMin="45" yMin="0" xMax="681" yMax="930">
      <contour>
        <pt x="260" y="423" on="1"/>
        <pt x="314" y="423" on="0"/>
        <pt x="387" y="436" on="0"/>
        <pt x="430" y="464" on="0"/>
        <pt x="449" y="508" on="0"/>
        <pt x="449" y="538" on="1"/>
        <pt x="484" y="538" on="1"/>
        <pt x="484" y="265" on="1"/>
        <pt x="449" y="265" on="1"/>
        <pt x="449" y="295" on="0"/>
        <pt x="432" y="339" on="0"/>
        <pt x="389" y="368" on="0"/>
        <pt x="316" y="383" on="0"/>
        <pt x="260" y="383" on="1"/>
        <pt x="260" y="157" on="1"/>
        <pt x="260" y="124" on="0"/>
        <pt x="276" y="81" on="0"/>
        <pt x="315" y="54" on="0"/>
        <pt x="379" y="43" on="0"/>
        <pt x="426" y="43" on="1"/>
        <pt x="479" y="43" on="0"/>
        <pt x="553" y="58" on="0"/>
        <pt x="603" y="94" on="0"/>
        <pt x="633" y="153" on="0"/>
        <pt x="643" y="197" on="1"/>
        <pt x="681" y="197" on="1"/>
        <pt x="666" y="0" on="1"/>
        <pt x="45" y="0" on="1"/>
        <pt x="45" y="38" on="1"/>
        <pt x="80" y="39" on="0"/>
        <pt x="123" y="49" on="0"/>
        <pt x="147" y="73" on="0"/>
        <pt x="155" y="117" on="0"/>
        <pt x="155" y="152" on="1"/>
        <pt x="155" y="618" on="1"/>
        <pt x="155" y="653" on="0"/>
        <pt x="148" y="696" on="0"/>
        <pt x="127" y="721" on="0"/>
        <pt x="87" y="730" on="0"/>
        <pt x="55" y="732" on="1"/>
        <pt x="55" y="770" on="1"/>
        <pt x="633" y="770" on="1"/>
        <pt x="642" y="594" on="1"/>
        <pt x="607" y="594" on="1"/>
        <pt x="601" y="634" on="0"/>
        <pt x="574" y="685" on="0"/>
        <pt x="527" y="715" on="0"/>
        <pt x="455" y="727" on="0"/>
        <pt x="404" y="727" on="1"/>
        <pt x="277" y="727" on="1"/>
        <pt x="260" y="727" on="0"/>
        <pt x="260" y="710" on="1"/>
      </contour>
      <contour>
        <pt x="244" y="880" on="1"/>
        <pt x="244" y="930" on="1"/>
        <pt x="514" y="930" on="1"/>
        <pt x="514" y="880" on="1"/>
      </contour>
    </TTGlyph>
    <TTGlyph name="Eng" xMin="45" yMin="-260" xMax="864" yMax="770">
      <contour>
        <pt x="694" y="-10" on="1"/>
        <pt x="219" y="616" on="1"/>
        <pt x="215" y="616" on="1"/>
        <pt x="215" y="189" on="1"/>
        <pt x="215" y="139" on="0"/>
        <pt x="222" y="81" on="0"/>
        <pt x="243" y="49" on="0"/>
        <pt x="282" y="39" on="0"/>
        <pt x="314" y="38" on="1"/>
        <pt x="314" y="0" on="1"/>
        <pt x="45" y="0" on="1"/>
        <pt x="45" y="38" on="1"/>
        <pt x="80" y="39" on="0"/>
        <pt x="123" y="50" on="0"/>
        <pt x="147" y="80" on="0"/>
        <pt x="155" y="135" on="0"/>
        <pt x="155" y="182" on="1"/>
        <pt x="155" y="588" on="1"/>
        <pt x="155" y="630" on="0"/>
        <pt x="148" y="685" on="0"/>
        <pt x="127" y="717" on="0"/>
        <pt x="87" y="730" on="0"/>
        <pt x="55" y="732" on="1"/>
        <pt x="55" y="770" on="1"/>
        <pt x="253" y="770" on="1"/>
        <pt x="690" y="187" on="1"/>
        <pt x="694" y="187" on="1"/>
        <pt x="694" y="581" on="1"/>
        <pt x="694" y="630" on="0"/>
        <pt x="687" y="689" on="0"/>
        <pt x="666" y="721" on="0"/>
        <pt x="627" y="731" on="0"/>
        <pt x="595" y="732" on="1"/>
        <pt x="595" y="770" on="1"/>
        <pt x="864" y="770" on="1"/>
        <pt x="864" y="732" on="1"/>
        <pt x="829" y="731" on="0"/>
        <pt x="786" y="720" on="0"/>
        <pt x="762" y="690" on="0"/>
        <pt x="754" y="634" on="0"/>
        <pt x="754" y="588" on="1"/>
        <pt x="754" y="-10" on="1"/>
        <pt x="754" y="-132" on="0"/>
        <pt x="646" y="-260" on="0"/>
        <pt x="546" y="-260" on="1"/>
        <pt x="477" y="-260" on="0"/>
        <pt x="394" y="-207" on="0"/>
        <pt x="394" y="-163" on="1"/>
        <pt x="394" y="-137" on="0"/>
        <pt x="421" y="-110" on="0"/>
        <pt x="445" y="-110" on="1"/>
        <pt x="464" y="-110" on="0"/>
        <pt x="487" y="-129" on="0"/>
        <pt x="502" y="-157" on="1"/>
        <pt x="519" y="-189" on="0"/>
        <pt x="544" y="-212" on="0"/>
        <pt x="564" y="-212" on="1"/>
        <pt x="626" y="-212" on="0"/>
        <pt x="694" y="-124" on="0"/>
        <pt x="694" y="-43" on="1"/>
      </contour>
    </TTGlyph>
    <TTGlyph name="Eogonek" xMin="45" yMin="-234" xMax="681" yMax="770">
      <contour>
        <pt x="483" y="-152" on="1"/>
        <pt x="448" y="-198" on="0"/>
        <pt x="370" y="-234" on="0"/>
        <pt x="326" y="-234" on="1"/>
        <pt x="280" y="-234" on="0"/>
        <pt x="229" y="-189" on="0"/>
        <pt x="229" y="-149" on="1"/>
        <pt x="229" y="-106" on="0"/>
        <pt x="293" y="-28" on="0"/>
        <pt x="352" y="0" on="1"/>
        <pt x="45" y="0" on="1"/>
        <pt x="45" y="38" on="1"/>
        <pt x="80" y="39" on="0"/>
        <pt x="123" y="49" on="0"/>
        <pt x="147" y="73" on="0"/>
        <pt x="155" y="117" on="0"/>
        <pt x="155" y="152" on="1"/>
        <pt x="155" y="618" on="1"/>
        <pt x="155" y="653" on="0"/>
        <pt x="148" y="696" on="0"/>
        <pt x="127" y="721" on="0"/>
        <pt x="87" y="730" on="0"/>
        <pt x="55" y="732" on="1"/>
        <pt x="55" y="770" on="1"/>
        <pt x="633" y="770" on="1"/>
        <pt x="642" y="594" on="1"/>
        <pt x="607" y="594" on="1"/>
        <pt x="601" y="634" on="0"/>
        <pt x="574" y="685" on="0"/>
        <pt x="527" y="715" on="0"/>
        <pt x="455" y="727" on="0"/>
        <pt x="404" y="727" on="1"/>
        <pt x="277" y="727" on="1"/>
        <pt x="260" y="727" on="0"/>
        <pt x="260" y="710" on="1"/>
        <pt x="260" y="423" on="1"/>
        <pt x="314" y="423" on="0"/>
        <pt x="387" y="436" on="0"/>
        <pt x="430" y="464" on="0"/>
        <pt x="449" y="508" on="0"/>
        <pt x="449" y="538" on="1"/>
        <pt x="484" y="538" on="1"/>
        <pt x="484" y="265" on="1"/>
        <pt x="449" y="265" on="1"/>
        <pt x="449" y="295" on="0"/>
        <pt x="432" y="339" on="0"/>
        <pt x="389" y="368" on="0"/>
        <pt x="316" y="383" on="0"/>
        <pt x="260" y="383" on="1"/>
        <pt x="260" y="157" on="1"/>
        <pt x="260" y="124" on="0"/>
        <pt x="276" y="81" on="0"/>
        <pt x="315" y="54" on="0"/>
        <pt x="379" y="43" on="0"/>
        <pt x="426" y="43" on="1"/>
        <pt x="479" y="43" on="0"/>
        <pt x="553" y="58" on="0"/>
        <pt x="603" y="94" on="0"/>
        <pt x="633" y="153" on="0"/>
        <pt x="643" y="197" on="1"/>
        <pt x="681" y="197" on="1"/>
        <pt x="666" y="0" on="1"/>
        <pt x="417" y="0" on="1"/>
        <pt x="368" y="-26" on="0"/>
        <pt x="308" y="-97" on="0"/>
        <pt x="308" y="-126" on="1"/>
        <pt x="308" y="-146" on="0"/>
        <pt x="335" y="-174" on="0"/>
        <pt x="359" y="-174" on="1"/>
        <pt x="378" y="-174" on="0"/>
        <pt x="428" y="-148" on="0"/>
        <pt x="454" y="-121" on="1"/>
      </contour>
    </TTGlyph>
    <TTGlyph name="Eth" xMin="36" yMin="0" xMax="823" yMax="770">
      <contour>
        <pt x="76" y="383" on="1"/>
        <pt x="76" y="436" on="1"/>
        <pt x="156" y="436" on="1"/>
        <pt x="156" y="618" on="1"/>
        <pt x="156" y="653" on="0"/>
        <pt x="149" y="696" on="0"/>
        <pt x="128" y="721" on="0"/>
        <pt x="88" y="730" on="0"/>
        <pt x="56" y="732" on="1"/>
        <pt x="56" y="770" on="1"/>
        <pt x="407" y="770" on="1"/>
        <pt x="497" y="770" on="0"/>
        <pt x="650" y="710" on="0"/>
        <pt x="761" y="604" on="0"/>
        <pt x="823" y="458" on="0"/>
        <pt x="823" y="372" on="1"/>
        <pt x="823" y="290" on="0"/>
        <pt x="765" y="153" on="0"/>
        <pt x="660" y="55" on="0"/>
        <pt x="514" y="0" on="0"/>
        <pt x="427" y="0" on="1"/>
        <pt x="36" y="0" on="1"/>
        <pt x="36" y="38" on="1"/>
        <pt x="74" y="39" on="0"/>
        <pt x="121" y="48" on="0"/>
        <pt x="147" y="73" on="0"/>
        <pt x="156" y="116" on="0"/>
        <pt x="156" y="152" on="1"/>
        <pt x="156" y="383" on="1"/>
      </contour>
      <contour>
        <pt x="278" y="721" on="1"/>
        <pt x="261" y="721" on="0"/>
        <pt x="261" y="704" on="1"/>
        <pt x="261" y="436" on="1"/>
        <pt x="425" y="436" on="1"/>
        <pt x="425" y="383" on="1"/>
        <pt x="261" y="383" on="1"/>
        <pt x="261" y="163" on="1"/>
        <pt x="261" y="49" on="0"/>
        <pt x="410" y="49" on="1"/>
        <pt x="547" y="49" on="0"/>
        <pt x="693" y="212" on="0"/>
        <pt x="693" y="370" on="1"/>
        <pt x="693" y="453" on="0"/>
        <pt x="653" y="583" on="0"/>
        <pt x="578" y="673" on="0"/>
        <pt x="472" y="721" on="0"/>
        <pt x="405" y="721" on="1"/>
      </contour>
    </TTGlyph>
    <TTGlyph name="Etilde" xMin="45" yMin="0" xMax="681" yMax="960">
      <contour>
        <pt x="260" y="423" on="1"/>
        <pt x="314" y="423" on="0"/>
        <pt x="387" y="436" on="0"/>
        <pt x="430" y="464" on="0"/>
        <pt x="449" y="508" on="0"/>
        <pt x="449" y="538" on="1"/>
        <pt x="484" y="538" on="1"/>
        <pt x="484" y="265" on="1"/>
        <pt x="449" y="265" on="1"/>
        <pt x="449" y="295" on="0"/>
        <pt x="432" y="339" on="0"/>
        <pt x="389" y="368" on="0"/>
        <pt x="316" y="383" on="0"/>
        <pt x="260" y="383" on="1"/>
        <pt x="260" y="157" on="1"/>
        <pt x="260" y="124" on="0"/>
        <pt x="276" y="81" on="0"/>
        <pt x="315" y="54" on="0"/>
        <pt x="379" y="43" on="0"/>
        <pt x="426" y="43" on="1"/>
        <pt x="479" y="43" on="0"/>
        <pt x="553" y="58" on="0"/>
        <pt x="603" y="94" on="0"/>
        <pt x="633" y="153" on="0"/>
        <pt x="643" y="197" on="1"/>
        <pt x="681" y="197" on="1"/>
        <pt x="666" y="0" on="1"/>
        <pt x="45" y="0" on="1"/>
        <pt x="45" y="38" on="1"/>
        <pt x="80" y="39" on="0"/>
        <pt x="123" y="49" on="0"/>
        <pt x="147" y="73" on="0"/>
        <pt x="155" y="117" on="0"/>
        <pt x="155" y="152" on="1"/>
        <pt x="155" y="618" on="1"/>
        <pt x="155" y="653" on="0"/>
        <pt x="148" y="696" on="0"/>
        <pt x="127" y="721" on="0"/>
        <pt x="87" y="730" on="0"/>
        <pt x="55" y="732" on="1"/>
        <pt x="55" y="770" on="1"/>
        <pt x="633" y="770" on="1"/>
        <pt x="642" y="594" on="1"/>
        <pt x="607" y="594" on="1"/>
        <pt x="601" y="634" on="0"/>
        <pt x="574" y="685" on="0"/>
        <pt x="527" y="715" on="0"/>
        <pt x="455" y="727" on="0"/>
        <pt x="404" y="727" on="1"/>
        <pt x="277" y="727" on="1"/>
        <pt x="260" y="727" on="0"/>
        <pt x="260" y="710" on="1"/>
      </contour>
      <contour>
        <pt x="208" y="846" on="1"/>
        <pt x="216" y="897" on="0"/>
        <pt x="275" y="960" on="0"/>
        <pt x="314" y="960" on="1"/>
        <pt x="334" y="960" on="0"/>
        <pt x="373" y="946" on="0"/>
        <pt x="412" y="928" on="0"/>
        <pt x="450" y="914" on="0"/>
        <pt x="469" y="914" on="1"/>
        <pt x="488" y="914" on="0"/>
        <pt x="508" y="933" on="0"/>
        <pt x="516" y="956" on="1"/>
        <pt x="549" y="956" on="1"/>
        <pt x="544" y="905" on="0"/>
        <pt x="487" y="838" on="0"/>
        <pt x="449" y="838" on="1"/>
        <pt x="429" y="838" on="0"/>
        <pt x="389" y="853" on="0"/>
        <pt x="348" y="871" on="0"/>
        <pt x="307" y="886" on="0"/>
        <pt x="287" y="886" on="1"/>
        <pt x="268" y="886" on="0"/>
        <pt x="249" y="869" on="0"/>
        <pt x="242" y="846" on="1"/>
      </contour>
    </TTGlyph>
    <TTGlyph name="Euro" xMin="42" yMin="-10" xMax="644" yMax="780">
      <contour>
        <pt x="488" y="300" on="1"/>
        <pt x="255" y="300" on="1"/>
        <pt x="255" y="242" on="0"/>
        <pt x="281" y="145" on="0"/>
        <pt x="327" y="76" on="0"/>
        <pt x="392" y="38" on="0"/>
        <pt x="431" y="38" on="1"/>
        <pt x="465" y="38" on="0"/>
        <pt x="524" y="69" on="0"/>
        <pt x="568" y="125" on="0"/>
        <pt x="597" y="204" on="0"/>
        <pt x="601" y="252" on="1"/>
        <pt x="644" y="252" on="1"/>
        <pt x="644" y="0" on="1"/>
        <pt x="610" y="0" on="1"/>
        <pt x="598" y="69" on="1"/>
        <pt x="531" y="-10" on="0"/>
        <pt x="423" y="-10" on="1"/>
        <pt x="366" y="-10" on="0"/>
        <pt x="268" y="33" on="0"/>
        <pt x="192" y="114" on="0"/>
        <pt x="140" y="229" on="0"/>
        <pt x="129" y="300" on="1"/>
        <pt x="43" y="300" on="1"/>
        <pt x="43" y="358" on="1"/>
        <pt x="124" y="358" on="1"/>
        <pt x="123" y="366" on="0"/>
        <pt x="123" y="380" on="0"/>
        <pt x="123" y="388" on="1"/>
        <pt x="123" y="409" on="0"/>
        <pt x="126" y="430" on="1"/>
        <pt x="42" y="430" on="1"/>
        <pt x="42" y="488" on="1"/>
        <pt x="132" y="488" on="1"/>
        <pt x="145" y="558" on="0"/>
        <pt x="199" y="667" on="0"/>
        <pt x="277" y="741" on="0"/>
        <pt x="377" y="780" on="0"/>
        <pt x="434" y="780" on="1"/>
        <pt x="457" y="780" on="0"/>
        <pt x="494" y="775" on="0"/>
        <pt x="528" y="761" on="0"/>
        <pt x="563" y="738" on="0"/>
        <pt x="584" y="719" on="1"/>
        <pt x="601" y="770" on="1"/>
        <pt x="629" y="770" on="1"/>
        <pt x="629" y="554" on="1"/>
        <pt x="586" y="554" on="1"/>
        <pt x="569" y="641" on="0"/>
        <pt x="495" y="732" on="0"/>
        <pt x="438" y="732" on="1"/>
        <pt x="364" y="732" on="0"/>
        <pt x="271" y="610" on="0"/>
        <pt x="257" y="488" on="1"/>
        <pt x="488" y="488" on="1"/>
        <pt x="488" y="430" on="1"/>
        <pt x="254" y="430" on="1"/>
        <pt x="253" y="419" on="0"/>
        <pt x="252" y="398" on="0"/>
        <pt x="252" y="387" on="1"/>
        <pt x="252" y="379" on="0"/>
        <pt x="252" y="365" on="0"/>
        <pt x="253" y="358" on="1"/>
        <pt x="488" y="358" on="1"/>
      </contour>
    </TTGlyph>
    <TTGlyph name="F" xMin="45" yMin="0" xMax="644" yMax="770">
      <contour>
        <pt x="260" y="159" on="1"/>
        <pt x="260" y="121" on="0"/>
        <pt x="269" y="74" on="0"/>
        <pt x="299" y="49" on="0"/>
        <pt x="354" y="39" on="0"/>
        <pt x="399" y="38" on="1"/>
        <pt x="399" y="0" on="1"/>
        <pt x="45" y="0" on="1"/>
        <pt x="45" y="38" on="1"/>
        <pt x="80" y="39" on="0"/>
        <pt x="123" y="49" on="0"/>
        <pt x="147" y="73" on="0"/>
        <pt x="155" y="117" on="0"/>
        <pt x="155" y="152" on="1"/>
        <pt x="155" y="618" on="1"/>
        <pt x="155" y="653" on="0"/>
        <pt x="148" y="696" on="0"/>
        <pt x="127" y="721" on="0"/>
        <pt x="87" y="730" on="0"/>
        <pt x="55" y="732" on="1"/>
        <pt x="55" y="770" on="1"/>
        <pt x="633" y="770" on="1"/>
        <pt x="644" y="579" on="1"/>
        <pt x="609" y="579" on="1"/>
        <pt x="603" y="622" on="0"/>
        <pt x="577" y="677" on="0"/>
        <pt x="530" y="709" on="0"/>
        <pt x="458" y="722" on="0"/>
        <pt x="404" y="722" on="1"/>
        <pt x="277" y="722" on="1"/>
        <pt x="260" y="722" on="0"/>
        <pt x="260" y="705" on="1"/>
        <pt x="260" y="403" on="1"/>
        <pt x="308" y="403" on="0"/>
        <pt x="377" y="414" on="0"/>
        <pt x="422" y="442" on="0"/>
        <pt x="446" y="490" on="0"/>
        <pt x="449" y="528" on="1"/>
        <pt x="484" y="528" on="1"/>
        <pt x="484" y="235" on="1"/>
        <pt x="449" y="235" on="1"/>
        <pt x="444" y="273" on="0"/>
        <pt x="422" y="323" on="0"/>
        <pt x="379" y="351" on="0"/>
        <pt x="311" y="363" on="0"/>
        <pt x="260" y="363" on="1"/>
      </contour>
    </TTGlyph>
    <TTGlyph name="G" xMin="60" yMin="-10" xMax="843" yMax="780">
      <contour>
        <pt x="428" y="-10" on="1"/>
        <pt x="343" y="-10" on="0"/>
        <pt x="207" y="44" on="0"/>
        <pt x="111" y="143" on="0"/>
        <pt x="60" y="285" on="0"/>
        <pt x="60" y="372" on="1"/>
        <pt x="60" y="463" on="0"/>
        <pt x="116" y="613" on="0"/>
        <pt x="217" y="721" on="0"/>
        <pt x="358" y="780" on="0"/>
        <pt x="443" y="780" on="1"/>
        <pt x="503" y="780" on="0"/>
        <pt x="609" y="746" on="0"/>
        <pt x="671" y="708" on="1"/>
        <pt x="692" y="770" on="1"/>
        <pt x="727" y="770" on="1"/>
        <pt x="714" y="540" on="1"/>
        <pt x="666" y="540" on="1"/>
        <pt x="666" y="589" on="0"/>
        <pt x="629" y="660" on="0"/>
        <pt x="569" y="706" on="0"/>
        <pt x="492" y="728" on="0"/>
        <pt x="452" y="728" on="1"/>
        <pt x="391" y="728" on="0"/>
        <pt x="295" y="680" on="0"/>
        <pt x="229" y="590" on="0"/>
        <pt x="194" y="460" on="0"/>
        <pt x="194" y="378" on="1"/>
        <pt x="194" y="217" on="0"/>
        <pt x="328" y="44" on="0"/>
        <pt x="455" y="44" on="1"/>
        <pt x="503" y="44" on="0"/>
        <pt x="579" y="67" on="0"/>
        <pt x="632" y="106" on="0"/>
        <pt x="659" y="157" on="0"/>
        <pt x="659" y="185" on="1"/>
        <pt x="659" y="243" on="0"/>
        <pt x="612" y="284" on="0"/>
        <pt x="559" y="284" on="1"/>
        <pt x="559" y="322" on="1"/>
        <pt x="843" y="322" on="1"/>
        <pt x="843" y="284" on="1"/>
        <pt x="819" y="284" on="0"/>
        <pt x="787" y="276" on="0"/>
        <pt x="768" y="255" on="0"/>
        <pt x="761" y="221" on="0"/>
        <pt x="761" y="195" on="1"/>
        <pt x="761" y="83" on="1"/>
        <pt x="742" y="83" on="0"/>
        <pt x="711" y="80" on="0"/>
        <pt x="677" y="69" on="0"/>
        <pt x="636" y="50" on="0"/>
        <pt x="608" y="34" on="1"/>
        <pt x="573" y="14" on="0"/>
        <pt x="482" y="-10" on="0"/>
      </contour>
    </TTGlyph>
    <TTGlyph name="Gbreve" xMin="60" yMin="-10" xMax="843" yMax="960">
      <contour>
        <pt x="428" y="-10" on="1"/>
        <pt x="343" y="-10" on="0"/>
        <pt x="207" y="44" on="0"/>
        <pt x="111" y="143" on="0"/>
        <pt x="60" y="285" on="0"/>
        <pt x="60" y="372" on="1"/>
        <pt x="60" y="463" on="0"/>
        <pt x="116" y="613" on="0"/>
        <pt x="217" y="721" on="0"/>
        <pt x="358" y="780" on="0"/>
        <pt x="443" y="780" on="1"/>
        <pt x="503" y="780" on="0"/>
        <pt x="609" y="746" on="0"/>
        <pt x="671" y="708" on="1"/>
        <pt x="692" y="770" on="1"/>
        <pt x="727" y="770" on="1"/>
        <pt x="714" y="540" on="1"/>
        <pt x="666" y="540" on="1"/>
        <pt x="666" y="589" on="0"/>
        <pt x="629" y="660" on="0"/>
        <pt x="569" y="706" on="0"/>
        <pt x="492" y="728" on="0"/>
        <pt x="452" y="728" on="1"/>
        <pt x="391" y="728" on="0"/>
        <pt x="295" y="680" on="0"/>
        <pt x="229" y="590" on="0"/>
        <pt x="194" y="460" on="0"/>
        <pt x="194" y="378" on="1"/>
        <pt x="194" y="217" on="0"/>
        <pt x="328" y="44" on="0"/>
        <pt x="455" y="44" on="1"/>
        <pt x="503" y="44" on="0"/>
        <pt x="579" y="67" on="0"/>
        <pt x="632" y="106" on="0"/>
        <pt x="659" y="157" on="0"/>
        <pt x="659" y="185" on="1"/>
        <pt x="659" y="243" on="0"/>
        <pt x="612" y="284" on="0"/>
        <pt x="559" y="284" on="1"/>
        <pt x="559" y="322" on="1"/>
        <pt x="843" y="322" on="1"/>
        <pt x="843" y="284" on="1"/>
        <pt x="819" y="284" on="0"/>
        <pt x="787" y="276" on="0"/>
        <pt x="768" y="255" on="0"/>
        <pt x="761" y="221" on="0"/>
        <pt x="761" y="195" on="1"/>
        <pt x="761" y="83" on="1"/>
        <pt x="742" y="83" on="0"/>
        <pt x="711" y="80" on="0"/>
        <pt x="677" y="69" on="0"/>
        <pt x="636" y="50" on="0"/>
        <pt x="608" y="34" on="1"/>
        <pt x="573" y="14" on="0"/>
        <pt x="482" y="-10" on="0"/>
      </contour>
      <contour>
        <pt x="584" y="960" on="1"/>
        <pt x="580" y="909" on="0"/>
        <pt x="503" y="845" on="0"/>
        <pt x="446" y="845" on="1"/>
        <pt x="417" y="845" on="0"/>
        <pt x="368" y="862" on="0"/>
        <pt x="331" y="893" on="0"/>
        <pt x="309" y="935" on="0"/>
        <pt x="308" y="960" on="1"/>
        <pt x="344" y="960" on="1"/>
        <pt x="352" y="939" on="0"/>
        <pt x="407" y="914" on="0"/>
        <pt x="445" y="914" on="1"/>
        <pt x="483" y="914" on="0"/>
        <pt x="539" y="939" on="0"/>
        <pt x="547" y="960" on="1"/>
      </contour>
    </TTGlyph>
    <TTGlyph name="Gcircumflex" xMin="60" yMin="-10" xMax="843" yMax="960">
      <contour>
        <pt x="428" y="-10" on="1"/>
        <pt x="343" y="-10" on="0"/>
        <pt x="207" y="44" on="0"/>
        <pt x="111" y="143" on="0"/>
        <pt x="60" y="285" on="0"/>
        <pt x="60" y="372" on="1"/>
        <pt x="60" y="463" on="0"/>
        <pt x="116" y="613" on="0"/>
        <pt x="217" y="721" on="0"/>
        <pt x="358" y="780" on="0"/>
        <pt x="443" y="780" on="1"/>
        <pt x="503" y="780" on="0"/>
        <pt x="609" y="746" on="0"/>
        <pt x="671" y="708" on="1"/>
        <pt x="692" y="770" on="1"/>
        <pt x="727" y="770" on="1"/>
        <pt x="714" y="540" on="1"/>
        <pt x="666" y="540" on="1"/>
        <pt x="666" y="589" on="0"/>
        <pt x="629" y="660" on="0"/>
        <pt x="569" y="706" on="0"/>
        <pt x="492" y="728" on="0"/>
        <pt x="452" y="728" on="1"/>
        <pt x="391" y="728" on="0"/>
        <pt x="295" y="680" on="0"/>
        <pt x="229" y="590" on="0"/>
        <pt x="194" y="460" on="0"/>
        <pt x="194" y="378" on="1"/>
        <pt x="194" y="217" on="0"/>
        <pt x="328" y="44" on="0"/>
        <pt x="455" y="44" on="1"/>
        <pt x="503" y="44" on="0"/>
        <pt x="579" y="67" on="0"/>
        <pt x="632" y="106" on="0"/>
        <pt x="659" y="157" on="0"/>
        <pt x="659" y="185" on="1"/>
        <pt x="659" y="243" on="0"/>
        <pt x="612" y="284" on="0"/>
        <pt x="559" y="284" on="1"/>
        <pt x="559" y="322" on="1"/>
        <pt x="843" y="322" on="1"/>
        <pt x="843" y="284" on="1"/>
        <pt x="819" y="284" on="0"/>
        <pt x="787" y="276" on="0"/>
        <pt x="768" y="255" on="0"/>
        <pt x="761" y="221" on="0"/>
        <pt x="761" y="195" on="1"/>
        <pt x="761" y="83" on="1"/>
        <pt x="742" y="83" on="0"/>
        <pt x="711" y="80" on="0"/>
        <pt x="677" y="69" on="0"/>
        <pt x="636" y="50" on="0"/>
        <pt x="608" y="34" on="1"/>
        <pt x="573" y="14" on="0"/>
        <pt x="482" y="-10" on="0"/>
      </contour>
      <contour>
        <pt x="501" y="960" on="1"/>
        <pt x="610" y="851" on="1"/>
        <pt x="565" y="851" on="1"/>
        <pt x="446" y="905" on="1"/>
        <pt x="327" y="851" on="1"/>
        <pt x="282" y="851" on="1"/>
        <pt x="391" y="960" on="1"/>
      </contour>
    </TTGlyph>
    <TTGlyph name="Gcommaaccent" xMin="60" yMin="-250" xMax="843" yMax="780">
      <contour>
        <pt x="428" y="-10" on="1"/>
        <pt x="343" y="-10" on="0"/>
        <pt x="207" y="44" on="0"/>
        <pt x="111" y="143" on="0"/>
        <pt x="60" y="285" on="0"/>
        <pt x="60" y="372" on="1"/>
        <pt x="60" y="463" on="0"/>
        <pt x="116" y="613" on="0"/>
        <pt x="217" y="721" on="0"/>
        <pt x="358" y="780" on="0"/>
        <pt x="443" y="780" on="1"/>
        <pt x="503" y="780" on="0"/>
        <pt x="609" y="746" on="0"/>
        <pt x="671" y="708" on="1"/>
        <pt x="692" y="770" on="1"/>
        <pt x="727" y="770" on="1"/>
        <pt x="714" y="540" on="1"/>
        <pt x="666" y="540" on="1"/>
        <pt x="666" y="589" on="0"/>
        <pt x="629" y="660" on="0"/>
        <pt x="569" y="706" on="0"/>
        <pt x="492" y="728" on="0"/>
        <pt x="452" y="728" on="1"/>
        <pt x="391" y="728" on="0"/>
        <pt x="295" y="680" on="0"/>
        <pt x="229" y="590" on="0"/>
        <pt x="194" y="460" on="0"/>
        <pt x="194" y="378" on="1"/>
        <pt x="194" y="217" on="0"/>
        <pt x="328" y="44" on="0"/>
        <pt x="455" y="44" on="1"/>
        <pt x="503" y="44" on="0"/>
        <pt x="579" y="67" on="0"/>
        <pt x="632" y="106" on="0"/>
        <pt x="659" y="157" on="0"/>
        <pt x="659" y="185" on="1"/>
        <pt x="659" y="243" on="0"/>
        <pt x="612" y="284" on="0"/>
        <pt x="559" y="284" on="1"/>
        <pt x="559" y="322" on="1"/>
        <pt x="843" y="322" on="1"/>
        <pt x="843" y="284" on="1"/>
        <pt x="819" y="284" on="0"/>
        <pt x="787" y="276" on="0"/>
        <pt x="768" y="255" on="0"/>
        <pt x="761" y="221" on="0"/>
        <pt x="761" y="195" on="1"/>
        <pt x="761" y="83" on="1"/>
        <pt x="742" y="83" on="0"/>
        <pt x="711" y="80" on="0"/>
        <pt x="677" y="69" on="0"/>
        <pt x="636" y="50" on="0"/>
        <pt x="608" y="34" on="1"/>
        <pt x="573" y="14" on="0"/>
        <pt x="482" y="-10" on="0"/>
      </contour>
      <contour>
        <pt x="375" y="-224" on="1"/>
        <pt x="409" y="-205" on="0"/>
        <pt x="440" y="-168" on="0"/>
        <pt x="440" y="-146" on="1"/>
        <pt x="430" y="-154" on="0"/>
        <pt x="414" y="-154" on="1"/>
        <pt x="394" y="-154" on="0"/>
        <pt x="370" y="-128" on="0"/>
        <pt x="370" y="-107" on="1"/>
        <pt x="370" y="-84" on="0"/>
        <pt x="403" y="-54" on="0"/>
        <pt x="429" y="-54" on="1"/>
        <pt x="459" y="-54" on="0"/>
        <pt x="492" y="-95" on="0"/>
        <pt x="492" y="-133" on="1"/>
        <pt x="492" y="-165" on="0"/>
        <pt x="449" y="-222" on="0"/>
        <pt x="397" y="-250" on="1"/>
      </contour>
    </TTGlyph>
    <TTGlyph name="Gdotaccent" xMin="60" yMin="-10" xMax="843" yMax="959">
      <contour>
        <pt x="428" y="-10" on="1"/>
        <pt x="343" y="-10" on="0"/>
        <pt x="207" y="44" on="0"/>
        <pt x="111" y="143" on="0"/>
        <pt x="60" y="285" on="0"/>
        <pt x="60" y="372" on="1"/>
        <pt x="60" y="463" on="0"/>
        <pt x="116" y="613" on="0"/>
        <pt x="217" y="721" on="0"/>
        <pt x="358" y="780" on="0"/>
        <pt x="443" y="780" on="1"/>
        <pt x="503" y="780" on="0"/>
        <pt x="609" y="746" on="0"/>
        <pt x="671" y="708" on="1"/>
        <pt x="692" y="770" on="1"/>
        <pt x="727" y="770" on="1"/>
        <pt x="714" y="540" on="1"/>
        <pt x="666" y="540" on="1"/>
        <pt x="666" y="589" on="0"/>
        <pt x="629" y="660" on="0"/>
        <pt x="569" y="706" on="0"/>
        <pt x="492" y="728" on="0"/>
        <pt x="452" y="728" on="1"/>
        <pt x="391" y="728" on="0"/>
        <pt x="295" y="680" on="0"/>
        <pt x="229" y="590" on="0"/>
        <pt x="194" y="460" on="0"/>
        <pt x="194" y="378" on="1"/>
        <pt x="194" y="217" on="0"/>
        <pt x="328" y="44" on="0"/>
        <pt x="455" y="44" on="1"/>
        <pt x="503" y="44" on="0"/>
        <pt x="579" y="67" on="0"/>
        <pt x="632" y="106" on="0"/>
        <pt x="659" y="157" on="0"/>
        <pt x="659" y="185" on="1"/>
        <pt x="659" y="243" on="0"/>
        <pt x="612" y="284" on="0"/>
        <pt x="559" y="284" on="1"/>
        <pt x="559" y="322" on="1"/>
        <pt x="843" y="322" on="1"/>
        <pt x="843" y="284" on="1"/>
        <pt x="819" y="284" on="0"/>
        <pt x="787" y="276" on="0"/>
        <pt x="768" y="255" on="0"/>
        <pt x="761" y="221" on="0"/>
        <pt x="761" y="195" on="1"/>
        <pt x="761" y="83" on="1"/>
        <pt x="742" y="83" on="0"/>
        <pt x="711" y="80" on="0"/>
        <pt x="677" y="69" on="0"/>
        <pt x="636" y="50" on="0"/>
        <pt x="608" y="34" on="1"/>
        <pt x="573" y="14" on="0"/>
        <pt x="482" y="-10" on="0"/>
      </contour>
      <contour>
        <pt x="394" y="904" on="1"/>
        <pt x="394" y="927" on="0"/>
        <pt x="425" y="959" on="0"/>
        <pt x="446" y="959" on="1"/>
        <pt x="469" y="959" on="0"/>
        <pt x="501" y="927" on="0"/>
        <pt x="501" y="904" on="1"/>
        <pt x="501" y="883" on="0"/>
        <pt x="469" y="852" on="0"/>
        <pt x="446" y="852" on="1"/>
        <pt x="425" y="852" on="0"/>
        <pt x="394" y="883" on="0"/>
      </contour>
    </TTGlyph>
    <TTGlyph name="H" xMin="45" yMin="0" xMax="879" yMax="770">
      <contour>
        <pt x="770" y="159" on="1"/>
        <pt x="770" y="121" on="0"/>
        <pt x="778" y="74" on="0"/>
        <pt x="801" y="49" on="0"/>
        <pt x="844" y="39" on="0"/>
        <pt x="879" y="38" on="1"/>
        <pt x="879" y="0" on="1"/>
        <pt x="555" y="0" on="1"/>
        <pt x="555" y="38" on="1"/>
        <pt x="590" y="39" on="0"/>
        <pt x="633" y="49" on="0"/>
        <pt x="657" y="73" on="0"/>
        <pt x="665" y="117" on="0"/>
        <pt x="665" y="152" on="1"/>
        <pt x="665" y="369" on="1"/>
        <pt x="260" y="369" on="1"/>
        <pt x="260" y="159" on="1"/>
        <pt x="260" y="121" on="0"/>
        <pt x="268" y="74" on="0"/>
        <pt x="291" y="49" on="0"/>
        <pt x="334" y="39" on="0"/>
        <pt x="369" y="38" on="1"/>
        <pt x="369" y="0" on="1"/>
        <pt x="45" y="0" on="1"/>
        <pt x="45" y="38" on="1"/>
        <pt x="80" y="39" on="0"/>
        <pt x="123" y="49" on="0"/>
        <pt x="147" y="73" on="0"/>
        <pt x="155" y="117" on="0"/>
        <pt x="155" y="152" on="1"/>
        <pt x="155" y="618" on="1"/>
        <pt x="155" y="653" on="0"/>
        <pt x="148" y="696" on="0"/>
        <pt x="127" y="721" on="0"/>
        <pt x="87" y="730" on="0"/>
        <pt x="55" y="732" on="1"/>
        <pt x="55" y="770" on="1"/>
        <pt x="359" y="770" on="1"/>
        <pt x="359" y="732" on="1"/>
        <pt x="327" y="731" on="0"/>
        <pt x="288" y="721" on="0"/>
        <pt x="267" y="695" on="0"/>
        <pt x="260" y="649" on="0"/>
        <pt x="260" y="611" on="1"/>
        <pt x="260" y="419" on="1"/>
        <pt x="665" y="419" on="1"/>
        <pt x="665" y="618" on="1"/>
        <pt x="665" y="653" on="0"/>
        <pt x="658" y="696" on="0"/>
        <pt x="637" y="721" on="0"/>
        <pt x="597" y="730" on="0"/>
        <pt x="565" y="732" on="1"/>
        <pt x="565" y="770" on="1"/>
        <pt x="869" y="770" on="1"/>
        <pt x="869" y="732" on="1"/>
        <pt x="837" y="731" on="0"/>
        <pt x="798" y="721" on="0"/>
        <pt x="777" y="695" on="0"/>
        <pt x="770" y="649" on="0"/>
        <pt x="770" y="611" on="1"/>
      </contour>
    </TTGlyph>
    <TTGlyph name="Hbar" xMin="46" yMin="0" xMax="880" yMax="770">
      <contour>
        <pt x="771" y="591" on="1"/>
        <pt x="850" y="591" on="1"/>
        <pt x="850" y="541" on="1"/>
        <pt x="771" y="541" on="1"/>
        <pt x="771" y="159" on="1"/>
        <pt x="771" y="121" on="0"/>
        <pt x="779" y="74" on="0"/>
        <pt x="802" y="49" on="0"/>
        <pt x="845" y="39" on="0"/>
        <pt x="880" y="38" on="1"/>
        <pt x="880" y="0" on="1"/>
        <pt x="556" y="0" on="1"/>
        <pt x="556" y="38" on="1"/>
        <pt x="591" y="39" on="0"/>
        <pt x="634" y="49" on="0"/>
        <pt x="658" y="73" on="0"/>
        <pt x="666" y="117" on="0"/>
        <pt x="666" y="152" on="1"/>
        <pt x="666" y="369" on="1"/>
        <pt x="261" y="369" on="1"/>
        <pt x="261" y="159" on="1"/>
        <pt x="261" y="121" on="0"/>
        <pt x="269" y="74" on="0"/>
        <pt x="292" y="49" on="0"/>
        <pt x="335" y="39" on="0"/>
        <pt x="370" y="38" on="1"/>
        <pt x="370" y="0" on="1"/>
        <pt x="46" y="0" on="1"/>
        <pt x="46" y="38" on="1"/>
        <pt x="81" y="39" on="0"/>
        <pt x="124" y="49" on="0"/>
        <pt x="148" y="73" on="0"/>
        <pt x="156" y="117" on="0"/>
        <pt x="156" y="152" on="1"/>
        <pt x="156" y="541" on="1"/>
        <pt x="76" y="541" on="1"/>
        <pt x="76" y="591" on="1"/>
        <pt x="156" y="591" on="1"/>
        <pt x="156" y="618" on="1"/>
        <pt x="156" y="653" on="0"/>
        <pt x="149" y="696" on="0"/>
        <pt x="128" y="721" on="0"/>
        <pt x="88" y="730" on="0"/>
        <pt x="56" y="732" on="1"/>
        <pt x="56" y="770" on="1"/>
        <pt x="360" y="770" on="1"/>
        <pt x="360" y="732" on="1"/>
        <pt x="328" y="731" on="0"/>
        <pt x="289" y="721" on="0"/>
        <pt x="268" y="695" on="0"/>
        <pt x="261" y="649" on="0"/>
        <pt x="261" y="611" on="1"/>
        <pt x="261" y="591" on="1"/>
        <pt x="666" y="591" on="1"/>
        <pt x="666" y="618" on="1"/>
        <pt x="666" y="653" on="0"/>
        <pt x="659" y="696" on="0"/>
        <pt x="638" y="721" on="0"/>
        <pt x="598" y="730" on="0"/>
        <pt x="566" y="732" on="1"/>
        <pt x="566" y="770" on="1"/>
        <pt x="870" y="770" on="1"/>
        <pt x="870" y="732" on="1"/>
        <pt x="838" y="731" on="0"/>
        <pt x="799" y="721" on="0"/>
        <pt x="778" y="695" on="0"/>
        <pt x="771" y="649" on="0"/>
        <pt x="771" y="611" on="1"/>
      </contour>
      <contour>
        <pt x="666" y="419" on="1"/>
        <pt x="666" y="541" on="1"/>
        <pt x="261" y="541" on="1"/>
        <pt x="261" y="419" on="1"/>
      </contour>
    </TTGlyph>
    <TTGlyph name="Hcircumflex" xMin="45" yMin="0" xMax="879" yMax="960">
      <contour>
        <pt x="770" y="159" on="1"/>
        <pt x="770" y="121" on="0"/>
        <pt x="778" y="74" on="0"/>
        <pt x="801" y="49" on="0"/>
        <pt x="844" y="39" on="0"/>
        <pt x="879" y="38" on="1"/>
        <pt x="879" y="0" on="1"/>
        <pt x="555" y="0" on="1"/>
        <pt x="555" y="38" on="1"/>
        <pt x="590" y="39" on="0"/>
        <pt x="633" y="49" on="0"/>
        <pt x="657" y="73" on="0"/>
        <pt x="665" y="117" on="0"/>
        <pt x="665" y="152" on="1"/>
        <pt x="665" y="369" on="1"/>
        <pt x="260" y="369" on="1"/>
        <pt x="260" y="159" on="1"/>
        <pt x="260" y="121" on="0"/>
        <pt x="268" y="74" on="0"/>
        <pt x="291" y="49" on="0"/>
        <pt x="334" y="39" on="0"/>
        <pt x="369" y="38" on="1"/>
        <pt x="369" y="0" on="1"/>
        <pt x="45" y="0" on="1"/>
        <pt x="45" y="38" on="1"/>
        <pt x="80" y="39" on="0"/>
        <pt x="123" y="49" on="0"/>
        <pt x="147" y="73" on="0"/>
        <pt x="155" y="117" on="0"/>
        <pt x="155" y="152" on="1"/>
        <pt x="155" y="618" on="1"/>
        <pt x="155" y="653" on="0"/>
        <pt x="148" y="696" on="0"/>
        <pt x="127" y="721" on="0"/>
        <pt x="87" y="730" on="0"/>
        <pt x="55" y="732" on="1"/>
        <pt x="55" y="770" on="1"/>
        <pt x="359" y="770" on="1"/>
        <pt x="359" y="732" on="1"/>
        <pt x="327" y="731" on="0"/>
        <pt x="288" y="721" on="0"/>
        <pt x="267" y="695" on="0"/>
        <pt x="260" y="649" on="0"/>
        <pt x="260" y="611" on="1"/>
        <pt x="260" y="419" on="1"/>
        <pt x="665" y="419" on="1"/>
        <pt x="665" y="618" on="1"/>
        <pt x="665" y="653" on="0"/>
        <pt x="658" y="696" on="0"/>
        <pt x="637" y="721" on="0"/>
        <pt x="597" y="730" on="0"/>
        <pt x="565" y="732" on="1"/>
        <pt x="565" y="770" on="1"/>
        <pt x="869" y="770" on="1"/>
        <pt x="869" y="732" on="1"/>
        <pt x="837" y="731" on="0"/>
        <pt x="798" y="721" on="0"/>
        <pt x="777" y="695" on="0"/>
        <pt x="770" y="649" on="0"/>
        <pt x="770" y="611" on="1"/>
      </contour>
      <contour>
        <pt x="519" y="960" on="1"/>
        <pt x="628" y="851" on="1"/>
        <pt x="583" y="851" on="1"/>
        <pt x="464" y="905" on="1"/>
        <pt x="345" y="851" on="1"/>
        <pt x="300" y="851" on="1"/>
        <pt x="409" y="960" on="1"/>
      </contour>
    </TTGlyph>
    <TTGlyph name="Hdotbelow" xMin="45" yMin="-230" xMax="879" yMax="770">
      <contour>
        <pt x="770" y="159" on="1"/>
        <pt x="770" y="121" on="0"/>
        <pt x="778" y="74" on="0"/>
        <pt x="801" y="49" on="0"/>
        <pt x="844" y="39" on="0"/>
        <pt x="879" y="38" on="1"/>
        <pt x="879" y="0" on="1"/>
        <pt x="555" y="0" on="1"/>
        <pt x="555" y="38" on="1"/>
        <pt x="590" y="39" on="0"/>
        <pt x="633" y="49" on="0"/>
        <pt x="657" y="73" on="0"/>
        <pt x="665" y="117" on="0"/>
        <pt x="665" y="152" on="1"/>
        <pt x="665" y="369" on="1"/>
        <pt x="260" y="369" on="1"/>
        <pt x="260" y="159" on="1"/>
        <pt x="260" y="121" on="0"/>
        <pt x="268" y="74" on="0"/>
        <pt x="291" y="49" on="0"/>
        <pt x="334" y="39" on="0"/>
        <pt x="369" y="38" on="1"/>
        <pt x="369" y="0" on="1"/>
        <pt x="45" y="0" on="1"/>
        <pt x="45" y="38" on="1"/>
        <pt x="80" y="39" on="0"/>
        <pt x="123" y="49" on="0"/>
        <pt x="147" y="73" on="0"/>
        <pt x="155" y="117" on="0"/>
        <pt x="155" y="152" on="1"/>
        <pt x="155" y="618" on="1"/>
        <pt x="155" y="653" on="0"/>
        <pt x="148" y="696" on="0"/>
        <pt x="127" y="721" on="0"/>
        <pt x="87" y="730" on="0"/>
        <pt x="55" y="732" on="1"/>
        <pt x="55" y="770" on="1"/>
        <pt x="359" y="770" on="1"/>
        <pt x="359" y="732" on="1"/>
        <pt x="327" y="731" on="0"/>
        <pt x="288" y="721" on="0"/>
        <pt x="267" y="695" on="0"/>
        <pt x="260" y="649" on="0"/>
        <pt x="260" y="611" on="1"/>
        <pt x="260" y="419" on="1"/>
        <pt x="665" y="419" on="1"/>
        <pt x="665" y="618" on="1"/>
        <pt x="665" y="653" on="0"/>
        <pt x="658" y="696" on="0"/>
        <pt x="637" y="721" on="0"/>
        <pt x="597" y="730" on="0"/>
        <pt x="565" y="732" on="1"/>
        <pt x="565" y="770" on="1"/>
        <pt x="869" y="770" on="1"/>
        <pt x="869" y="732" on="1"/>
        <pt x="837" y="731" on="0"/>
        <pt x="798" y="721" on="0"/>
        <pt x="777" y="695" on="0"/>
        <pt x="770" y="649" on="0"/>
        <pt x="770" y="611" on="1"/>
      </contour>
      <contour>
        <pt x="402" y="-168" on="1"/>
        <pt x="402" y="-142" on="0"/>
        <pt x="438" y="-106" on="0"/>
        <pt x="464" y="-106" on="1"/>
        <pt x="490" y="-106" on="0"/>
        <pt x="526" y="-142" on="0"/>
        <pt x="526" y="-168" on="1"/>
        <pt x="526" y="-194" on="0"/>
        <pt x="490" y="-230" on="0"/>
        <pt x="464" y="-230" on="1"/>
        <pt x="438" y="-230" on="0"/>
        <pt x="402" y="-194" on="0"/>
      </contour>
    </TTGlyph>
    <TTGlyph name="I" xMin="45" yMin="0" xMax="369" yMax="770">
      <contour>
        <pt x="260" y="189" on="1"/>
        <pt x="260" y="139" on="0"/>
        <pt x="268" y="81" on="0"/>
        <pt x="291" y="49" on="0"/>
        <pt x="334" y="39" on="0"/>
        <pt x="369" y="38" on="1"/>
        <pt x="369" y="0" on="1"/>
        <pt x="45" y="0" on="1"/>
        <pt x="45" y="38" on="1"/>
        <pt x="80" y="39" on="0"/>
        <pt x="123" y="50" on="0"/>
        <pt x="147" y="80" on="0"/>
        <pt x="155" y="135" on="0"/>
        <pt x="155" y="182" on="1"/>
        <pt x="155" y="588" on="1"/>
        <pt x="155" y="630" on="0"/>
        <pt x="148" y="685" on="0"/>
        <pt x="127" y="717" on="0"/>
        <pt x="87" y="730" on="0"/>
        <pt x="55" y="732" on="1"/>
        <pt x="55" y="770" on="1"/>
        <pt x="359" y="770" on="1"/>
        <pt x="359" y="732" on="1"/>
        <pt x="327" y="731" on="0"/>
        <pt x="288" y="717" on="0"/>
        <pt x="267" y="684" on="0"/>
        <pt x="260" y="626" on="0"/>
        <pt x="260" y="581" on="1"/>
      </contour>
    </TTGlyph>
    <TTGlyph name="IJ" xMin="45" yMin="-260" xMax="764" yMax="770">
      <contour>
        <pt x="260" y="189" on="1"/>
        <pt x="260" y="139" on="0"/>
        <pt x="268" y="81" on="0"/>
        <pt x="291" y="49" on="0"/>
        <pt x="334" y="39" on="0"/>
        <pt x="369" y="38" on="1"/>
        <pt x="369" y="0" on="1"/>
        <pt x="45" y="0" on="1"/>
        <pt x="45" y="38" on="1"/>
        <pt x="80" y="39" on="0"/>
        <pt x="123" y="50" on="0"/>
        <pt x="147" y="80" on="0"/>
        <pt x="155" y="135" on="0"/>
        <pt x="155" y="182" on="1"/>
        <pt x="155" y="588" on="1"/>
        <pt x="155" y="630" on="0"/>
        <pt x="148" y="685" on="0"/>
        <pt x="127" y="717" on="0"/>
        <pt x="87" y="730" on="0"/>
        <pt x="55" y="732" on="1"/>
        <pt x="55" y="770" on="1"/>
        <pt x="359" y="770" on="1"/>
        <pt x="359" y="732" on="1"/>
        <pt x="327" y="731" on="0"/>
        <pt x="288" y="717" on="0"/>
        <pt x="267" y="684" on="0"/>
        <pt x="260" y="626" on="0"/>
        <pt x="260" y="581" on="1"/>
      </contour>
      <contour>
        <pt x="560" y="618" on="1"/>
        <pt x="560" y="653" on="0"/>
        <pt x="553" y="696" on="0"/>
        <pt x="532" y="721" on="0"/>
        <pt x="492" y="730" on="0"/>
        <pt x="460" y="732" on="1"/>
        <pt x="460" y="770" on="1"/>
        <pt x="764" y="770" on="1"/>
        <pt x="764" y="732" on="1"/>
        <pt x="732" y="731" on="0"/>
        <pt x="693" y="721" on="0"/>
        <pt x="672" y="695" on="0"/>
        <pt x="665" y="649" on="0"/>
        <pt x="665" y="611" on="1"/>
        <pt x="665" y="-2" on="1"/>
        <pt x="665" y="-128" on="0"/>
        <pt x="559" y="-260" on="0"/>
        <pt x="457" y="-260" on="1"/>
        <pt x="388" y="-260" on="0"/>
        <pt x="305" y="-207" on="0"/>
        <pt x="305" y="-163" on="1"/>
        <pt x="305" y="-137" on="0"/>
        <pt x="332" y="-110" on="0"/>
        <pt x="356" y="-110" on="1"/>
        <pt x="375" y="-110" on="0"/>
        <pt x="398" y="-129" on="0"/>
        <pt x="413" y="-157" on="1"/>
        <pt x="430" y="-189" on="0"/>
        <pt x="455" y="-212" on="0"/>
        <pt x="475" y="-212" on="1"/>
        <pt x="516" y="-212" on="0"/>
        <pt x="560" y="-124" on="0"/>
        <pt x="560" y="-43" on="1"/>
      </contour>
    </TTGlyph>
    <TTGlyph name="Iacute" xMin="45" yMin="0" xMax="369" yMax="960">
      <contour>
        <pt x="260" y="189" on="1"/>
        <pt x="260" y="139" on="0"/>
        <pt x="268" y="81" on="0"/>
        <pt x="291" y="49" on="0"/>
        <pt x="334" y="39" on="0"/>
        <pt x="369" y="38" on="1"/>
        <pt x="369" y="0" on="1"/>
        <pt x="45" y="0" on="1"/>
        <pt x="45" y="38" on="1"/>
        <pt x="80" y="39" on="0"/>
        <pt x="123" y="50" on="0"/>
        <pt x="147" y="80" on="0"/>
        <pt x="155" y="135" on="0"/>
        <pt x="155" y="182" on="1"/>
        <pt x="155" y="588" on="1"/>
        <pt x="155" y="630" on="0"/>
        <pt x="148" y="685" on="0"/>
        <pt x="127" y="717" on="0"/>
        <pt x="87" y="730" on="0"/>
        <pt x="55" y="732" on="1"/>
        <pt x="55" y="770" on="1"/>
        <pt x="359" y="770" on="1"/>
        <pt x="359" y="732" on="1"/>
        <pt x="327" y="731" on="0"/>
        <pt x="288" y="717" on="0"/>
        <pt x="267" y="684" on="0"/>
        <pt x="260" y="626" on="0"/>
        <pt x="260" y="581" on="1"/>
      </contour>
      <contour>
        <pt x="106" y="850" on="1"/>
        <pt x="236" y="927" on="1"/>
        <pt x="264" y="944" on="0"/>
        <pt x="303" y="960" on="0"/>
        <pt x="323" y="960" on="1"/>
        <pt x="340" y="960" on="0"/>
        <pt x="361" y="942" on="0"/>
        <pt x="361" y="925" on="1"/>
        <pt x="361" y="909" on="0"/>
        <pt x="320" y="886" on="0"/>
        <pt x="286" y="878" on="1"/>
        <pt x="166" y="850" on="1"/>
      </contour>
    </TTGlyph>
    <TTGlyph name="Ibreve" xMin="45" yMin="0" xMax="369" yMax="960">
      <contour>
        <pt x="260" y="189" on="1"/>
        <pt x="260" y="139" on="0"/>
        <pt x="268" y="81" on="0"/>
        <pt x="291" y="49" on="0"/>
        <pt x="334" y="39" on="0"/>
        <pt x="369" y="38" on="1"/>
        <pt x="369" y="0" on="1"/>
        <pt x="45" y="0" on="1"/>
        <pt x="45" y="38" on="1"/>
        <pt x="80" y="39" on="0"/>
        <pt x="123" y="50" on="0"/>
        <pt x="147" y="80" on="0"/>
        <pt x="155" y="135" on="0"/>
        <pt x="155" y="182" on="1"/>
        <pt x="155" y="588" on="1"/>
        <pt x="155" y="630" on="0"/>
        <pt x="148" y="685" on="0"/>
        <pt x="127" y="717" on="0"/>
        <pt x="87" y="730" on="0"/>
        <pt x="55" y="732" on="1"/>
        <pt x="55" y="770" on="1"/>
        <pt x="359" y="770" on="1"/>
        <pt x="359" y="732" on="1"/>
        <pt x="327" y="731" on="0"/>
        <pt x="288" y="717" on="0"/>
        <pt x="267" y="684" on="0"/>
        <pt x="260" y="626" on="0"/>
        <pt x="260" y="581" on="1"/>
      </contour>
      <contour>
        <pt x="344" y="960" on="1"/>
        <pt x="340" y="909" on="0"/>
        <pt x="263" y="845" on="0"/>
        <pt x="206" y="845" on="1"/>
        <pt x="177" y="845" on="0"/>
        <pt x="128" y="862" on="0"/>
        <pt x="91" y="893" on="0"/>
        <pt x="69" y="935" on="0"/>
        <pt x="68" y="960" on="1"/>
        <pt x="104" y="960" on="1"/>
        <pt x="112" y="939" on="0"/>
        <pt x="167" y="914" on="0"/>
        <pt x="205" y="914" on="1"/>
        <pt x="243" y="914" on="0"/>
        <pt x="299" y="939" on="0"/>
        <pt x="307" y="960" on="1"/>
      </contour>
    </TTGlyph>
    <TTGlyph name="Icircumflex" xMin="42" yMin="0" xMax="370" yMax="960">
      <contour>
        <pt x="260" y="189" on="1"/>
        <pt x="260" y="139" on="0"/>
        <pt x="268" y="81" on="0"/>
        <pt x="291" y="49" on="0"/>
        <pt x="334" y="39" on="0"/>
        <pt x="369" y="38" on="1"/>
        <pt x="369" y="0" on="1"/>
        <pt x="45" y="0" on="1"/>
        <pt x="45" y="38" on="1"/>
        <pt x="80" y="39" on="0"/>
        <pt x="123" y="50" on="0"/>
        <pt x="147" y="80" on="0"/>
        <pt x="155" y="135" on="0"/>
        <pt x="155" y="182" on="1"/>
        <pt x="155" y="588" on="1"/>
        <pt x="155" y="630" on="0"/>
        <pt x="148" y="685" on="0"/>
        <pt x="127" y="717" on="0"/>
        <pt x="87" y="730" on="0"/>
        <pt x="55" y="732" on="1"/>
        <pt x="55" y="770" on="1"/>
        <pt x="359" y="770" on="1"/>
        <pt x="359" y="732" on="1"/>
        <pt x="327" y="731" on="0"/>
        <pt x="288" y="717" on="0"/>
        <pt x="267" y="684" on="0"/>
        <pt x="260" y="626" on="0"/>
        <pt x="260" y="581" on="1"/>
      </contour>
      <contour>
        <pt x="261" y="960" on="1"/>
        <pt x="370" y="851" on="1"/>
        <pt x="325" y="851" on="1"/>
        <pt x="206" y="905" on="1"/>
        <pt x="87" y="851" on="1"/>
        <pt x="42" y="851" on="1"/>
        <pt x="151" y="960" on="1"/>
      </contour>
    </TTGlyph>
    <TTGlyph name="Idieresis" xMin="45" yMin="0" xMax="369" yMax="960">
      <contour>
        <pt x="260" y="189" on="1"/>
        <pt x="260" y="139" on="0"/>
        <pt x="268" y="81" on="0"/>
        <pt x="291" y="49" on="0"/>
        <pt x="334" y="39" on="0"/>
        <pt x="369" y="38" on="1"/>
        <pt x="369" y="0" on="1"/>
        <pt x="45" y="0" on="1"/>
        <pt x="45" y="38" on="1"/>
        <pt x="80" y="39" on="0"/>
        <pt x="123" y="50" on="0"/>
        <pt x="147" y="80" on="0"/>
        <pt x="155" y="135" on="0"/>
        <pt x="155" y="182" on="1"/>
        <pt x="155" y="588" on="1"/>
        <pt x="155" y="630" on="0"/>
        <pt x="148" y="685" on="0"/>
        <pt x="127" y="717" on="0"/>
        <pt x="87" y="730" on="0"/>
        <pt x="55" y="732" on="1"/>
        <pt x="55" y="770" on="1"/>
        <pt x="359" y="770" on="1"/>
        <pt x="359" y="732" on="1"/>
        <pt x="327" y="731" on="0"/>
        <pt x="288" y="717" on="0"/>
        <pt x="267" y="684" on="0"/>
        <pt x="260" y="626" on="0"/>
        <pt x="260" y="581" on="1"/>
      </contour>
      <contour>
        <pt x="67" y="910" on="1"/>
        <pt x="67" y="931" on="0"/>
        <pt x="96" y="960" on="0"/>
        <pt x="117" y="960" on="1"/>
        <pt x="139" y="960" on="0"/>
        <pt x="168" y="931" on="0"/>
        <pt x="168" y="910" on="1"/>
        <pt x="168" y="888" on="0"/>
        <pt x="139" y="859" on="0"/>
        <pt x="117" y="859" on="1"/>
        <pt x="96" y="859" on="0"/>
        <pt x="67" y="888" on="0"/>
      </contour>
      <contour>
        <pt x="249" y="910" on="1"/>
        <pt x="249" y="931" on="0"/>
        <pt x="278" y="960" on="0"/>
        <pt x="300" y="960" on="1"/>
        <pt x="321" y="960" on="0"/>
        <pt x="350" y="931" on="0"/>
        <pt x="350" y="910" on="1"/>
        <pt x="350" y="888" on="0"/>
        <pt x="321" y="859" on="0"/>
        <pt x="300" y="859" on="1"/>
        <pt x="278" y="859" on="0"/>
        <pt x="249" y="888" on="0"/>
      </contour>
    </TTGlyph>
    <TTGlyph name="Idotaccent" xMin="45" yMin="0" xMax="369" yMax="959">
      <contour>
        <pt x="260" y="189" on="1"/>
        <pt x="260" y="139" on="0"/>
        <pt x="268" y="81" on="0"/>
        <pt x="291" y="49" on="0"/>
        <pt x="334" y="39" on="0"/>
        <pt x="369" y="38" on="1"/>
        <pt x="369" y="0" on="1"/>
        <pt x="45" y="0" on="1"/>
        <pt x="45" y="38" on="1"/>
        <pt x="80" y="39" on="0"/>
        <pt x="123" y="50" on="0"/>
        <pt x="147" y="80" on="0"/>
        <pt x="155" y="135" on="0"/>
        <pt x="155" y="182" on="1"/>
        <pt x="155" y="588" on="1"/>
        <pt x="155" y="630" on="0"/>
        <pt x="148" y="685" on="0"/>
        <pt x="127" y="717" on="0"/>
        <pt x="87" y="730" on="0"/>
        <pt x="55" y="732" on="1"/>
        <pt x="55" y="770" on="1"/>
        <pt x="359" y="770" on="1"/>
        <pt x="359" y="732" on="1"/>
        <pt x="327" y="731" on="0"/>
        <pt x="288" y="717" on="0"/>
        <pt x="267" y="684" on="0"/>
        <pt x="260" y="626" on="0"/>
        <pt x="260" y="581" on="1"/>
      </contour>
      <contour>
        <pt x="155" y="904" on="1"/>
        <pt x="155" y="927" on="0"/>
        <pt x="186" y="959" on="0"/>
        <pt x="207" y="959" on="1"/>
        <pt x="230" y="959" on="0"/>
        <pt x="262" y="927" on="0"/>
        <pt x="262" y="904" on="1"/>
        <pt x="262" y="883" on="0"/>
        <pt x="230" y="852" on="0"/>
        <pt x="207" y="852" on="1"/>
        <pt x="186" y="852" on="0"/>
        <pt x="155" y="883" on="0"/>
      </contour>
    </TTGlyph>
    <TTGlyph name="Idotbelow" xMin="45" yMin="-230" xMax="369" yMax="770">
      <contour>
        <pt x="260" y="189" on="1"/>
        <pt x="260" y="139" on="0"/>
        <pt x="268" y="81" on="0"/>
        <pt x="291" y="49" on="0"/>
        <pt x="334" y="39" on="0"/>
        <pt x="369" y="38" on="1"/>
        <pt x="369" y="0" on="1"/>
        <pt x="45" y="0" on="1"/>
        <pt x="45" y="38" on="1"/>
        <pt x="80" y="39" on="0"/>
        <pt x="123" y="50" on="0"/>
        <pt x="147" y="80" on="0"/>
        <pt x="155" y="135" on="0"/>
        <pt x="155" y="182" on="1"/>
        <pt x="155" y="588" on="1"/>
        <pt x="155" y="630" on="0"/>
        <pt x="148" y="685" on="0"/>
        <pt x="127" y="717" on="0"/>
        <pt x="87" y="730" on="0"/>
        <pt x="55" y="732" on="1"/>
        <pt x="55" y="770" on="1"/>
        <pt x="359" y="770" on="1"/>
        <pt x="359" y="732" on="1"/>
        <pt x="327" y="731" on="0"/>
        <pt x="288" y="717" on="0"/>
        <pt x="267" y="684" on="0"/>
        <pt x="260" y="626" on="0"/>
        <pt x="260" y="581" on="1"/>
      </contour>
      <contour>
        <pt x="144" y="-168" on="1"/>
        <pt x="144" y="-142" on="0"/>
        <pt x="180" y="-106" on="0"/>
        <pt x="206" y="-106" on="1"/>
        <pt x="232" y="-106" on="0"/>
        <pt x="268" y="-142" on="0"/>
        <pt x="268" y="-168" on="1"/>
        <pt x="268" y="-194" on="0"/>
        <pt x="232" y="-230" on="0"/>
        <pt x="206" y="-230" on="1"/>
        <pt x="180" y="-230" on="0"/>
        <pt x="144" y="-194" on="0"/>
      </contour>
    </TTGlyph>
    <TTGlyph name="Igrave" xMin="45" yMin="0" xMax="369" yMax="960">
      <contour>
        <pt x="260" y="189" on="1"/>
        <pt x="260" y="139" on="0"/>
        <pt x="268" y="81" on="0"/>
        <pt x="291" y="49" on="0"/>
        <pt x="334" y="39" on="0"/>
        <pt x="369" y="38" on="1"/>
        <pt x="369" y="0" on="1"/>
        <pt x="45" y="0" on="1"/>
        <pt x="45" y="38" on="1"/>
        <pt x="80" y="39" on="0"/>
        <pt x="123" y="50" on="0"/>
        <pt x="147" y="80" on="0"/>
        <pt x="155" y="135" on="0"/>
        <pt x="155" y="182" on="1"/>
        <pt x="155" y="588" on="1"/>
        <pt x="155" y="630" on="0"/>
        <pt x="148" y="685" on="0"/>
        <pt x="127" y="717" on="0"/>
        <pt x="87" y="730" on="0"/>
        <pt x="55" y="732" on="1"/>
        <pt x="55" y="770" on="1"/>
        <pt x="359" y="770" on="1"/>
        <pt x="359" y="732" on="1"/>
        <pt x="327" y="731" on="0"/>
        <pt x="288" y="717" on="0"/>
        <pt x="267" y="684" on="0"/>
        <pt x="260" y="626" on="0"/>
        <pt x="260" y="581" on="1"/>
      </contour>
      <contour>
        <pt x="252" y="850" on="1"/>
        <pt x="132" y="878" on="1"/>
        <pt x="98" y="886" on="0"/>
        <pt x="57" y="909" on="0"/>
        <pt x="57" y="925" on="1"/>
        <pt x="57" y="942" on="0"/>
        <pt x="78" y="960" on="0"/>
        <pt x="95" y="960" on="1"/>
        <pt x="115" y="960" on="0"/>
        <pt x="154" y="944" on="0"/>
        <pt x="182" y="927" on="1"/>
        <pt x="312" y="850" on="1"/>
      </contour>
    </TTGlyph>
    <TTGlyph name="Imacron" xMin="45" yMin="0" xMax="369" yMax="930">
      <contour>
        <pt x="260" y="189" on="1"/>
        <pt x="260" y="139" on="0"/>
        <pt x="268" y="81" on="0"/>
        <pt x="291" y="49" on="0"/>
        <pt x="334" y="39" on="0"/>
        <pt x="369" y="38" on="1"/>
        <pt x="369" y="0" on="1"/>
        <pt x="45" y="0" on="1"/>
        <pt x="45" y="38" on="1"/>
        <pt x="80" y="39" on="0"/>
        <pt x="123" y="50" on="0"/>
        <pt x="147" y="80" on="0"/>
        <pt x="155" y="135" on="0"/>
        <pt x="155" y="182" on="1"/>
        <pt x="155" y="588" on="1"/>
        <pt x="155" y="630" on="0"/>
        <pt x="148" y="685" on="0"/>
        <pt x="127" y="717" on="0"/>
        <pt x="87" y="730" on="0"/>
        <pt x="55" y="732" on="1"/>
        <pt x="55" y="770" on="1"/>
        <pt x="359" y="770" on="1"/>
        <pt x="359" y="732" on="1"/>
        <pt x="327" y="731" on="0"/>
        <pt x="288" y="717" on="0"/>
        <pt x="267" y="684" on="0"/>
        <pt x="260" y="626" on="0"/>
        <pt x="260" y="581" on="1"/>
      </contour>
      <contour>
        <pt x="71" y="880" on="1"/>
        <pt x="71" y="930" on="1"/>
        <pt x="341" y="930" on="1"/>
        <pt x="341" y="880" on="1"/>
      </contour>
    </TTGlyph>
    <TTGlyph name="Iogonek" xMin="45" yMin="-234" xMax="369" yMax="770">
      <contour>
        <pt x="312" y="-152" on="1"/>
        <pt x="277" y="-198" on="0"/>
        <pt x="199" y="-234" on="0"/>
        <pt x="155" y="-234" on="1"/>
        <pt x="109" y="-234" on="0"/>
        <pt x="58" y="-189" on="0"/>
        <pt x="58" y="-149" on="1"/>
        <pt x="58" y="-106" on="0"/>
        <pt x="122" y="-28" on="0"/>
        <pt x="181" y="0" on="1"/>
        <pt x="45" y="0" on="1"/>
        <pt x="45" y="38" on="1"/>
        <pt x="80" y="39" on="0"/>
        <pt x="123" y="50" on="0"/>
        <pt x="147" y="80" on="0"/>
        <pt x="155" y="135" on="0"/>
        <pt x="155" y="182" on="1"/>
        <pt x="155" y="588" on="1"/>
        <pt x="155" y="630" on="0"/>
        <pt x="148" y="685" on="0"/>
        <pt x="127" y="717" on="0"/>
        <pt x="87" y="730" on="0"/>
        <pt x="55" y="732" on="1"/>
        <pt x="55" y="770" on="1"/>
        <pt x="359" y="770" on="1"/>
        <pt x="359" y="732" on="1"/>
        <pt x="327" y="731" on="0"/>
        <pt x="288" y="717" on="0"/>
        <pt x="267" y="684" on="0"/>
        <pt x="260" y="626" on="0"/>
        <pt x="260" y="581" on="1"/>
        <pt x="260" y="189" on="1"/>
        <pt x="260" y="139" on="0"/>
        <pt x="268" y="81" on="0"/>
        <pt x="291" y="49" on="0"/>
        <pt x="334" y="39" on="0"/>
        <pt x="369" y="38" on="1"/>
        <pt x="369" y="0" on="1"/>
        <pt x="246" y="0" on="1"/>
        <pt x="197" y="-26" on="0"/>
        <pt x="137" y="-97" on="0"/>
        <pt x="137" y="-126" on="1"/>
        <pt x="137" y="-146" on="0"/>
        <pt x="164" y="-174" on="0"/>
        <pt x="188" y="-174" on="1"/>
        <pt x="207" y="-174" on="0"/>
        <pt x="257" y="-148" on="0"/>
        <pt x="283" y="-121" on="1"/>
      </contour>
    </TTGlyph>
    <TTGlyph name="Itilde" xMin="35" yMin="0" xMax="376" yMax="960">
      <contour>
        <pt x="260" y="189" on="1"/>
        <pt x="260" y="139" on="0"/>
        <pt x="268" y="81" on="0"/>
        <pt x="291" y="49" on="0"/>
        <pt x="334" y="39" on="0"/>
        <pt x="369" y="38" on="1"/>
        <pt x="369" y="0" on="1"/>
        <pt x="45" y="0" on="1"/>
        <pt x="45" y="38" on="1"/>
        <pt x="80" y="39" on="0"/>
        <pt x="123" y="50" on="0"/>
        <pt x="147" y="80" on="0"/>
        <pt x="155" y="135" on="0"/>
        <pt x="155" y="182" on="1"/>
        <pt x="155" y="588" on="1"/>
        <pt x="155" y="630" on="0"/>
        <pt x="148" y="685" on="0"/>
        <pt x="127" y="717" on="0"/>
        <pt x="87" y="730" on="0"/>
        <pt x="55" y="732" on="1"/>
        <pt x="55" y="770" on="1"/>
        <pt x="359" y="770" on="1"/>
        <pt x="359" y="732" on="1"/>
        <pt x="327" y="731" on="0"/>
        <pt x="288" y="717" on="0"/>
        <pt x="267" y="684" on="0"/>
        <pt x="260" y="626" on="0"/>
        <pt x="260" y="581" on="1"/>
      </contour>
      <contour>
        <pt x="35" y="846" on="1"/>
        <pt x="43" y="897" on="0"/>
        <pt x="102" y="960" on="0"/>
        <pt x="141" y="960" on="1"/>
        <pt x="161" y="960" on="0"/>
        <pt x="200" y="946" on="0"/>
        <pt x="239" y="928" on="0"/>
        <pt x="277" y="914" on="0"/>
        <pt x="296" y="914" on="1"/>
        <pt x="315" y="914" on="0"/>
        <pt x="335" y="933" on="0"/>
        <pt x="343" y="956" on="1"/>
        <pt x="376" y="956" on="1"/>
        <pt x="371" y="905" on="0"/>
        <pt x="314" y="838" on="0"/>
        <pt x="276" y="838" on="1"/>
        <pt x="256" y="838" on="0"/>
        <pt x="216" y="853" on="0"/>
        <pt x="175" y="871" on="0"/>
        <pt x="134" y="886" on="0"/>
        <pt x="114" y="886" on="1"/>
        <pt x="95" y="886" on="0"/>
        <pt x="76" y="869" on="0"/>
        <pt x="69" y="846" on="1"/>
      </contour>
    </TTGlyph>
    <TTGlyph name="J" xMin="-110" yMin="-260" xMax="349" yMax="770">
      <contour>
        <pt x="145" y="618" on="1"/>
        <pt x="145" y="653" on="0"/>
        <pt x="138" y="696" on="0"/>
        <pt x="117" y="721" on="0"/>
        <pt x="77" y="730" on="0"/>
        <pt x="45" y="732" on="1"/>
        <pt x="45" y="770" on="1"/>
        <pt x="349" y="770" on="1"/>
        <pt x="349" y="732" on="1"/>
        <pt x="317" y="731" on="0"/>
        <pt x="278" y="721" on="0"/>
        <pt x="257" y="695" on="0"/>
        <pt x="250" y="649" on="0"/>
        <pt x="250" y="611" on="1"/>
        <pt x="250" y="-2" on="1"/>
        <pt x="250" y="-128" on="0"/>
        <pt x="144" y="-260" on="0"/>
        <pt x="42" y="-260" on="1"/>
        <pt x="-27" y="-260" on="0"/>
        <pt x="-110" y="-207" on="0"/>
        <pt x="-110" y="-163" on="1"/>
        <pt x="-110" y="-137" on="0"/>
        <pt x="-83" y="-110" on="0"/>
        <pt x="-59" y="-110" on="1"/>
        <pt x="-40" y="-110" on="0"/>
        <pt x="-17" y="-129" on="0"/>
        <pt x="-2" y="-157" on="1"/>
        <pt x="15" y="-189" on="0"/>
        <pt x="40" y="-212" on="0"/>
        <pt x="60" y="-212" on="1"/>
        <pt x="101" y="-212" on="0"/>
        <pt x="145" y="-124" on="0"/>
        <pt x="145" y="-43" on="1"/>
      </contour>
    </TTGlyph>
    <TTGlyph name="Jcircumflex" xMin="-110" yMin="-260" xMax="363" yMax="960">
      <contour>
        <pt x="145" y="618" on="1"/>
        <pt x="145" y="653" on="0"/>
        <pt x="138" y="696" on="0"/>
        <pt x="117" y="721" on="0"/>
        <pt x="77" y="730" on="0"/>
        <pt x="45" y="732" on="1"/>
        <pt x="45" y="770" on="1"/>
        <pt x="349" y="770" on="1"/>
        <pt x="349" y="732" on="1"/>
        <pt x="317" y="731" on="0"/>
        <pt x="278" y="721" on="0"/>
        <pt x="257" y="695" on="0"/>
        <pt x="250" y="649" on="0"/>
        <pt x="250" y="611" on="1"/>
        <pt x="250" y="-2" on="1"/>
        <pt x="250" y="-128" on="0"/>
        <pt x="144" y="-260" on="0"/>
        <pt x="42" y="-260" on="1"/>
        <pt x="-27" y="-260" on="0"/>
        <pt x="-110" y="-207" on="0"/>
        <pt x="-110" y="-163" on="1"/>
        <pt x="-110" y="-137" on="0"/>
        <pt x="-83" y="-110" on="0"/>
        <pt x="-59" y="-110" on="1"/>
        <pt x="-40" y="-110" on="0"/>
        <pt x="-17" y="-129" on="0"/>
        <pt x="-2" y="-157" on="1"/>
        <pt x="15" y="-189" on="0"/>
        <pt x="40" y="-212" on="0"/>
        <pt x="60" y="-212" on="1"/>
        <pt x="101" y="-212" on="0"/>
        <pt x="145" y="-124" on="0"/>
        <pt x="145" y="-43" on="1"/>
      </contour>
      <contour>
        <pt x="254" y="960" on="1"/>
        <pt x="363" y="851" on="1"/>
        <pt x="318" y="851" on="1"/>
        <pt x="199" y="905" on="1"/>
        <pt x="80" y="851" on="1"/>
        <pt x="35" y="851" on="1"/>
        <pt x="144" y="960" on="1"/>
      </contour>
    </TTGlyph>
    <TTGlyph name="K" xMin="45" yMin="0" xMax="792" yMax="770">
      <contour>
        <pt x="260" y="159" on="1"/>
        <pt x="260" y="121" on="0"/>
        <pt x="268" y="73" on="0"/>
        <pt x="292" y="47" on="0"/>
        <pt x="334" y="38" on="0"/>
        <pt x="369" y="38" on="1"/>
        <pt x="369" y="0" on="1"/>
        <pt x="45" y="0" on="1"/>
        <pt x="45" y="38" on="1"/>
        <pt x="80" y="38" on="0"/>
        <pt x="123" y="47" on="0"/>
        <pt x="147" y="72" on="0"/>
        <pt x="155" y="117" on="0"/>
        <pt x="155" y="152" on="1"/>
        <pt x="155" y="618" on="1"/>
        <pt x="155" y="656" on="0"/>
        <pt x="146" y="701" on="0"/>
        <pt x="123" y="725" on="0"/>
        <pt x="85" y="732" on="0"/>
        <pt x="55" y="732" on="1"/>
        <pt x="55" y="770" on="1"/>
        <pt x="359" y="770" on="1"/>
        <pt x="359" y="732" on="1"/>
        <pt x="329" y="732" on="0"/>
        <pt x="291" y="724" on="0"/>
        <pt x="268" y="698" on="0"/>
        <pt x="260" y="651" on="0"/>
        <pt x="260" y="611" on="1"/>
        <pt x="260" y="364" on="1"/>
        <pt x="510" y="665" on="1"/>
        <pt x="530" y="690" on="0"/>
        <pt x="530" y="704" on="1"/>
        <pt x="530" y="732" on="0"/>
        <pt x="473" y="732" on="1"/>
        <pt x="473" y="770" on="1"/>
        <pt x="714" y="770" on="1"/>
        <pt x="714" y="733" on="1"/>
        <pt x="694" y="733" on="0"/>
        <pt x="664" y="728" on="0"/>
        <pt x="635" y="712" on="0"/>
        <pt x="603" y="682" on="0"/>
        <pt x="582" y="658" on="1"/>
        <pt x="394" y="441" on="1"/>
        <pt x="686" y="90" on="1"/>
        <pt x="711" y="61" on="0"/>
        <pt x="755" y="38" on="0"/>
        <pt x="792" y="38" on="1"/>
        <pt x="792" y="0" on="1"/>
        <pt x="485" y="0" on="1"/>
        <pt x="485" y="38" on="1"/>
        <pt x="524" y="38" on="0"/>
        <pt x="558" y="51" on="0"/>
        <pt x="558" y="65" on="1"/>
        <pt x="558" y="73" on="0"/>
        <pt x="542" y="103" on="0"/>
        <pt x="524" y="125" on="1"/>
        <pt x="329" y="365" on="1"/>
        <pt x="260" y="285" on="1"/>
      </contour>
    </TTGlyph>
    <TTGlyph name="Kcommaaccent" xMin="45" yMin="-250" xMax="792" yMax="770">
      <contour>
        <pt x="260" y="159" on="1"/>
        <pt x="260" y="121" on="0"/>
        <pt x="268" y="73" on="0"/>
        <pt x="292" y="47" on="0"/>
        <pt x="334" y="38" on="0"/>
        <pt x="369" y="38" on="1"/>
        <pt x="369" y="0" on="1"/>
        <pt x="45" y="0" on="1"/>
        <pt x="45" y="38" on="1"/>
        <pt x="80" y="38" on="0"/>
        <pt x="123" y="47" on="0"/>
        <pt x="147" y="72" on="0"/>
        <pt x="155" y="117" on="0"/>
        <pt x="155" y="152" on="1"/>
        <pt x="155" y="618" on="1"/>
        <pt x="155" y="656" on="0"/>
        <pt x="146" y="701" on="0"/>
        <pt x="123" y="725" on="0"/>
        <pt x="85" y="732" on="0"/>
        <pt x="55" y="732" on="1"/>
        <pt x="55" y="770" on="1"/>
        <pt x="359" y="770" on="1"/>
        <pt x="359" y="732" on="1"/>
        <pt x="329" y="732" on="0"/>
        <pt x="291" y="724" on="0"/>
        <pt x="268" y="698" on="0"/>
        <pt x="260" y="651" on="0"/>
        <pt x="260" y="611" on="1"/>
        <pt x="260" y="364" on="1"/>
        <pt x="510" y="665" on="1"/>
        <pt x="530" y="690" on="0"/>
        <pt x="530" y="704" on="1"/>
        <pt x="530" y="732" on="0"/>
        <pt x="473" y="732" on="1"/>
        <pt x="473" y="770" on="1"/>
        <pt x="714" y="770" on="1"/>
        <pt x="714" y="733" on="1"/>
        <pt x="694" y="733" on="0"/>
        <pt x="664" y="728" on="0"/>
        <pt x="635" y="712" on="0"/>
        <pt x="603" y="682" on="0"/>
        <pt x="582" y="658" on="1"/>
        <pt x="394" y="441" on="1"/>
        <pt x="686" y="90" on="1"/>
        <pt x="711" y="61" on="0"/>
        <pt x="755" y="38" on="0"/>
        <pt x="792" y="38" on="1"/>
        <pt x="792" y="0" on="1"/>
        <pt x="485" y="0" on="1"/>
        <pt x="485" y="38" on="1"/>
        <pt x="524" y="38" on="0"/>
        <pt x="558" y="51" on="0"/>
        <pt x="558" y="65" on="1"/>
        <pt x="558" y="73" on="0"/>
        <pt x="542" y="103" on="0"/>
        <pt x="524" y="125" on="1"/>
        <pt x="329" y="365" on="1"/>
        <pt x="260" y="285" on="1"/>
      </contour>
      <contour>
        <pt x="356" y="-224" on="1"/>
        <pt x="390" y="-205" on="0"/>
        <pt x="421" y="-168" on="0"/>
        <pt x="421" y="-146" on="1"/>
        <pt x="411" y="-154" on="0"/>
        <pt x="395" y="-154" on="1"/>
        <pt x="375" y="-154" on="0"/>
        <pt x="351" y="-128" on="0"/>
        <pt x="351" y="-107" on="1"/>
        <pt x="351" y="-84" on="0"/>
        <pt x="384" y="-54" on="0"/>
        <pt x="410" y="-54" on="1"/>
        <pt x="440" y="-54" on="0"/>
        <pt x="473" y="-95" on="0"/>
        <pt x="473" y="-133" on="1"/>
        <pt x="473" y="-165" on="0"/>
        <pt x="430" y="-222" on="0"/>
        <pt x="378" y="-250" on="1"/>
      </contour>
    </TTGlyph>
    <TTGlyph name="L" xMin="45" yMin="0" xMax="706" yMax="770">
      <contour>
        <pt x="691" y="0" on="1"/>
        <pt x="45" y="0" on="1"/>
        <pt x="45" y="38" on="1"/>
        <pt x="80" y="39" on="0"/>
        <pt x="123" y="49" on="0"/>
        <pt x="147" y="73" on="0"/>
        <pt x="155" y="117" on="0"/>
        <pt x="155" y="152" on="1"/>
        <pt x="155" y="618" on="1"/>
        <pt x="155" y="653" on="0"/>
        <pt x="148" y="696" on="0"/>
        <pt x="127" y="721" on="0"/>
        <pt x="87" y="730" on="0"/>
        <pt x="55" y="732" on="1"/>
        <pt x="55" y="770" on="1"/>
        <pt x="359" y="770" on="1"/>
        <pt x="359" y="732" on="1"/>
        <pt x="327" y="731" on="0"/>
        <pt x="288" y="721" on="0"/>
        <pt x="267" y="695" on="0"/>
        <pt x="260" y="649" on="0"/>
        <pt x="260" y="611" on="1"/>
        <pt x="260" y="180" on="1"/>
        <pt x="260" y="138" on="0"/>
        <pt x="277" y="85" on="0"/>
        <pt x="318" y="56" on="0"/>
        <pt x="386" y="45" on="0"/>
        <pt x="438" y="45" on="1"/>
        <pt x="495" y="45" on="0"/>
        <pt x="573" y="58" on="0"/>
        <pt x="626" y="91" on="0"/>
        <pt x="657" y="150" on="0"/>
        <pt x="668" y="197" on="1"/>
        <pt x="706" y="197" on="1"/>
      </contour>
    </TTGlyph>
    <TTGlyph name="Lacute" xMin="45" yMin="0" xMax="706" yMax="960">
      <contour>
        <pt x="691" y="0" on="1"/>
        <pt x="45" y="0" on="1"/>
        <pt x="45" y="38" on="1"/>
        <pt x="80" y="39" on="0"/>
        <pt x="123" y="49" on="0"/>
        <pt x="147" y="73" on="0"/>
        <pt x="155" y="117" on="0"/>
        <pt x="155" y="152" on="1"/>
        <pt x="155" y="618" on="1"/>
        <pt x="155" y="653" on="0"/>
        <pt x="148" y="696" on="0"/>
        <pt x="127" y="721" on="0"/>
        <pt x="87" y="730" on="0"/>
        <pt x="55" y="732" on="1"/>
        <pt x="55" y="770" on="1"/>
        <pt x="359" y="770" on="1"/>
        <pt x="359" y="732" on="1"/>
        <pt x="327" y="731" on="0"/>
        <pt x="288" y="721" on="0"/>
        <pt x="267" y="695" on="0"/>
        <pt x="260" y="649" on="0"/>
        <pt x="260" y="611" on="1"/>
        <pt x="260" y="180" on="1"/>
        <pt x="260" y="138" on="0"/>
        <pt x="277" y="85" on="0"/>
        <pt x="318" y="56" on="0"/>
        <pt x="386" y="45" on="0"/>
        <pt x="438" y="45" on="1"/>
        <pt x="495" y="45" on="0"/>
        <pt x="573" y="58" on="0"/>
        <pt x="626" y="91" on="0"/>
        <pt x="657" y="150" on="0"/>
        <pt x="668" y="197" on="1"/>
        <pt x="706" y="197" on="1"/>
      </contour>
      <contour>
        <pt x="106" y="850" on="1"/>
        <pt x="236" y="927" on="1"/>
        <pt x="264" y="944" on="0"/>
        <pt x="303" y="960" on="0"/>
        <pt x="323" y="960" on="1"/>
        <pt x="340" y="960" on="0"/>
        <pt x="361" y="942" on="0"/>
        <pt x="361" y="925" on="1"/>
        <pt x="361" y="909" on="0"/>
        <pt x="320" y="886" on="0"/>
        <pt x="286" y="878" on="1"/>
        <pt x="166" y="850" on="1"/>
      </contour>
    </TTGlyph>
    <TTGlyph name="Lcaron" xMin="42" yMin="0" xMax="706" yMax="960">
      <contour>
        <pt x="691" y="0" on="1"/>
        <pt x="45" y="0" on="1"/>
        <pt x="45" y="38" on="1"/>
        <pt x="80" y="39" on="0"/>
        <pt x="123" y="49" on="0"/>
        <pt x="147" y="73" on="0"/>
        <pt x="155" y="117" on="0"/>
        <pt x="155" y="152" on="1"/>
        <pt x="155" y="618" on="1"/>
        <pt x="155" y="653" on="0"/>
        <pt x="148" y="696" on="0"/>
        <pt x="127" y="721" on="0"/>
        <pt x="87" y="730" on="0"/>
        <pt x="55" y="732" on="1"/>
        <pt x="55" y="770" on="1"/>
        <pt x="359" y="770" on="1"/>
        <pt x="359" y="732" on="1"/>
        <pt x="327" y="731" on="0"/>
        <pt x="288" y="721" on="0"/>
        <pt x="267" y="695" on="0"/>
        <pt x="260" y="649" on="0"/>
        <pt x="260" y="611" on="1"/>
        <pt x="260" y="180" on="1"/>
        <pt x="260" y="138" on="0"/>
        <pt x="277" y="85" on="0"/>
        <pt x="318" y="56" on="0"/>
        <pt x="386" y="45" on="0"/>
        <pt x="438" y="45" on="1"/>
        <pt x="495" y="45" on="0"/>
        <pt x="573" y="58" on="0"/>
        <pt x="626" y="91" on="0"/>
        <pt x="657" y="150" on="0"/>
        <pt x="668" y="197" on="1"/>
        <pt x="706" y="197" on="1"/>
      </contour>
      <contour>
        <pt x="151" y="851" on="1"/>
        <pt x="42" y="960" on="1"/>
        <pt x="87" y="960" on="1"/>
        <pt x="206" y="906" on="1"/>
        <pt x="325" y="960" on="1"/>
        <pt x="370" y="960" on="1"/>
        <pt x="261" y="851" on="1"/>
      </contour>
    </TTGlyph>
    <TTGlyph name="Lcommaaccent" xMin="45" yMin="-250" xMax="706" yMax="770">
      <contour>
        <pt x="691" y="0" on="1"/>
        <pt x="45" y="0" on="1"/>
        <pt x="45" y="38" on="1"/>
        <pt x="80" y="39" on="0"/>
        <pt x="123" y="49" on="0"/>
        <pt x="147" y="73" on="0"/>
        <pt x="155" y="117" on="0"/>
        <pt x="155" y="152" on="1"/>
        <pt x="155" y="618" on="1"/>
        <pt x="155" y="653" on="0"/>
        <pt x="148" y="696" on="0"/>
        <pt x="127" y="721" on="0"/>
        <pt x="87" y="730" on="0"/>
        <pt x="55" y="732" on="1"/>
        <pt x="55" y="770" on="1"/>
        <pt x="359" y="770" on="1"/>
        <pt x="359" y="732" on="1"/>
        <pt x="327" y="731" on="0"/>
        <pt x="288" y="721" on="0"/>
        <pt x="267" y="695" on="0"/>
        <pt x="260" y="649" on="0"/>
        <pt x="260" y="611" on="1"/>
        <pt x="260" y="180" on="1"/>
        <pt x="260" y="138" on="0"/>
        <pt x="277" y="85" on="0"/>
        <pt x="318" y="56" on="0"/>
        <pt x="386" y="45" on="0"/>
        <pt x="438" y="45" on="1"/>
        <pt x="495" y="45" on="0"/>
        <pt x="573" y="58" on="0"/>
        <pt x="626" y="91" on="0"/>
        <pt x="657" y="150" on="0"/>
        <pt x="668" y="197" on="1"/>
        <pt x="706" y="197" on="1"/>
      </contour>
      <contour>
        <pt x="325" y="-224" on="1"/>
        <pt x="359" y="-205" on="0"/>
        <pt x="390" y="-168" on="0"/>
        <pt x="390" y="-146" on="1"/>
        <pt x="380" y="-154" on="0"/>
        <pt x="364" y="-154" on="1"/>
        <pt x="344" y="-154" on="0"/>
        <pt x="320" y="-128" on="0"/>
        <pt x="320" y="-107" on="1"/>
        <pt x="320" y="-84" on="0"/>
        <pt x="353" y="-54" on="0"/>
        <pt x="379" y="-54" on="1"/>
        <pt x="409" y="-54" on="0"/>
        <pt x="442" y="-95" on="0"/>
        <pt x="442" y="-133" on="1"/>
        <pt x="442" y="-165" on="0"/>
        <pt x="399" y="-222" on="0"/>
        <pt x="347" y="-250" on="1"/>
      </contour>
    </TTGlyph>
    <TTGlyph name="Ldot" xMin="45" yMin="0" xMax="706" yMax="770">
      <contour>
        <pt x="691" y="0" on="1"/>
        <pt x="45" y="0" on="1"/>
        <pt x="45" y="38" on="1"/>
        <pt x="80" y="39" on="0"/>
        <pt x="123" y="49" on="0"/>
        <pt x="147" y="73" on="0"/>
        <pt x="155" y="117" on="0"/>
        <pt x="155" y="152" on="1"/>
        <pt x="155" y="618" on="1"/>
        <pt x="155" y="653" on="0"/>
        <pt x="148" y="696" on="0"/>
        <pt x="127" y="721" on="0"/>
        <pt x="87" y="730" on="0"/>
        <pt x="55" y="732" on="1"/>
        <pt x="55" y="770" on="1"/>
        <pt x="359" y="770" on="1"/>
        <pt x="359" y="732" on="1"/>
        <pt x="327" y="731" on="0"/>
        <pt x="288" y="721" on="0"/>
        <pt x="267" y="695" on="0"/>
        <pt x="260" y="649" on="0"/>
        <pt x="260" y="611" on="1"/>
        <pt x="260" y="180" on="1"/>
        <pt x="260" y="138" on="0"/>
        <pt x="277" y="85" on="0"/>
        <pt x="318" y="56" on="0"/>
        <pt x="386" y="45" on="0"/>
        <pt x="438" y="45" on="1"/>
        <pt x="495" y="45" on="0"/>
        <pt x="573" y="58" on="0"/>
        <pt x="626" y="91" on="0"/>
        <pt x="657" y="150" on="0"/>
        <pt x="668" y="197" on="1"/>
        <pt x="706" y="197" on="1"/>
      </contour>
      <contour>
        <pt x="392" y="401" on="1"/>
        <pt x="392" y="429" on="0"/>
        <pt x="430" y="467" on="0"/>
        <pt x="457" y="467" on="1"/>
        <pt x="485" y="467" on="0"/>
        <pt x="523" y="429" on="0"/>
        <pt x="523" y="401" on="1"/>
        <pt x="523" y="374" on="0"/>
        <pt x="485" y="336" on="0"/>
        <pt x="457" y="336" on="1"/>
        <pt x="430" y="336" on="0"/>
        <pt x="392" y="374" on="0"/>
      </contour>
    </TTGlyph>
    <TTGlyph name="Lslash" xMin="46" yMin="0" xMax="707" yMax="770">
      <contour>
        <pt x="692" y="0" on="1"/>
        <pt x="46" y="0" on="1"/>
        <pt x="46" y="38" on="1"/>
        <pt x="81" y="39" on="0"/>
        <pt x="124" y="49" on="0"/>
        <pt x="148" y="73" on="0"/>
        <pt x="156" y="117" on="0"/>
        <pt x="156" y="152" on="1"/>
        <pt x="156" y="323" on="1"/>
        <pt x="66" y="267" on="1"/>
        <pt x="66" y="327" on="1"/>
        <pt x="156" y="383" on="1"/>
        <pt x="156" y="618" on="1"/>
        <pt x="156" y="653" on="0"/>
        <pt x="149" y="696" on="0"/>
        <pt x="128" y="721" on="0"/>
        <pt x="88" y="730" on="0"/>
        <pt x="56" y="732" on="1"/>
        <pt x="56" y="770" on="1"/>
        <pt x="360" y="770" on="1"/>
        <pt x="360" y="732" on="1"/>
        <pt x="328" y="731" on="0"/>
        <pt x="289" y="721" on="0"/>
        <pt x="268" y="695" on="0"/>
        <pt x="261" y="649" on="0"/>
        <pt x="261" y="611" on="1"/>
        <pt x="261" y="449" on="1"/>
        <pt x="390" y="530" on="1"/>
        <pt x="390" y="470" on="1"/>
        <pt x="261" y="389" on="1"/>
        <pt x="261" y="180" on="1"/>
        <pt x="261" y="138" on="0"/>
        <pt x="278" y="85" on="0"/>
        <pt x="319" y="56" on="0"/>
        <pt x="387" y="45" on="0"/>
        <pt x="439" y="45" on="1"/>
        <pt x="496" y="45" on="0"/>
        <pt x="574" y="58" on="0"/>
        <pt x="627" y="91" on="0"/>
        <pt x="658" y="150" on="0"/>
        <pt x="669" y="197" on="1"/>
        <pt x="707" y="197" on="1"/>
      </contour>
    </TTGlyph>
    <TTGlyph name="M" xMin="45" yMin="-10" xMax="1044" yMax="770">
      <contour>
        <pt x="550" y="179" on="1"/>
        <pt x="810" y="770" on="1"/>
        <pt x="1034" y="770" on="1"/>
        <pt x="1034" y="732" on="1"/>
        <pt x="1002" y="731" on="0"/>
        <pt x="963" y="717" on="0"/>
        <pt x="942" y="684" on="0"/>
        <pt x="935" y="626" on="0"/>
        <pt x="935" y="581" on="1"/>
        <pt x="935" y="189" on="1"/>
        <pt x="935" y="139" on="0"/>
        <pt x="943" y="81" on="0"/>
        <pt x="966" y="49" on="0"/>
        <pt x="1009" y="39" on="0"/>
        <pt x="1044" y="38" on="1"/>
        <pt x="1044" y="0" on="1"/>
        <pt x="720" y="0" on="1"/>
        <pt x="720" y="38" on="1"/>
        <pt x="755" y="39" on="0"/>
        <pt x="798" y="50" on="0"/>
        <pt x="822" y="80" on="0"/>
        <pt x="830" y="135" on="0"/>
        <pt x="830" y="182" on="1"/>
        <pt x="830" y="646" on="1"/>
        <pt x="820" y="646" on="1"/>
        <pt x="528" y="-10" on="1"/>
        <pt x="506" y="-10" on="1"/>
        <pt x="219" y="646" on="1"/>
        <pt x="215" y="646" on="1"/>
        <pt x="215" y="189" on="1"/>
        <pt x="215" y="139" on="0"/>
        <pt x="223" y="81" on="0"/>
        <pt x="246" y="49" on="0"/>
        <pt x="289" y="39" on="0"/>
        <pt x="324" y="38" on="1"/>
        <pt x="324" y="0" on="1"/>
        <pt x="45" y="0" on="1"/>
        <pt x="45" y="38" on="1"/>
        <pt x="80" y="39" on="0"/>
        <pt x="123" y="50" on="0"/>
        <pt x="147" y="80" on="0"/>
        <pt x="155" y="135" on="0"/>
        <pt x="155" y="182" on="1"/>
        <pt x="155" y="588" on="1"/>
        <pt x="155" y="630" on="0"/>
        <pt x="148" y="685" on="0"/>
        <pt x="127" y="717" on="0"/>
        <pt x="87" y="730" on="0"/>
        <pt x="55" y="732" on="1"/>
        <pt x="55" y="770" on="1"/>
        <pt x="294" y="770" on="1"/>
        <pt x="546" y="179" on="1"/>
      </contour>
    </TTGlyph>
    <TTGlyph name="N" xMin="45" yMin="-10" xMax="864" yMax="770">
      <contour>
        <pt x="694" y="-10" on="1"/>
        <pt x="219" y="616" on="1"/>
        <pt x="215" y="616" on="1"/>
        <pt x="215" y="189" on="1"/>
        <pt x="215" y="139" on="0"/>
        <pt x="222" y="81" on="0"/>
        <pt x="243" y="49" on="0"/>
        <pt x="282" y="39" on="0"/>
        <pt x="314" y="38" on="1"/>
        <pt x="314" y="0" on="1"/>
        <pt x="45" y="0" on="1"/>
        <pt x="45" y="38" on="1"/>
        <pt x="80" y="39" on="0"/>
        <pt x="123" y="50" on="0"/>
        <pt x="147" y="80" on="0"/>
        <pt x="155" y="135" on="0"/>
        <pt x="155" y="182" on="1"/>
        <pt x="155" y="588" on="1"/>
        <pt x="155" y="630" on="0"/>
        <pt x="148" y="685" on="0"/>
        <pt x="127" y="717" on="0"/>
        <pt x="87" y="730" on="0"/>
        <pt x="55" y="732" on="1"/>
        <pt x="55" y="770" on="1"/>
        <pt x="253" y="770" on="1"/>
        <pt x="690" y="187" on="1"/>
        <pt x="694" y="187" on="1"/>
        <pt x="694" y="581" on="1"/>
        <pt x="694" y="630" on="0"/>
        <pt x="687" y="689" on="0"/>
        <pt x="666" y="721" on="0"/>
        <pt x="627" y="731" on="0"/>
        <pt x="595" y="732" on="1"/>
        <pt x="595" y="770" on="1"/>
        <pt x="864" y="770" on="1"/>
        <pt x="864" y="732" on="1"/>
        <pt x="829" y="731" on="0"/>
        <pt x="786" y="720" on="0"/>
        <pt x="762" y="690" on="0"/>
        <pt x="754" y="634" on="0"/>
        <pt x="754" y="588" on="1"/>
        <pt x="754" y="-10" on="1"/>
      </contour>
    </TTGlyph>
    <TTGlyph name="Nacute" xMin="45" yMin="-10" xMax="864" yMax="960">
      <contour>
        <pt x="694" y="-10" on="1"/>
        <pt x="219" y="616" on="1"/>
        <pt x="215" y="616" on="1"/>
        <pt x="215" y="189" on="1"/>
        <pt x="215" y="139" on="0"/>
        <pt x="222" y="81" on="0"/>
        <pt x="243" y="49" on="0"/>
        <pt x="282" y="39" on="0"/>
        <pt x="314" y="38" on="1"/>
        <pt x="314" y="0" on="1"/>
        <pt x="45" y="0" on="1"/>
        <pt x="45" y="38" on="1"/>
        <pt x="80" y="39" on="0"/>
        <pt x="123" y="50" on="0"/>
        <pt x="147" y="80" on="0"/>
        <pt x="155" y="135" on="0"/>
        <pt x="155" y="182" on="1"/>
        <pt x="155" y="588" on="1"/>
        <pt x="155" y="630" on="0"/>
        <pt x="148" y="685" on="0"/>
        <pt x="127" y="717" on="0"/>
        <pt x="87" y="730" on="0"/>
        <pt x="55" y="732" on="1"/>
        <pt x="55" y="770" on="1"/>
        <pt x="253" y="770" on="1"/>
        <pt x="690" y="187" on="1"/>
        <pt x="694" y="187" on="1"/>
        <pt x="694" y="581" on="1"/>
        <pt x="694" y="630" on="0"/>
        <pt x="687" y="689" on="0"/>
        <pt x="666" y="721" on="0"/>
        <pt x="627" y="731" on="0"/>
        <pt x="595" y="732" on="1"/>
        <pt x="595" y="770" on="1"/>
        <pt x="864" y="770" on="1"/>
        <pt x="864" y="732" on="1"/>
        <pt x="829" y="731" on="0"/>
        <pt x="786" y="720" on="0"/>
        <pt x="762" y="690" on="0"/>
        <pt x="754" y="634" on="0"/>
        <pt x="754" y="588" on="1"/>
        <pt x="754" y="-10" on="1"/>
      </contour>
      <contour>
        <pt x="364" y="850" on="1"/>
        <pt x="494" y="927" on="1"/>
        <pt x="522" y="944" on="0"/>
        <pt x="561" y="960" on="0"/>
        <pt x="581" y="960" on="1"/>
        <pt x="598" y="960" on="0"/>
        <pt x="619" y="942" on="0"/>
        <pt x="619" y="925" on="1"/>
        <pt x="619" y="909" on="0"/>
        <pt x="578" y="886" on="0"/>
        <pt x="544" y="878" on="1"/>
        <pt x="424" y="850" on="1"/>
      </contour>
    </TTGlyph>
    <TTGlyph name="Ncaron" xMin="45" yMin="-10" xMax="864" yMax="960">
      <contour>
        <pt x="694" y="-10" on="1"/>
        <pt x="219" y="616" on="1"/>
        <pt x="215" y="616" on="1"/>
        <pt x="215" y="189" on="1"/>
        <pt x="215" y="139" on="0"/>
        <pt x="222" y="81" on="0"/>
        <pt x="243" y="49" on="0"/>
        <pt x="282" y="39" on="0"/>
        <pt x="314" y="38" on="1"/>
        <pt x="314" y="0" on="1"/>
        <pt x="45" y="0" on="1"/>
        <pt x="45" y="38" on="1"/>
        <pt x="80" y="39" on="0"/>
        <pt x="123" y="50" on="0"/>
        <pt x="147" y="80" on="0"/>
        <pt x="155" y="135" on="0"/>
        <pt x="155" y="182" on="1"/>
        <pt x="155" y="588" on="1"/>
        <pt x="155" y="630" on="0"/>
        <pt x="148" y="685" on="0"/>
        <pt x="127" y="717" on="0"/>
        <pt x="87" y="730" on="0"/>
        <pt x="55" y="732" on="1"/>
        <pt x="55" y="770" on="1"/>
        <pt x="253" y="770" on="1"/>
        <pt x="690" y="187" on="1"/>
        <pt x="694" y="187" on="1"/>
        <pt x="694" y="581" on="1"/>
        <pt x="694" y="630" on="0"/>
        <pt x="687" y="689" on="0"/>
        <pt x="666" y="721" on="0"/>
        <pt x="627" y="731" on="0"/>
        <pt x="595" y="732" on="1"/>
        <pt x="595" y="770" on="1"/>
        <pt x="864" y="770" on="1"/>
        <pt x="864" y="732" on="1"/>
        <pt x="829" y="731" on="0"/>
        <pt x="786" y="720" on="0"/>
        <pt x="762" y="690" on="0"/>
        <pt x="754" y="634" on="0"/>
        <pt x="754" y="588" on="1"/>
        <pt x="754" y="-10" on="1"/>
      </contour>
      <contour>
        <pt x="409" y="851" on="1"/>
        <pt x="300" y="960" on="1"/>
        <pt x="345" y="960" on="1"/>
        <pt x="464" y="906" on="1"/>
        <pt x="583" y="960" on="1"/>
        <pt x="628" y="960" on="1"/>
        <pt x="519" y="851" on="1"/>
      </contour>
    </TTGlyph>
    <TTGlyph name="Ncommaaccent" xMin="45" yMin="-250" xMax="864" yMax="770">
      <contour>
        <pt x="694" y="-10" on="1"/>
        <pt x="219" y="616" on="1"/>
        <pt x="215" y="616" on="1"/>
        <pt x="215" y="189" on="1"/>
        <pt x="215" y="139" on="0"/>
        <pt x="222" y="81" on="0"/>
        <pt x="243" y="49" on="0"/>
        <pt x="282" y="39" on="0"/>
        <pt x="314" y="38" on="1"/>
        <pt x="314" y="0" on="1"/>
        <pt x="45" y="0" on="1"/>
        <pt x="45" y="38" on="1"/>
        <pt x="80" y="39" on="0"/>
        <pt x="123" y="50" on="0"/>
        <pt x="147" y="80" on="0"/>
        <pt x="155" y="135" on="0"/>
        <pt x="155" y="182" on="1"/>
        <pt x="155" y="588" on="1"/>
        <pt x="155" y="630" on="0"/>
        <pt x="148" y="685" on="0"/>
        <pt x="127" y="717" on="0"/>
        <pt x="87" y="730" on="0"/>
        <pt x="55" y="732" on="1"/>
        <pt x="55" y="770" on="1"/>
        <pt x="253" y="770" on="1"/>
        <pt x="690" y="187" on="1"/>
        <pt x="694" y="187" on="1"/>
        <pt x="694" y="581" on="1"/>
        <pt x="694" y="630" on="0"/>
        <pt x="687" y="689" on="0"/>
        <pt x="666" y="721" on="0"/>
        <pt x="627" y="731" on="0"/>
        <pt x="595" y="732" on="1"/>
        <pt x="595" y="770" on="1"/>
        <pt x="864" y="770" on="1"/>
        <pt x="864" y="732" on="1"/>
        <pt x="829" y="731" on="0"/>
        <pt x="786" y="720" on="0"/>
        <pt x="762" y="690" on="0"/>
        <pt x="754" y="634" on="0"/>
        <pt x="754" y="588" on="1"/>
        <pt x="754" y="-10" on="1"/>
      </contour>
      <contour>
        <pt x="403" y="-224" on="1"/>
        <pt x="437" y="-205" on="0"/>
        <pt x="468" y="-168" on="0"/>
        <pt x="468" y="-146" on="1"/>
        <pt x="458" y="-154" on="0"/>
        <pt x="442" y="-154" on="1"/>
        <pt x="422" y="-154" on="0"/>
        <pt x="398" y="-128" on="0"/>
        <pt x="398" y="-107" on="1"/>
        <pt x="398" y="-84" on="0"/>
        <pt x="431" y="-54" on="0"/>
        <pt x="457" y="-54" on="1"/>
        <pt x="487" y="-54" on="0"/>
        <pt x="520" y="-95" on="0"/>
        <pt x="520" y="-133" on="1"/>
        <pt x="520" y="-165" on="0"/>
        <pt x="477" y="-222" on="0"/>
        <pt x="425" y="-250" on="1"/>
      </contour>
    </TTGlyph>
    <TTGlyph name="Ndotaccent" xMin="45" yMin="-10" xMax="864" yMax="959">
      <contour>
        <pt x="694" y="-10" on="1"/>
        <pt x="219" y="616" on="1"/>
        <pt x="215" y="616" on="1"/>
        <pt x="215" y="189" on="1"/>
        <pt x="215" y="139" on="0"/>
        <pt x="222" y="81" on="0"/>
        <pt x="243" y="49" on="0"/>
        <pt x="282" y="39" on="0"/>
        <pt x="314" y="38" on="1"/>
        <pt x="314" y="0" on="1"/>
        <pt x="45" y="0" on="1"/>
        <pt x="45" y="38" on="1"/>
        <pt x="80" y="39" on="0"/>
        <pt x="123" y="50" on="0"/>
        <pt x="147" y="80" on="0"/>
        <pt x="155" y="135" on="0"/>
        <pt x="155" y="182" on="1"/>
        <pt x="155" y="588" on="1"/>
        <pt x="155" y="630" on="0"/>
        <pt x="148" y="685" on="0"/>
        <pt x="127" y="717" on="0"/>
        <pt x="87" y="730" on="0"/>
        <pt x="55" y="732" on="1"/>
        <pt x="55" y="770" on="1"/>
        <pt x="253" y="770" on="1"/>
        <pt x="690" y="187" on="1"/>
        <pt x="694" y="187" on="1"/>
        <pt x="694" y="581" on="1"/>
        <pt x="694" y="630" on="0"/>
        <pt x="687" y="689" on="0"/>
        <pt x="666" y="721" on="0"/>
        <pt x="627" y="731" on="0"/>
        <pt x="595" y="732" on="1"/>
        <pt x="595" y="770" on="1"/>
        <pt x="864" y="770" on="1"/>
        <pt x="864" y="732" on="1"/>
        <pt x="829" y="731" on="0"/>
        <pt x="786" y="720" on="0"/>
        <pt x="762" y="690" on="0"/>
        <pt x="754" y="634" on="0"/>
        <pt x="754" y="588" on="1"/>
        <pt x="754" y="-10" on="1"/>
      </contour>
      <contour>
        <pt x="412" y="904" on="1"/>
        <pt x="412" y="927" on="0"/>
        <pt x="443" y="959" on="0"/>
        <pt x="464" y="959" on="1"/>
        <pt x="487" y="959" on="0"/>
        <pt x="519" y="927" on="0"/>
        <pt x="519" y="904" on="1"/>
        <pt x="519" y="883" on="0"/>
        <pt x="487" y="852" on="0"/>
        <pt x="464" y="852" on="1"/>
        <pt x="443" y="852" on="0"/>
        <pt x="412" y="883" on="0"/>
      </contour>
    </TTGlyph>
    <TTGlyph name="Ntilde" xMin="45" yMin="-10" xMax="864" yMax="960">
      <contour>
        <pt x="694" y="-10" on="1"/>
        <pt x="219" y="616" on="1"/>
        <pt x="215" y="616" on="1"/>
        <pt x="215" y="189" on="1"/>
        <pt x="215" y="139" on="0"/>
        <pt x="222" y="81" on="0"/>
        <pt x="243" y="49" on="0"/>
        <pt x="282" y="39" on="0"/>
        <pt x="314" y="38" on="1"/>
        <pt x="314" y="0" on="1"/>
        <pt x="45" y="0" on="1"/>
        <pt x="45" y="38" on="1"/>
        <pt x="80" y="39" on="0"/>
        <pt x="123" y="50" on="0"/>
        <pt x="147" y="80" on="0"/>
        <pt x="155" y="135" on="0"/>
        <pt x="155" y="182" on="1"/>
        <pt x="155" y="588" on="1"/>
        <pt x="155" y="630" on="0"/>
        <pt x="148" y="685" on="0"/>
        <pt x="127" y="717" on="0"/>
        <pt x="87" y="730" on="0"/>
        <pt x="55" y="732" on="1"/>
        <pt x="55" y="770" on="1"/>
        <pt x="253" y="770" on="1"/>
        <pt x="690" y="187" on="1"/>
        <pt x="694" y="187" on="1"/>
        <pt x="694" y="581" on="1"/>
        <pt x="694" y="630" on="0"/>
        <pt x="687" y="689" on="0"/>
        <pt x="666" y="721" on="0"/>
        <pt x="627" y="731" on="0"/>
        <pt x="595" y="732" on="1"/>
        <pt x="595" y="770" on="1"/>
        <pt x="864" y="770" on="1"/>
        <pt x="864" y="732" on="1"/>
        <pt x="829" y="731" on="0"/>
        <pt x="786" y="720" on="0"/>
        <pt x="762" y="690" on="0"/>
        <pt x="754" y="634" on="0"/>
        <pt x="754" y="588" on="1"/>
        <pt x="754" y="-10" on="1"/>
      </contour>
      <contour>
        <pt x="293" y="846" on="1"/>
        <pt x="301" y="897" on="0"/>
        <pt x="360" y="960" on="0"/>
        <pt x="399" y="960" on="1"/>
        <pt x="419" y="960" on="0"/>
        <pt x="458" y="946" on="0"/>
        <pt x="497" y="928" on="0"/>
        <pt x="535" y="914" on="0"/>
        <pt x="554" y="914" on="1"/>
        <pt x="573" y="914" on="0"/>
        <pt x="593" y="933" on="0"/>
        <pt x="601" y="956" on="1"/>
        <pt x="634" y="956" on="1"/>
        <pt x="629" y="905" on="0"/>
        <pt x="572" y="838" on="0"/>
        <pt x="534" y="838" on="1"/>
        <pt x="514" y="838" on="0"/>
        <pt x="474" y="853" on="0"/>
        <pt x="433" y="871" on="0"/>
        <pt x="392" y="886" on="0"/>
        <pt x="372" y="886" on="1"/>
        <pt x="353" y="886" on="0"/>
        <pt x="334" y="869" on="0"/>
        <pt x="327" y="846" on="1"/>
      </contour>
    </TTGlyph>
    <TTGlyph name="O" xMin="57" yMin="-10" xMax="889" yMax="780">
      <contour>
        <pt x="473" y="780" on="1"/>
        <pt x="561" y="780" on="0"/>
        <pt x="713" y="718" on="0"/>
        <pt x="825" y="610" on="0"/>
        <pt x="889" y="464" on="0"/>
        <pt x="889" y="379" on="1"/>
        <pt x="889" y="298" on="0"/>
        <pt x="824" y="156" on="0"/>
        <pt x="712" y="51" on="0"/>
        <pt x="560" y="-10" on="0"/>
        <pt x="473" y="-10" on="1"/>
        <pt x="386" y="-10" on="0"/>
        <pt x="234" y="51" on="0"/>
        <pt x="122" y="156" on="0"/>
        <pt x="57" y="298" on="0"/>
        <pt x="57" y="379" on="1"/>
        <pt x="57" y="464" on="0"/>
        <pt x="121" y="610" on="0"/>
        <pt x="233" y="718" on="0"/>
        <pt x="385" y="780" on="0"/>
      </contour>
      <contour>
        <pt x="473" y="45" on="1"/>
        <pt x="539" y="45" on="0"/>
        <pt x="644" y="91" on="0"/>
        <pt x="719" y="177" on="0"/>
        <pt x="759" y="300" on="0"/>
        <pt x="759" y="376" on="1"/>
        <pt x="759" y="456" on="0"/>
        <pt x="719" y="585" on="0"/>
        <pt x="645" y="676" on="0"/>
        <pt x="539" y="725" on="0"/>
        <pt x="473" y="725" on="1"/>
        <pt x="407" y="725" on="0"/>
        <pt x="301" y="676" on="0"/>
        <pt x="227" y="585" on="0"/>
        <pt x="187" y="456" on="0"/>
        <pt x="187" y="376" on="1"/>
        <pt x="187" y="300" on="0"/>
        <pt x="227" y="177" on="0"/>
        <pt x="301" y="91" on="0"/>
        <pt x="407" y="45" on="0"/>
      </contour>
    </TTGlyph>
    <TTGlyph name="OE" xMin="58" yMin="0" xMax="1107" yMax="770">
      <contour>
        <pt x="1059" y="770" on="1"/>
        <pt x="1068" y="594" on="1"/>
        <pt x="1033" y="594" on="1"/>
        <pt x="1027" y="634" on="0"/>
        <pt x="1000" y="685" on="0"/>
        <pt x="953" y="715" on="0"/>
        <pt x="881" y="727" on="0"/>
        <pt x="830" y="727" on="1"/>
        <pt x="703" y="727" on="1"/>
        <pt x="686" y="727" on="0"/>
        <pt x="686" y="710" on="1"/>
        <pt x="686" y="423" on="1"/>
        <pt x="734" y="423" on="0"/>
        <pt x="806" y="433" on="0"/>
        <pt x="852" y="458" on="0"/>
        <pt x="875" y="503" on="0"/>
        <pt x="875" y="538" on="1"/>
        <pt x="910" y="538" on="1"/>
        <pt x="910" y="265" on="1"/>
        <pt x="875" y="265" on="1"/>
        <pt x="875" y="301" on="0"/>
        <pt x="854" y="346" on="0"/>
        <pt x="809" y="372" on="0"/>
        <pt x="737" y="383" on="0"/>
        <pt x="686" y="383" on="1"/>
        <pt x="686" y="157" on="1"/>
        <pt x="686" y="124" on="0"/>
        <pt x="702" y="81" on="0"/>
        <pt x="741" y="54" on="0"/>
        <pt x="805" y="43" on="0"/>
        <pt x="852" y="43" on="1"/>
        <pt x="905" y="43" on="0"/>
        <pt x="979" y="58" on="0"/>
        <pt x="1029" y="94" on="0"/>
        <pt x="1059" y="153" on="0"/>
        <pt x="1069" y="197" on="1"/>
        <pt x="1107" y="197" on="1"/>
        <pt x="1092" y="0" on="1"/>
        <pt x="471" y="0" on="1"/>
        <pt x="384" y="0" on="0"/>
        <pt x="233" y="59" on="0"/>
        <pt x="122" y="162" on="0"/>
        <pt x="58" y="300" on="0"/>
        <pt x="58" y="379" on="1"/>
        <pt x="58" y="461" on="0"/>
        <pt x="122" y="604" on="0"/>
        <pt x="234" y="710" on="0"/>
        <pt x="386" y="770" on="0"/>
        <pt x="474" y="770" on="1"/>
      </contour>
      <contour>
        <pt x="474" y="730" on="1"/>
        <pt x="408" y="730" on="0"/>
        <pt x="302" y="681" on="0"/>
        <pt x="228" y="589" on="0"/>
        <pt x="188" y="458" on="0"/>
        <pt x="188" y="376" on="1"/>
        <pt x="188" y="299" on="0"/>
        <pt x="228" y="175" on="0"/>
        <pt x="302" y="88" on="0"/>
        <pt x="408" y="42" on="0"/>
        <pt x="474" y="42" on="1"/>
        <pt x="509" y="42" on="0"/>
        <pt x="551" y="50" on="0"/>
        <pt x="574" y="74" on="0"/>
        <pt x="581" y="117" on="0"/>
        <pt x="581" y="152" on="1"/>
        <pt x="581" y="618" on="1"/>
        <pt x="581" y="653" on="0"/>
        <pt x="572" y="697" on="0"/>
        <pt x="548" y="721" on="0"/>
        <pt x="506" y="730" on="0"/>
      </contour>
    </TTGlyph>
    <TTGlyph name="Oacute" xMin="57" yMin="-10" xMax="889" yMax="960">
      <contour>
        <pt x="473" y="780" on="1"/>
        <pt x="561" y="780" on="0"/>
        <pt x="713" y="718" on="0"/>
        <pt x="825" y="610" on="0"/>
        <pt x="889" y="464" on="0"/>
        <pt x="889" y="379" on="1"/>
        <pt x="889" y="298" on="0"/>
        <pt x="824" y="156" on="0"/>
        <pt x="712" y="51" on="0"/>
        <pt x="560" y="-10" on="0"/>
        <pt x="473" y="-10" on="1"/>
        <pt x="386" y="-10" on="0"/>
        <pt x="234" y="51" on="0"/>
        <pt x="122" y="156" on="0"/>
        <pt x="57" y="298" on="0"/>
        <pt x="57" y="379" on="1"/>
        <pt x="57" y="464" on="0"/>
        <pt x="121" y="610" on="0"/>
        <pt x="233" y="718" on="0"/>
        <pt x="385" y="780" on="0"/>
      </contour>
      <contour>
        <pt x="473" y="45" on="1"/>
        <pt x="539" y="45" on="0"/>
        <pt x="644" y="91" on="0"/>
        <pt x="719" y="177" on="0"/>
        <pt x="759" y="300" on="0"/>
        <pt x="759" y="376" on="1"/>
        <pt x="759" y="456" on="0"/>
        <pt x="719" y="585" on="0"/>
        <pt x="645" y="676" on="0"/>
        <pt x="539" y="725" on="0"/>
        <pt x="473" y="725" on="1"/>
        <pt x="407" y="725" on="0"/>
        <pt x="301" y="676" on="0"/>
        <pt x="227" y="585" on="0"/>
        <pt x="187" y="456" on="0"/>
        <pt x="187" y="376" on="1"/>
        <pt x="187" y="300" on="0"/>
        <pt x="227" y="177" on="0"/>
        <pt x="301" y="91" on="0"/>
        <pt x="407" y="45" on="0"/>
      </contour>
      <contour>
        <pt x="374" y="850" on="1"/>
        <pt x="504" y="927" on="1"/>
        <pt x="532" y="944" on="0"/>
        <pt x="571" y="960" on="0"/>
        <pt x="591" y="960" on="1"/>
        <pt x="608" y="960" on="0"/>
        <pt x="629" y="942" on="0"/>
        <pt x="629" y="925" on="1"/>
        <pt x="629" y="909" on="0"/>
        <pt x="588" y="886" on="0"/>
        <pt x="554" y="878" on="1"/>
        <pt x="434" y="850" on="1"/>
      </contour>
    </TTGlyph>
    <TTGlyph name="Obreve" xMin="57" yMin="-10" xMax="889" yMax="960">
      <contour>
        <pt x="473" y="780" on="1"/>
        <pt x="561" y="780" on="0"/>
        <pt x="713" y="718" on="0"/>
        <pt x="825" y="610" on="0"/>
        <pt x="889" y="464" on="0"/>
        <pt x="889" y="379" on="1"/>
        <pt x="889" y="298" on="0"/>
        <pt x="824" y="156" on="0"/>
        <pt x="712" y="51" on="0"/>
        <pt x="560" y="-10" on="0"/>
        <pt x="473" y="-10" on="1"/>
        <pt x="386" y="-10" on="0"/>
        <pt x="234" y="51" on="0"/>
        <pt x="122" y="156" on="0"/>
        <pt x="57" y="298" on="0"/>
        <pt x="57" y="379" on="1"/>
        <pt x="57" y="464" on="0"/>
        <pt x="121" y="610" on="0"/>
        <pt x="233" y="718" on="0"/>
        <pt x="385" y="780" on="0"/>
      </contour>
      <contour>
        <pt x="473" y="45" on="1"/>
        <pt x="539" y="45" on="0"/>
        <pt x="644" y="91" on="0"/>
        <pt x="719" y="177" on="0"/>
        <pt x="759" y="300" on="0"/>
        <pt x="759" y="376" on="1"/>
        <pt x="759" y="456" on="0"/>
        <pt x="719" y="585" on="0"/>
        <pt x="645" y="676" on="0"/>
        <pt x="539" y="725" on="0"/>
        <pt x="473" y="725" on="1"/>
        <pt x="407" y="725" on="0"/>
        <pt x="301" y="676" on="0"/>
        <pt x="227" y="585" on="0"/>
        <pt x="187" y="456" on="0"/>
        <pt x="187" y="376" on="1"/>
        <pt x="187" y="300" on="0"/>
        <pt x="227" y="177" on="0"/>
        <pt x="301" y="91" on="0"/>
        <pt x="407" y="45" on="0"/>
      </contour>
      <contour>
        <pt x="612" y="960" on="1"/>
        <pt x="608" y="909" on="0"/>
        <pt x="531" y="845" on="0"/>
        <pt x="474" y="845" on="1"/>
        <pt x="445" y="845" on="0"/>
        <pt x="396" y="862" on="0"/>
        <pt x="359" y="893" on="0"/>
        <pt x="337" y="935" on="0"/>
        <pt x="336" y="960" on="1"/>
        <pt x="372" y="960" on="1"/>
        <pt x="380" y="939" on="0"/>
        <pt x="435" y="914" on="0"/>
        <pt x="473" y="914" on="1"/>
        <pt x="511" y="914" on="0"/>
        <pt x="567" y="939" on="0"/>
        <pt x="575" y="960" on="1"/>
      </contour>
    </TTGlyph>
    <TTGlyph name="Ocircumflex" xMin="57" yMin="-10" xMax="889" yMax="960">
      <contour>
        <pt x="473" y="780" on="1"/>
        <pt x="561" y="780" on="0"/>
        <pt x="713" y="718" on="0"/>
        <pt x="825" y="610" on="0"/>
        <pt x="889" y="464" on="0"/>
        <pt x="889" y="379" on="1"/>
        <pt x="889" y="298" on="0"/>
        <pt x="824" y="156" on="0"/>
        <pt x="712" y="51" on="0"/>
        <pt x="560" y="-10" on="0"/>
        <pt x="473" y="-10" on="1"/>
        <pt x="386" y="-10" on="0"/>
        <pt x="234" y="51" on="0"/>
        <pt x="122" y="156" on="0"/>
        <pt x="57" y="298" on="0"/>
        <pt x="57" y="379" on="1"/>
        <pt x="57" y="464" on="0"/>
        <pt x="121" y="610" on="0"/>
        <pt x="233" y="718" on="0"/>
        <pt x="385" y="780" on="0"/>
      </contour>
      <contour>
        <pt x="473" y="45" on="1"/>
        <pt x="539" y="45" on="0"/>
        <pt x="644" y="91" on="0"/>
        <pt x="719" y="177" on="0"/>
        <pt x="759" y="300" on="0"/>
        <pt x="759" y="376" on="1"/>
        <pt x="759" y="456" on="0"/>
        <pt x="719" y="585" on="0"/>
        <pt x="645" y="676" on="0"/>
        <pt x="539" y="725" on="0"/>
        <pt x="473" y="725" on="1"/>
        <pt x="407" y="725" on="0"/>
        <pt x="301" y="676" on="0"/>
        <pt x="227" y="585" on="0"/>
        <pt x="187" y="456" on="0"/>
        <pt x="187" y="376" on="1"/>
        <pt x="187" y="300" on="0"/>
        <pt x="227" y="177" on="0"/>
        <pt x="301" y="91" on="0"/>
        <pt x="407" y="45" on="0"/>
      </contour>
      <contour>
        <pt x="529" y="960" on="1"/>
        <pt x="638" y="851" on="1"/>
        <pt x="593" y="851" on="1"/>
        <pt x="474" y="905" on="1"/>
        <pt x="355" y="851" on="1"/>
        <pt x="310" y="851" on="1"/>
        <pt x="419" y="960" on="1"/>
      </contour>
    </TTGlyph>
    <TTGlyph name="Odieresis" xMin="57" yMin="-10" xMax="889" yMax="960">
      <contour>
        <pt x="473" y="780" on="1"/>
        <pt x="561" y="780" on="0"/>
        <pt x="713" y="718" on="0"/>
        <pt x="825" y="610" on="0"/>
        <pt x="889" y="464" on="0"/>
        <pt x="889" y="379" on="1"/>
        <pt x="889" y="298" on="0"/>
        <pt x="824" y="156" on="0"/>
        <pt x="712" y="51" on="0"/>
        <pt x="560" y="-10" on="0"/>
        <pt x="473" y="-10" on="1"/>
        <pt x="386" y="-10" on="0"/>
        <pt x="234" y="51" on="0"/>
        <pt x="122" y="156" on="0"/>
        <pt x="57" y="298" on="0"/>
        <pt x="57" y="379" on="1"/>
        <pt x="57" y="464" on="0"/>
        <pt x="121" y="610" on="0"/>
        <pt x="233" y="718" on="0"/>
        <pt x="385" y="780" on="0"/>
      </contour>
      <contour>
        <pt x="473" y="45" on="1"/>
        <pt x="539" y="45" on="0"/>
        <pt x="644" y="91" on="0"/>
        <pt x="719" y="177" on="0"/>
        <pt x="759" y="300" on="0"/>
        <pt x="759" y="376" on="1"/>
        <pt x="759" y="456" on="0"/>
        <pt x="719" y="585" on="0"/>
        <pt x="645" y="676" on="0"/>
        <pt x="539" y="725" on="0"/>
        <pt x="473" y="725" on="1"/>
        <pt x="407" y="725" on="0"/>
        <pt x="301" y="676" on="0"/>
        <pt x="227" y="585" on="0"/>
        <pt x="187" y="456" on="0"/>
        <pt x="187" y="376" on="1"/>
        <pt x="187" y="300" on="0"/>
        <pt x="227" y="177" on="0"/>
        <pt x="301" y="91" on="0"/>
        <pt x="407" y="45" on="0"/>
      </contour>
      <contour>
        <pt x="333" y="910" on="1"/>
        <pt x="333" y="931" on="0"/>
        <pt x="362" y="960" on="0"/>
        <pt x="383" y="960" on="1"/>
        <pt x="405" y="960" on="0"/>
        <pt x="434" y="931" on="0"/>
        <pt x="434" y="910" on="1"/>
        <pt x="434" y="888" on="0"/>
        <pt x="405" y="859" on="0"/>
        <pt x="383" y="859" on="1"/>
        <pt x="362" y="859" on="0"/>
        <pt x="333" y="888" on="0"/>
      </contour>
      <contour>
        <pt x="515" y="910" on="1"/>
        <pt x="515" y="931" on="0"/>
        <pt x="544" y="960" on="0"/>
        <pt x="566" y="960" on="1"/>
        <pt x="587" y="960" on="0"/>
        <pt x="616" y="931" on="0"/>
        <pt x="616" y="910" on="1"/>
        <pt x="616" y="888" on="0"/>
        <pt x="587" y="859" on="0"/>
        <pt x="566" y="859" on="1"/>
        <pt x="544" y="859" on="0"/>
        <pt x="515" y="888" on="0"/>
      </contour>
    </TTGlyph>
    <TTGlyph name="Odotbelow" xMin="57" yMin="-230" xMax="889" yMax="780">
      <contour>
        <pt x="473" y="780" on="1"/>
        <pt x="561" y="780" on="0"/>
        <pt x="713" y="718" on="0"/>
        <pt x="825" y="610" on="0"/>
        <pt x="889" y="464" on="0"/>
        <pt x="889" y="379" on="1"/>
        <pt x="889" y="298" on="0"/>
        <pt x="824" y="156" on="0"/>
        <pt x="712" y="51" on="0"/>
        <pt x="560" y="-10" on="0"/>
        <pt x="473" y="-10" on="1"/>
        <pt x="386" y="-10" on="0"/>
        <pt x="234" y="51" on="0"/>
        <pt x="122" y="156" on="0"/>
        <pt x="57" y="298" on="0"/>
        <pt x="57" y="379" on="1"/>
        <pt x="57" y="464" on="0"/>
        <pt x="121" y="610" on="0"/>
        <pt x="233" y="718" on="0"/>
        <pt x="385" y="780" on="0"/>
      </contour>
      <contour>
        <pt x="473" y="45" on="1"/>
        <pt x="539" y="45" on="0"/>
        <pt x="644" y="91" on="0"/>
        <pt x="719" y="177" on="0"/>
        <pt x="759" y="300" on="0"/>
        <pt x="759" y="376" on="1"/>
        <pt x="759" y="456" on="0"/>
        <pt x="719" y="585" on="0"/>
        <pt x="645" y="676" on="0"/>
        <pt x="539" y="725" on="0"/>
        <pt x="473" y="725" on="1"/>
        <pt x="407" y="725" on="0"/>
        <pt x="301" y="676" on="0"/>
        <pt x="227" y="585" on="0"/>
        <pt x="187" y="456" on="0"/>
        <pt x="187" y="376" on="1"/>
        <pt x="187" y="300" on="0"/>
        <pt x="227" y="177" on="0"/>
        <pt x="301" y="91" on="0"/>
        <pt x="407" y="45" on="0"/>
      </contour>
      <contour>
        <pt x="412" y="-168" on="1"/>
        <pt x="412" y="-142" on="0"/>
        <pt x="448" y="-106" on="0"/>
        <pt x="474" y="-106" on="1"/>
        <pt x="500" y="-106" on="0"/>
        <pt x="536" y="-142" on="0"/>
        <pt x="536" y="-168" on="1"/>
        <pt x="536" y="-194" on="0"/>
        <pt x="500" y="-230" on="0"/>
        <pt x="474" y="-230" on="1"/>
        <pt x="448" y="-230" on="0"/>
        <pt x="412" y="-194" on="0"/>
      </contour>
    </TTGlyph>
    <TTGlyph name="Ograve" xMin="57" yMin="-10" xMax="889" yMax="960">
      <contour>
        <pt x="473" y="780" on="1"/>
        <pt x="561" y="780" on="0"/>
        <pt x="713" y="718" on="0"/>
        <pt x="825" y="610" on="0"/>
        <pt x="889" y="464" on="0"/>
        <pt x="889" y="379" on="1"/>
        <pt x="889" y="298" on="0"/>
        <pt x="824" y="156" on="0"/>
        <pt x="712" y="51" on="0"/>
        <pt x="560" y="-10" on="0"/>
        <pt x="473" y="-10" on="1"/>
        <pt x="386" y="-10" on="0"/>
        <pt x="234" y="51" on="0"/>
        <pt x="122" y="156" on="0"/>
        <pt x="57" y="298" on="0"/>
        <pt x="57" y="379" on="1"/>
        <pt x="57" y="464" on="0"/>
        <pt x="121" y="610" on="0"/>
        <pt x="233" y="718" on="0"/>
        <pt x="385" y="780" on="0"/>
      </contour>
      <contour>
        <pt x="473" y="45" on="1"/>
        <pt x="539" y="45" on="0"/>
        <pt x="644" y="91" on="0"/>
        <pt x="719" y="177" on="0"/>
        <pt x="759" y="300" on="0"/>
        <pt x="759" y="376" on="1"/>
        <pt x="759" y="456" on="0"/>
        <pt x="719" y="585" on="0"/>
        <pt x="645" y="676" on="0"/>
        <pt x="539" y="725" on="0"/>
        <pt x="473" y="725" on="1"/>
        <pt x="407" y="725" on="0"/>
        <pt x="301" y="676" on="0"/>
        <pt x="227" y="585" on="0"/>
        <pt x="187" y="456" on="0"/>
        <pt x="187" y="376" on="1"/>
        <pt x="187" y="300" on="0"/>
        <pt x="227" y="177" on="0"/>
        <pt x="301" y="91" on="0"/>
        <pt x="407" y="45" on="0"/>
      </contour>
      <contour>
        <pt x="520" y="850" on="1"/>
        <pt x="400" y="878" on="1"/>
        <pt x="366" y="886" on="0"/>
        <pt x="325" y="909" on="0"/>
        <pt x="325" y="925" on="1"/>
        <pt x="325" y="942" on="0"/>
        <pt x="346" y="960" on="0"/>
        <pt x="363" y="960" on="1"/>
        <pt x="383" y="960" on="0"/>
        <pt x="422" y="944" on="0"/>
        <pt x="450" y="927" on="1"/>
        <pt x="580" y="850" on="1"/>
      </contour>
    </TTGlyph>
    <TTGlyph name="Ohungarumlaut" xMin="57" yMin="-10" xMax="889" yMax="960">
      <contour>
        <pt x="473" y="780" on="1"/>
        <pt x="561" y="780" on="0"/>
        <pt x="713" y="718" on="0"/>
        <pt x="825" y="610" on="0"/>
        <pt x="889" y="464" on="0"/>
        <pt x="889" y="379" on="1"/>
        <pt x="889" y="298" on="0"/>
        <pt x="824" y="156" on="0"/>
        <pt x="712" y="51" on="0"/>
        <pt x="560" y="-10" on="0"/>
        <pt x="473" y="-10" on="1"/>
        <pt x="386" y="-10" on="0"/>
        <pt x="234" y="51" on="0"/>
        <pt x="122" y="156" on="0"/>
        <pt x="57" y="298" on="0"/>
        <pt x="57" y="379" on="1"/>
        <pt x="57" y="464" on="0"/>
        <pt x="121" y="610" on="0"/>
        <pt x="233" y="718" on="0"/>
        <pt x="385" y="780" on="0"/>
      </contour>
      <contour>
        <pt x="473" y="45" on="1"/>
        <pt x="539" y="45" on="0"/>
        <pt x="644" y="91" on="0"/>
        <pt x="719" y="177" on="0"/>
        <pt x="759" y="300" on="0"/>
        <pt x="759" y="376" on="1"/>
        <pt x="759" y="456" on="0"/>
        <pt x="719" y="585" on="0"/>
        <pt x="645" y="676" on="0"/>
        <pt x="539" y="725" on="0"/>
        <pt x="473" y="725" on="1"/>
        <pt x="407" y="725" on="0"/>
        <pt x="301" y="676" on="0"/>
        <pt x="227" y="585" on="0"/>
        <pt x="187" y="456" on="0"/>
        <pt x="187" y="376" on="1"/>
        <pt x="187" y="300" on="0"/>
        <pt x="227" y="177" on="0"/>
        <pt x="301" y="91" on="0"/>
        <pt x="407" y="45" on="0"/>
      </contour>
      <contour>
        <pt x="289" y="850" on="1"/>
        <pt x="409" y="927" on="1"/>
        <pt x="436" y="944" on="0"/>
        <pt x="476" y="960" on="0"/>
        <pt x="496" y="960" on="1"/>
        <pt x="513" y="960" on="0"/>
        <pt x="534" y="942" on="0"/>
        <pt x="534" y="925" on="1"/>
        <pt x="534" y="909" on="0"/>
        <pt x="493" y="886" on="0"/>
        <pt x="459" y="878" on="1"/>
        <pt x="349" y="850" on="1"/>
      </contour>
      <contour>
        <pt x="476" y="850" on="1"/>
        <pt x="596" y="927" on="1"/>
        <pt x="623" y="944" on="0"/>
        <pt x="663" y="960" on="0"/>
        <pt x="683" y="960" on="1"/>
        <pt x="700" y="960" on="0"/>
        <pt x="721" y="942" on="0"/>
        <pt x="721" y="925" on="1"/>
        <pt x="721" y="909" on="0"/>
        <pt x="680" y="886" on="0"/>
        <pt x="646" y="878" on="1"/>
        <pt x="536" y="850" on="1"/>
      </contour>
    </TTGlyph>
    <TTGlyph name="Omacron" xMin="57" yMin="-10" xMax="889" yMax="930">
      <contour>
        <pt x="473" y="780" on="1"/>
        <pt x="561" y="780" on="0"/>
        <pt x="713" y="718" on="0"/>
        <pt x="825" y="610" on="0"/>
        <pt x="889" y="464" on="0"/>
        <pt x="889" y="379" on="1"/>
        <pt x="889" y="298" on="0"/>
        <pt x="824" y="156" on="0"/>
        <pt x="712" y="51" on="0"/>
        <pt x="560" y="-10" on="0"/>
        <pt x="473" y="-10" on="1"/>
        <pt x="386" y="-10" on="0"/>
        <pt x="234" y="51" on="0"/>
        <pt x="122" y="156" on="0"/>
        <pt x="57" y="298" on="0"/>
        <pt x="57" y="379" on="1"/>
        <pt x="57" y="464" on="0"/>
        <pt x="121" y="610" on="0"/>
        <pt x="233" y="718" on="0"/>
        <pt x="385" y="780" on="0"/>
      </contour>
      <contour>
        <pt x="473" y="45" on="1"/>
        <pt x="539" y="45" on="0"/>
        <pt x="644" y="91" on="0"/>
        <pt x="719" y="177" on="0"/>
        <pt x="759" y="300" on="0"/>
        <pt x="759" y="376" on="1"/>
        <pt x="759" y="456" on="0"/>
        <pt x="719" y="585" on="0"/>
        <pt x="645" y="676" on="0"/>
        <pt x="539" y="725" on="0"/>
        <pt x="473" y="725" on="1"/>
        <pt x="407" y="725" on="0"/>
        <pt x="301" y="676" on="0"/>
        <pt x="227" y="585" on="0"/>
        <pt x="187" y="456" on="0"/>
        <pt x="187" y="376" on="1"/>
        <pt x="187" y="300" on="0"/>
        <pt x="227" y="177" on="0"/>
        <pt x="301" y="91" on="0"/>
        <pt x="407" y="45" on="0"/>
      </contour>
      <contour>
        <pt x="339" y="880" on="1"/>
        <pt x="339" y="930" on="1"/>
        <pt x="609" y="930" on="1"/>
        <pt x="609" y="880" on="1"/>
      </contour>
    </TTGlyph>
    <TTGlyph name="Oogonek" xMin="57" yMin="-234" xMax="889" yMax="780">
      <contour>
        <pt x="578" y="-152" on="1"/>
        <pt x="543" y="-198" on="0"/>
        <pt x="465" y="-234" on="0"/>
        <pt x="421" y="-234" on="1"/>
        <pt x="375" y="-234" on="0"/>
        <pt x="324" y="-189" on="0"/>
        <pt x="324" y="-149" on="1"/>
        <pt x="324" y="-109" on="0"/>
        <pt x="380" y="-36" on="0"/>
        <pt x="432" y="-8" on="1"/>
        <pt x="352" y="-1" on="0"/>
        <pt x="215" y="64" on="0"/>
        <pt x="114" y="168" on="0"/>
        <pt x="57" y="302" on="0"/>
        <pt x="57" y="379" on="1"/>
        <pt x="57" y="464" on="0"/>
        <pt x="121" y="610" on="0"/>
        <pt x="233" y="718" on="0"/>
        <pt x="385" y="780" on="0"/>
        <pt x="473" y="780" on="1"/>
        <pt x="561" y="780" on="0"/>
        <pt x="713" y="718" on="0"/>
        <pt x="825" y="610" on="0"/>
        <pt x="889" y="464" on="0"/>
        <pt x="889" y="379" on="1"/>
        <pt x="889" y="300" on="0"/>
        <pt x="828" y="162" on="0"/>
        <pt x="722" y="58" on="0"/>
        <pt x="579" y="-5" on="0"/>
        <pt x="496" y="-9" on="1"/>
        <pt x="454" y="-35" on="0"/>
        <pt x="403" y="-99" on="0"/>
        <pt x="403" y="-126" on="1"/>
        <pt x="403" y="-146" on="0"/>
        <pt x="430" y="-174" on="0"/>
        <pt x="454" y="-174" on="1"/>
        <pt x="473" y="-174" on="0"/>
        <pt x="523" y="-148" on="0"/>
        <pt x="549" y="-121" on="1"/>
      </contour>
      <contour>
        <pt x="473" y="45" on="1"/>
        <pt x="539" y="45" on="0"/>
        <pt x="644" y="91" on="0"/>
        <pt x="719" y="177" on="0"/>
        <pt x="759" y="300" on="0"/>
        <pt x="759" y="376" on="1"/>
        <pt x="759" y="456" on="0"/>
        <pt x="719" y="585" on="0"/>
        <pt x="645" y="676" on="0"/>
        <pt x="539" y="725" on="0"/>
        <pt x="473" y="725" on="1"/>
        <pt x="407" y="725" on="0"/>
        <pt x="301" y="676" on="0"/>
        <pt x="227" y="585" on="0"/>
        <pt x="187" y="456" on="0"/>
        <pt x="187" y="376" on="1"/>
        <pt x="187" y="300" on="0"/>
        <pt x="227" y="177" on="0"/>
        <pt x="301" y="91" on="0"/>
        <pt x="407" y="45" on="0"/>
      </contour>
    </TTGlyph>
    <TTGlyph name="Oslash" xMin="57" yMin="-81" xMax="889" yMax="830">
      <contour>
        <pt x="473" y="780" on="1"/>
        <pt x="535" y="780" on="0"/>
        <pt x="647" y="749" on="0"/>
        <pt x="695" y="720" on="1"/>
        <pt x="782" y="830" on="1"/>
        <pt x="851" y="830" on="1"/>
        <pt x="740" y="689" on="1"/>
        <pt x="809" y="634" on="0"/>
        <pt x="889" y="475" on="0"/>
        <pt x="889" y="379" on="1"/>
        <pt x="889" y="298" on="0"/>
        <pt x="824" y="156" on="0"/>
        <pt x="712" y="51" on="0"/>
        <pt x="560" y="-10" on="0"/>
        <pt x="473" y="-10" on="1"/>
        <pt x="407" y="-10" on="0"/>
        <pt x="290" y="24" on="0"/>
        <pt x="239" y="56" on="1"/>
        <pt x="131" y="-81" on="1"/>
        <pt x="63" y="-81" on="1"/>
        <pt x="196" y="87" on="1"/>
        <pt x="131" y="141" on="0"/>
        <pt x="57" y="291" on="0"/>
        <pt x="57" y="379" on="1"/>
        <pt x="57" y="464" on="0"/>
        <pt x="121" y="610" on="0"/>
        <pt x="233" y="718" on="0"/>
        <pt x="385" y="780" on="0"/>
      </contour>
      <contour>
        <pt x="473" y="45" on="1"/>
        <pt x="539" y="45" on="0"/>
        <pt x="644" y="91" on="0"/>
        <pt x="719" y="177" on="0"/>
        <pt x="759" y="300" on="0"/>
        <pt x="759" y="376" on="1"/>
        <pt x="759" y="454" on="0"/>
        <pt x="723" y="578" on="0"/>
        <pt x="688" y="623" on="1"/>
        <pt x="284" y="113" on="1"/>
        <pt x="358" y="45" on="0"/>
      </contour>
      <contour>
        <pt x="187" y="376" on="1"/>
        <pt x="187" y="239" on="0"/>
        <pt x="248" y="154" on="1"/>
        <pt x="650" y="663" on="1"/>
        <pt x="579" y="725" on="0"/>
        <pt x="473" y="725" on="1"/>
        <pt x="407" y="725" on="0"/>
        <pt x="301" y="676" on="0"/>
        <pt x="227" y="585" on="0"/>
        <pt x="187" y="456" on="0"/>
      </contour>
    </TTGlyph>
    <TTGlyph name="Oslashacute" xMin="57" yMin="-81" xMax="889" yMax="960">
      <contour>
        <pt x="473" y="780" on="1"/>
        <pt x="535" y="780" on="0"/>
        <pt x="647" y="749" on="0"/>
        <pt x="695" y="720" on="1"/>
        <pt x="782" y="830" on="1"/>
        <pt x="851" y="830" on="1"/>
        <pt x="740" y="689" on="1"/>
        <pt x="809" y="634" on="0"/>
        <pt x="889" y="475" on="0"/>
        <pt x="889" y="379" on="1"/>
        <pt x="889" y="298" on="0"/>
        <pt x="824" y="156" on="0"/>
        <pt x="712" y="51" on="0"/>
        <pt x="560" y="-10" on="0"/>
        <pt x="473" y="-10" on="1"/>
        <pt x="407" y="-10" on="0"/>
        <pt x="290" y="24" on="0"/>
        <pt x="239" y="56" on="1"/>
        <pt x="131" y="-81" on="1"/>
        <pt x="63" y="-81" on="1"/>
        <pt x="196" y="87" on="1"/>
        <pt x="131" y="141" on="0"/>
        <pt x="57" y="291" on="0"/>
        <pt x="57" y="379" on="1"/>
        <pt x="57" y="464" on="0"/>
        <pt x="121" y="610" on="0"/>
        <pt x="233" y="718" on="0"/>
        <pt x="385" y="780" on="0"/>
      </contour>
      <contour>
        <pt x="473" y="45" on="1"/>
        <pt x="539" y="45" on="0"/>
        <pt x="644" y="91" on="0"/>
        <pt x="719" y="177" on="0"/>
        <pt x="759" y="300" on="0"/>
        <pt x="759" y="376" on="1"/>
        <pt x="759" y="454" on="0"/>
        <pt x="723" y="578" on="0"/>
        <pt x="688" y="623" on="1"/>
        <pt x="284" y="113" on="1"/>
        <pt x="358" y="45" on="0"/>
      </contour>
      <contour>
        <pt x="187" y="376" on="1"/>
        <pt x="187" y="239" on="0"/>
        <pt x="248" y="154" on="1"/>
        <pt x="650" y="663" on="1"/>
        <pt x="579" y="725" on="0"/>
        <pt x="473" y="725" on="1"/>
        <pt x="407" y="725" on="0"/>
        <pt x="301" y="676" on="0"/>
        <pt x="227" y="585" on="0"/>
        <pt x="187" y="456" on="0"/>
      </contour>
      <contour>
        <pt x="376" y="850" on="1"/>
        <pt x="506" y="927" on="1"/>
        <pt x="534" y="944" on="0"/>
        <pt x="573" y="960" on="0"/>
        <pt x="593" y="960" on="1"/>
        <pt x="610" y="960" on="0"/>
        <pt x="631" y="942" on="0"/>
        <pt x="631" y="925" on="1"/>
        <pt x="631" y="909" on="0"/>
        <pt x="590" y="886" on="0"/>
        <pt x="556" y="878" on="1"/>
        <pt x="436" y="850" on="1"/>
      </contour>
    </TTGlyph>
    <TTGlyph name="Otilde" xMin="57" yMin="-10" xMax="889" yMax="960">
      <contour>
        <pt x="473" y="780" on="1"/>
        <pt x="561" y="780" on="0"/>
        <pt x="713" y="718" on="0"/>
        <pt x="825" y="610" on="0"/>
        <pt x="889" y="464" on="0"/>
        <pt x="889" y="379" on="1"/>
        <pt x="889" y="298" on="0"/>
        <pt x="824" y="156" on="0"/>
        <pt x="712" y="51" on="0"/>
        <pt x="560" y="-10" on="0"/>
        <pt x="473" y="-10" on="1"/>
        <pt x="386" y="-10" on="0"/>
        <pt x="234" y="51" on="0"/>
        <pt x="122" y="156" on="0"/>
        <pt x="57" y="298" on="0"/>
        <pt x="57" y="379" on="1"/>
        <pt x="57" y="464" on="0"/>
        <pt x="121" y="610" on="0"/>
        <pt x="233" y="718" on="0"/>
        <pt x="385" y="780" on="0"/>
      </contour>
      <contour>
        <pt x="473" y="45" on="1"/>
        <pt x="539" y="45" on="0"/>
        <pt x="644" y="91" on="0"/>
        <pt x="719" y="177" on="0"/>
        <pt x="759" y="300" on="0"/>
        <pt x="759" y="376" on="1"/>
        <pt x="759" y="456" on="0"/>
        <pt x="719" y="585" on="0"/>
        <pt x="645" y="676" on="0"/>
        <pt x="539" y="725" on="0"/>
        <pt x="473" y="725" on="1"/>
        <pt x="407" y="725" on="0"/>
        <pt x="301" y="676" on="0"/>
        <pt x="227" y="585" on="0"/>
        <pt x="187" y="456" on="0"/>
        <pt x="187" y="376" on="1"/>
        <pt x="187" y="300" on="0"/>
        <pt x="227" y="177" on="0"/>
        <pt x="301" y="91" on="0"/>
        <pt x="407" y="45" on="0"/>
      </contour>
      <contour>
        <pt x="303" y="846" on="1"/>
        <pt x="311" y="897" on="0"/>
        <pt x="370" y="960" on="0"/>
        <pt x="409" y="960" on="1"/>
        <pt x="429" y="960" on="0"/>
        <pt x="468" y="946" on="0"/>
        <pt x="507" y="928" on="0"/>
        <pt x="545" y="914" on="0"/>
        <pt x="564" y="914" on="1"/>
        <pt x="583" y="914" on="0"/>
        <pt x="603" y="933" on="0"/>
        <pt x="611" y="956" on="1"/>
        <pt x="644" y="956" on="1"/>
        <pt x="639" y="905" on="0"/>
        <pt x="582" y="838" on="0"/>
        <pt x="544" y="838" on="1"/>
        <pt x="524" y="838" on="0"/>
        <pt x="484" y="853" on="0"/>
        <pt x="443" y="871" on="0"/>
        <pt x="402" y="886" on="0"/>
        <pt x="382" y="886" on="1"/>
        <pt x="363" y="886" on="0"/>
        <pt x="344" y="869" on="0"/>
        <pt x="337" y="846" on="1"/>
      </contour>
    </TTGlyph>
</ttFont>
